  0
SECTION
  2
HEADER
  9
$ANGBASE
  50
0.0
  9
$ANGDIR
  70
  1
  9
$MEASUREMENT
  70
0
  0
ENDSEC
  0
SECTION
  2
TABLES
  0
TABLE
  2
LTYPE
  70
1
  0
LTYPE
  2
CONTINUOUS
  70
0
  3
Solid line
  72
65
  73
0
  40
0.0
  0
ENDTAB
  0
TABLE
  2
STYLE
  70
4
  0
STYLE
  2
KICAD
  70
0
  40
0
  41
1
  42
1
  50
0
  71
0
  3
isocp.shx
  0
STYLE
  2
KICADB
  70
0
  40
0
  41
1
  42
1
  50
0
  71
0
  3
isocp.shx
  0
STYLE
  2
KICADI
  70
0
  40
0
  41
1
  42
1
  50
15
  71
0
  3
isocp.shx
  0
STYLE
  2
KICADBI
  70
0
  40
0
  41
1
  42
1
  50
15
  71
0
  3
isocp.shx
  0
ENDTAB
  0
TABLE
  2
LAYER
  70
30
  0
LAYER
  2
BLACK
  70
0
  62
7
  6
CONTINUOUS
  0
LAYER
  2
GRAY1
  70
0
  62
251
  6
CONTINUOUS
  0
LAYER
  2
GRAY2
  70
0
  62
8
  6
CONTINUOUS
  0
LAYER
  2
GRAY3
  70
0
  62
9
  6
CONTINUOUS
  0
LAYER
  2
WHITE
  70
0
  62
7
  6
CONTINUOUS
  0
LAYER
  2
LYELLOW
  70
0
  62
51
  6
CONTINUOUS
  0
LAYER
  2
BLUE1
  70
0
  62
178
  6
CONTINUOUS
  0
LAYER
  2
GREEN1
  70
0
  62
98
  6
CONTINUOUS
  0
LAYER
  2
CYAN1
  70
0
  62
138
  6
CONTINUOUS
  0
LAYER
  2
RED1
  70
0
  62
18
  6
CONTINUOUS
  0
LAYER
  2
MAGENTA1
  70
0
  62
228
  6
CONTINUOUS
  0
LAYER
  2
BROWN1
  70
0
  62
58
  6
CONTINUOUS
  0
LAYER
  2
BLUE2
  70
0
  62
5
  6
CONTINUOUS
  0
LAYER
  2
GREEN2
  70
0
  62
3
  6
CONTINUOUS
  0
LAYER
  2
CYAN2
  70
0
  62
4
  6
CONTINUOUS
  0
LAYER
  2
RED2
  70
0
  62
1
  6
CONTINUOUS
  0
LAYER
  2
MAGENTA2
  70
0
  62
6
  6
CONTINUOUS
  0
LAYER
  2
BROWN2
  70
0
  62
54
  6
CONTINUOUS
  0
LAYER
  2
BLUE3
  70
0
  62
171
  6
CONTINUOUS
  0
LAYER
  2
GREEN3
  70
0
  62
91
  6
CONTINUOUS
  0
LAYER
  2
CYAN3
  70
0
  62
131
  6
CONTINUOUS
  0
LAYER
  2
RED3
  70
0
  62
11
  6
CONTINUOUS
  0
LAYER
  2
MAGENTA3
  70
0
  62
221
  6
CONTINUOUS
  0
LAYER
  2
YELLOW3
  70
0
  62
2
  6
CONTINUOUS
  0
LAYER
  2
BLUE4
  70
0
  62
5
  6
CONTINUOUS
  0
LAYER
  2
GREEN4
  70
0
  62
3
  6
CONTINUOUS
  0
LAYER
  2
CYAN4
  70
0
  62
4
  6
CONTINUOUS
  0
LAYER
  2
RED4
  70
0
  62
1
  6
CONTINUOUS
  0
LAYER
  2
MAGENTA4
  70
0
  62
6
  6
CONTINUOUS
  0
LAYER
  2
YELLOW4
  70
0
  62
2
  6
CONTINUOUS
  0
ENDTAB
  0
ENDSEC
  0
SECTION
  2
ENTITIES
0
LINE
8
Black
10
73.806
20
-97.911
11
73.006
21
-97.911
0
LINE
8
Black
10
73.006
20
-97.911
11
73.006
21
-97.161
0
LINE
8
Black
10
73.006
20
-97.161
11
73.806
21
-97.161
0
LINE
8
Black
10
73.806
20
-97.161
11
73.806
21
-97.911
0
LINE
8
Black
10
75.306
20
-97.911
11
74.506
21
-97.911
0
LINE
8
Black
10
74.506
20
-97.911
11
74.506
21
-97.161
0
LINE
8
Black
10
74.506
20
-97.161
11
75.306
21
-97.161
0
LINE
8
Black
10
75.306
20
-97.161
11
75.306
21
-97.911
0
LINE
8
Black
10
77.643
20
-95.931
11
76.093
21
-95.931
0
LINE
8
Black
10
76.093
20
-95.931
11
76.093
21
-95.331
0
LINE
8
Black
10
76.093
20
-95.331
11
77.643
21
-95.331
0
LINE
8
Black
10
77.643
20
-95.331
11
77.643
21
-95.931
0
LINE
8
Black
10
72.243
20
-95.931
11
70.693
21
-95.931
0
LINE
8
Black
10
70.693
20
-95.931
11
70.693
21
-95.331
0
LINE
8
Black
10
70.693
20
-95.331
11
72.243
21
-95.331
0
LINE
8
Black
10
72.243
20
-95.331
11
72.243
21
-95.931
0
LINE
8
Black
10
79.51
20
-94.938
11
79.01
21
-94.938
0
LINE
8
Black
10
79.01
20
-94.938
11
79.01
21
-94.038
0
LINE
8
Black
10
79.01
20
-94.038
11
79.51
21
-94.038
0
LINE
8
Black
10
79.51
20
-94.038
11
79.51
21
-94.938
0
LINE
8
Black
10
81.01
20
-94.938
11
80.51
21
-94.938
0
LINE
8
Black
10
80.51
20
-94.938
11
80.51
21
-94.038
0
LINE
8
Black
10
80.51
20
-94.038
11
81.01
21
-94.038
0
LINE
8
Black
10
81.01
20
-94.038
11
81.01
21
-94.938
0
LINE
8
Black
10
77.643
20
-94.661
11
76.093
21
-94.661
0
LINE
8
Black
10
76.093
20
-94.661
11
76.093
21
-94.061
0
LINE
8
Black
10
76.093
20
-94.061
11
77.643
21
-94.061
0
LINE
8
Black
10
77.643
20
-94.061
11
77.643
21
-94.661
0
LINE
8
Black
10
72.243
20
-94.661
11
70.693
21
-94.661
0
LINE
8
Black
10
70.693
20
-94.661
11
70.693
21
-94.061
0
LINE
8
Black
10
70.693
20
-94.061
11
72.243
21
-94.061
0
LINE
8
Black
10
72.243
20
-94.061
11
72.243
21
-94.661
0
LINE
8
Black
10
81.01
20
-93.414
11
80.51
21
-93.414
0
LINE
8
Black
10
80.51
20
-93.414
11
80.51
21
-92.514
0
LINE
8
Black
10
80.51
20
-92.514
11
81.01
21
-92.514
0
LINE
8
Black
10
81.01
20
-92.514
11
81.01
21
-93.414
0
LINE
8
Black
10
79.51
20
-93.414
11
79.01
21
-93.414
0
LINE
8
Black
10
79.01
20
-93.414
11
79.01
21
-92.514
0
LINE
8
Black
10
79.01
20
-92.514
11
79.51
21
-92.514
0
LINE
8
Black
10
79.51
20
-92.514
11
79.51
21
-93.414
0
LINE
8
Black
10
72.243
20
-93.391
11
70.693
21
-93.391
0
LINE
8
Black
10
70.693
20
-93.391
11
70.693
21
-92.791
0
LINE
8
Black
10
70.693
20
-92.791
11
72.243
21
-92.791
0
LINE
8
Black
10
72.243
20
-92.791
11
72.243
21
-93.391
0
LINE
8
Black
10
77.643
20
-93.391
11
76.093
21
-93.391
0
LINE
8
Black
10
76.093
20
-93.391
11
76.093
21
-92.791
0
LINE
8
Black
10
76.093
20
-92.791
11
77.643
21
-92.791
0
LINE
8
Black
10
77.643
20
-92.791
11
77.643
21
-93.391
0
LINE
8
Black
10
72.243
20
-92.121
11
70.693
21
-92.121
0
LINE
8
Black
10
70.693
20
-92.121
11
70.693
21
-91.521
0
LINE
8
Black
10
70.693
20
-91.521
11
72.243
21
-91.521
0
LINE
8
Black
10
72.243
20
-91.521
11
72.243
21
-92.121
0
LINE
8
Black
10
77.643
20
-92.121
11
76.093
21
-92.121
0
LINE
8
Black
10
76.093
20
-92.121
11
76.093
21
-91.521
0
LINE
8
Black
10
76.093
20
-91.521
11
77.643
21
-91.521
0
LINE
8
Black
10
77.643
20
-91.521
11
77.643
21
-92.121
0
LINE
8
Black
10
58.92
20
-80.015
11
57.92
21
-80.015
0
LINE
8
Black
10
57.92
20
-80.015
11
57.92
21
-79.065
0
LINE
8
Black
10
57.92
20
-79.065
11
58.92
21
-79.065
0
LINE
8
Black
10
58.92
20
-79.065
11
58.92
21
-80.015
0
LINE
8
Black
10
95.677
20
-78.659
11
95.077
21
-78.659
0
LINE
8
Black
10
95.077
20
-78.659
11
95.077
21
-77.109
0
LINE
8
Black
10
95.077
20
-77.109
11
95.677
21
-77.109
0
LINE
8
Black
10
95.677
20
-77.109
11
95.677
21
-78.659
0
LINE
8
Black
10
94.407
20
-78.659
11
93.807
21
-78.659
0
LINE
8
Black
10
93.807
20
-78.659
11
93.807
21
-77.109
0
LINE
8
Black
10
93.807
20
-77.109
11
94.407
21
-77.109
0
LINE
8
Black
10
94.407
20
-77.109
11
94.407
21
-78.659
0
LINE
8
Black
10
93.137
20
-78.659
11
92.537
21
-78.659
0
LINE
8
Black
10
92.537
20
-78.659
11
92.537
21
-77.109
0
LINE
8
Black
10
92.537
20
-77.109
11
93.137
21
-77.109
0
LINE
8
Black
10
93.137
20
-77.109
11
93.137
21
-78.659
0
LINE
8
Black
10
91.867
20
-78.659
11
91.267
21
-78.659
0
LINE
8
Black
10
91.267
20
-78.659
11
91.267
21
-77.109
0
LINE
8
Black
10
91.267
20
-77.109
11
91.867
21
-77.109
0
LINE
8
Black
10
91.867
20
-77.109
11
91.867
21
-78.659
0
LINE
8
Black
10
58.92
20
-78.415
11
57.92
21
-78.415
0
LINE
8
Black
10
57.92
20
-78.415
11
57.92
21
-77.465
0
LINE
8
Black
10
57.92
20
-77.465
11
58.92
21
-77.465
0
LINE
8
Black
10
58.92
20
-77.465
11
58.92
21
-78.415
0
LINE
8
Black
10
57.069
20
-78.405
11
56.469
21
-78.405
0
LINE
8
Black
10
56.469
20
-78.405
11
56.469
21
-76.855
0
LINE
8
Black
10
56.469
20
-76.855
11
57.069
21
-76.855
0
LINE
8
Black
10
57.069
20
-76.855
11
57.069
21
-78.405
0
LINE
8
Black
10
55.799
20
-78.405
11
55.199
21
-78.405
0
LINE
8
Black
10
55.199
20
-78.405
11
55.199
21
-76.855
0
LINE
8
Black
10
55.199
20
-76.855
11
55.799
21
-76.855
0
LINE
8
Black
10
55.799
20
-76.855
11
55.799
21
-78.405
0
LINE
8
Black
10
54.529
20
-78.405
11
53.929
21
-78.405
0
LINE
8
Black
10
53.929
20
-78.405
11
53.929
21
-76.855
0
LINE
8
Black
10
53.929
20
-76.855
11
54.529
21
-76.855
0
LINE
8
Black
10
54.529
20
-76.855
11
54.529
21
-78.405
0
LINE
8
Black
10
53.259
20
-78.405
11
52.659
21
-78.405
0
LINE
8
Black
10
52.659
20
-78.405
11
52.659
21
-76.855
0
LINE
8
Black
10
52.659
20
-76.855
11
53.259
21
-76.855
0
LINE
8
Black
10
53.259
20
-76.855
11
53.259
21
-78.405
0
LINE
8
Black
10
97.403
20
-76.334
11
96.653
21
-76.334
0
LINE
8
Black
10
96.653
20
-76.334
11
96.653
21
-75.534
0
LINE
8
Black
10
96.653
20
-75.534
11
97.403
21
-75.534
0
LINE
8
Black
10
97.403
20
-75.534
11
97.403
21
-76.334
0
LINE
8
Black
10
97.403
20
-74.834
11
96.653
21
-74.834
0
LINE
8
Black
10
96.653
20
-74.834
11
96.653
21
-74.034
0
LINE
8
Black
10
96.653
20
-74.034
11
97.403
21
-74.034
0
LINE
8
Black
10
97.403
20
-74.034
11
97.403
21
-74.834
0
LINE
8
Black
10
93.137
20
-73.259
11
92.537
21
-73.259
0
LINE
8
Black
10
92.537
20
-73.259
11
92.537
21
-71.709
0
LINE
8
Black
10
92.537
20
-71.709
11
93.137
21
-71.709
0
LINE
8
Black
10
93.137
20
-71.709
11
93.137
21
-73.259
0
LINE
8
Black
10
91.867
20
-73.259
11
91.267
21
-73.259
0
LINE
8
Black
10
91.267
20
-73.259
11
91.267
21
-71.709
0
LINE
8
Black
10
91.267
20
-71.709
11
91.867
21
-71.709
0
LINE
8
Black
10
91.867
20
-71.709
11
91.867
21
-73.259
0
LINE
8
Black
10
94.407
20
-73.259
11
93.807
21
-73.259
0
LINE
8
Black
10
93.807
20
-73.259
11
93.807
21
-71.709
0
LINE
8
Black
10
93.807
20
-71.709
11
94.407
21
-71.709
0
LINE
8
Black
10
94.407
20
-71.709
11
94.407
21
-73.259
0
LINE
8
Black
10
95.677
20
-73.259
11
95.077
21
-73.259
0
LINE
8
Black
10
95.077
20
-73.259
11
95.077
21
-71.709
0
LINE
8
Black
10
95.077
20
-71.709
11
95.677
21
-71.709
0
LINE
8
Black
10
95.677
20
-71.709
11
95.677
21
-73.259
0
LINE
8
Black
10
57.069
20
-73.005
11
56.469
21
-73.005
0
LINE
8
Black
10
56.469
20
-73.005
11
56.469
21
-71.455
0
LINE
8
Black
10
56.469
20
-71.455
11
57.069
21
-71.455
0
LINE
8
Black
10
57.069
20
-71.455
11
57.069
21
-73.005
0
LINE
8
Black
10
55.799
20
-73.005
11
55.199
21
-73.005
0
LINE
8
Black
10
55.199
20
-73.005
11
55.199
21
-71.455
0
LINE
8
Black
10
55.199
20
-71.455
11
55.799
21
-71.455
0
LINE
8
Black
10
55.799
20
-71.455
11
55.799
21
-73.005
0
LINE
8
Black
10
54.529
20
-73.005
11
53.929
21
-73.005
0
LINE
8
Black
10
53.929
20
-73.005
11
53.929
21
-71.455
0
LINE
8
Black
10
53.929
20
-71.455
11
54.529
21
-71.455
0
LINE
8
Black
10
54.529
20
-71.455
11
54.529
21
-73.005
0
LINE
8
Black
10
53.259
20
-73.005
11
52.659
21
-73.005
0
LINE
8
Black
10
52.659
20
-73.005
11
52.659
21
-71.455
0
LINE
8
Black
10
52.659
20
-71.455
11
53.259
21
-71.455
0
LINE
8
Black
10
53.259
20
-71.455
11
53.259
21
-73.005
0
LINE
8
Black
10
52.724
20
-70.733
11
51.924
21
-70.733
0
LINE
8
Black
10
51.924
20
-70.733
11
51.924
21
-69.983
0
LINE
8
Black
10
51.924
20
-69.983
11
52.724
21
-69.983
0
LINE
8
Black
10
52.724
20
-69.983
11
52.724
21
-70.733
0
LINE
8
Black
10
51.224
20
-70.733
11
50.424
21
-70.733
0
LINE
8
Black
10
50.424
20
-70.733
11
50.424
21
-69.983
0
LINE
8
Black
10
50.424
20
-69.983
11
51.224
21
-69.983
0
LINE
8
Black
10
51.224
20
-69.983
11
51.224
21
-70.733
0
LINE
8
Black
10
59.873
20
-58.666
11
58.923
21
-58.666
0
LINE
8
Black
10
58.923
20
-58.666
11
58.923
21
-57.666
0
LINE
8
Black
10
58.923
20
-57.666
11
59.873
21
-57.666
0
LINE
8
Black
10
59.873
20
-57.666
11
59.873
21
-58.666
0
LINE
8
Black
10
61.473
20
-58.666
11
60.523
21
-58.666
0
LINE
8
Black
10
60.523
20
-58.666
11
60.523
21
-57.666
0
LINE
8
Black
10
60.523
20
-57.666
11
61.473
21
-57.666
0
LINE
8
Black
10
61.473
20
-57.666
11
61.473
21
-58.666
0
LINE
8
Black
10
69.246
20
-56.636
11
68.446
21
-56.636
0
LINE
8
Black
10
68.446
20
-56.636
11
68.446
21
-55.886
0
LINE
8
Black
10
68.446
20
-55.886
11
69.246
21
-55.886
0
LINE
8
Black
10
69.246
20
-55.886
11
69.246
21
-56.636
0
LINE
8
Black
10
70.746
20
-56.636
11
69.946
21
-56.636
0
LINE
8
Black
10
69.946
20
-56.636
11
69.946
21
-55.886
0
LINE
8
Black
10
69.946
20
-55.886
11
70.746
21
-55.886
0
LINE
8
Black
10
70.746
20
-55.886
11
70.746
21
-56.636
0
LINE
8
Black
10
79.167
20
-56.561
11
77.617
21
-56.561
0
LINE
8
Black
10
77.617
20
-56.561
11
77.617
21
-55.961
0
LINE
8
Black
10
77.617
20
-55.961
11
79.167
21
-55.961
0
LINE
8
Black
10
79.167
20
-55.961
11
79.167
21
-56.561
0
LINE
8
Black
10
73.767
20
-56.561
11
72.217
21
-56.561
0
LINE
8
Black
10
72.217
20
-56.561
11
72.217
21
-55.961
0
LINE
8
Black
10
72.217
20
-55.961
11
73.767
21
-55.961
0
LINE
8
Black
10
73.767
20
-55.961
11
73.767
21
-56.561
0
LINE
8
Black
10
79.167
20
-55.291
11
77.617
21
-55.291
0
LINE
8
Black
10
77.617
20
-55.291
11
77.617
21
-54.691
0
LINE
8
Black
10
77.617
20
-54.691
11
79.167
21
-54.691
0
LINE
8
Black
10
79.167
20
-54.691
11
79.167
21
-55.291
0
LINE
8
Black
10
73.767
20
-55.291
11
72.217
21
-55.291
0
LINE
8
Black
10
72.217
20
-55.291
11
72.217
21
-54.691
0
LINE
8
Black
10
72.217
20
-54.691
11
73.767
21
-54.691
0
LINE
8
Black
10
73.767
20
-54.691
11
73.767
21
-55.291
0
LINE
8
Black
10
70.596
20
-55.06
11
70.096
21
-55.06
0
LINE
8
Black
10
70.096
20
-55.06
11
70.096
21
-54.16
0
LINE
8
Black
10
70.096
20
-54.16
11
70.596
21
-54.16
0
LINE
8
Black
10
70.596
20
-54.16
11
70.596
21
-55.06
0
LINE
8
Black
10
69.096
20
-55.06
11
68.596
21
-55.06
0
LINE
8
Black
10
68.596
20
-55.06
11
68.596
21
-54.16
0
LINE
8
Black
10
68.596
20
-54.16
11
69.096
21
-54.16
0
LINE
8
Black
10
69.096
20
-54.16
11
69.096
21
-55.06
0
LINE
8
Black
10
79.167
20
-54.021
11
77.617
21
-54.021
0
LINE
8
Black
10
77.617
20
-54.021
11
77.617
21
-53.421
0
LINE
8
Black
10
77.617
20
-53.421
11
79.167
21
-53.421
0
LINE
8
Black
10
79.167
20
-53.421
11
79.167
21
-54.021
0
LINE
8
Black
10
73.767
20
-54.021
11
72.217
21
-54.021
0
LINE
8
Black
10
72.217
20
-54.021
11
72.217
21
-53.421
0
LINE
8
Black
10
72.217
20
-53.421
11
73.767
21
-53.421
0
LINE
8
Black
10
73.767
20
-53.421
11
73.767
21
-54.021
0
LINE
8
Black
10
69.096
20
-53.409
11
68.596
21
-53.409
0
LINE
8
Black
10
68.596
20
-53.409
11
68.596
21
-52.509
0
LINE
8
Black
10
68.596
20
-52.509
11
69.096
21
-52.509
0
LINE
8
Black
10
69.096
20
-52.509
11
69.096
21
-53.409
0
LINE
8
Black
10
70.596
20
-53.409
11
70.096
21
-53.409
0
LINE
8
Black
10
70.096
20
-53.409
11
70.096
21
-52.509
0
LINE
8
Black
10
70.096
20
-52.509
11
70.596
21
-52.509
0
LINE
8
Black
10
70.596
20
-52.509
11
70.596
21
-53.409
0
LINE
8
Black
10
81.184
20
-52.953
11
80.384
21
-52.953
0
LINE
8
Black
10
80.384
20
-52.953
11
80.384
21
-52.203
0
LINE
8
Black
10
80.384
20
-52.203
11
81.184
21
-52.203
0
LINE
8
Black
10
81.184
20
-52.203
11
81.184
21
-52.953
0
LINE
8
Black
10
82.684
20
-52.953
11
81.884
21
-52.953
0
LINE
8
Black
10
81.884
20
-52.953
11
81.884
21
-52.203
0
LINE
8
Black
10
81.884
20
-52.203
11
82.684
21
-52.203
0
LINE
8
Black
10
82.684
20
-52.203
11
82.684
21
-52.953
0
LINE
8
Black
10
79.167
20
-52.751
11
77.617
21
-52.751
0
LINE
8
Black
10
77.617
20
-52.751
11
77.617
21
-52.151
0
LINE
8
Black
10
77.617
20
-52.151
11
79.167
21
-52.151
0
LINE
8
Black
10
79.167
20
-52.151
11
79.167
21
-52.751
0
LINE
8
Black
10
73.767
20
-52.751
11
72.217
21
-52.751
0
LINE
8
Black
10
72.217
20
-52.751
11
72.217
21
-52.151
0
LINE
8
Black
10
72.217
20
-52.151
11
73.767
21
-52.151
0
LINE
8
Black
10
73.767
20
-52.151
11
73.767
21
-52.751
  0
ENDSEC
  0
EOF
