M48
;DRILL file {KiCad (2016-03-07 BZR 6612)-product} date Sunday, 29 May 2016 'pmt' 23:22:18
;FORMAT={-:-/ absolute / inch / decimal}
FMAT,2
INCH,TZ
T1C0.020
T2C0.040
T3C0.126
%
G90
G05
M72
T1
X2.815Y-2.065
X3.03Y-3.83
T2
X2.04Y-2.45
X2.04Y-2.55
X2.04Y-2.65
X2.1Y-3.25
X2.1Y-3.35
X2.1Y-3.45
X2.16Y-2.45
X2.16Y-2.55
X2.16Y-2.65
X2.2Y-3.25
X2.2Y-3.35
X2.2Y-3.45
X2.28Y-2.45
X2.28Y-2.55
X2.28Y-2.65
X2.3Y-3.25
X2.3Y-3.35
X2.3Y-3.45
X2.4Y-2.45
X2.4Y-2.55
X2.4Y-2.65
X2.4Y-2.75
X2.4Y-2.85
X2.4Y-2.95
X2.4Y-3.05
X2.4Y-3.15
X2.4Y-3.25
X2.4Y-3.35
X2.4Y-3.45
X2.41Y-2.13
X2.5Y-2.45
X2.5Y-2.55
X2.5Y-2.65
X2.5Y-2.75
X2.5Y-2.85
X2.5Y-2.95
X2.5Y-3.05
X2.5Y-3.15
X2.5Y-3.25
X2.5Y-3.35
X2.5Y-3.45
X2.5Y-3.56
X2.51Y-2.13
X2.55Y-3.84
X2.6Y-2.35
X2.6Y-2.45
X2.6Y-2.55
X2.6Y-2.65
X2.6Y-2.75
X2.6Y-2.85
X2.6Y-2.95
X2.6Y-3.05
X2.6Y-3.15
X2.6Y-3.25
X2.6Y-3.35
X2.6Y-3.45
X2.6Y-3.56
X2.65Y-3.84
X2.7Y-2.35
X2.7Y-2.45
X2.7Y-2.55
X2.7Y-2.65
X2.7Y-2.75
X2.7Y-2.85
X2.7Y-2.95
X2.7Y-3.05
X2.7Y-3.15
X2.7Y-3.25
X2.7Y-3.35
X2.7Y-3.45
X2.7Y-3.56
X2.75Y-3.84
X2.8Y-2.35
X2.8Y-2.45
X2.8Y-2.55
X2.8Y-2.65
X2.8Y-2.75
X2.8Y-2.85
X2.8Y-2.95
X2.8Y-3.05
X2.8Y-3.15
X2.8Y-3.25
X2.8Y-3.35
X2.8Y-3.45
X2.9Y-2.35
X2.9Y-2.45
X2.9Y-2.55
X2.9Y-2.65
X2.9Y-2.75
X2.9Y-2.85
X2.9Y-2.95
X2.9Y-3.05
X2.9Y-3.15
X2.9Y-3.25
X2.9Y-3.35
X2.9Y-3.45
X3.Y-2.35
X3.Y-2.45
X3.Y-2.55
X3.Y-2.65
X3.Y-2.75
X3.Y-2.85
X3.Y-2.95
X3.Y-3.05
X3.Y-3.15
X3.Y-3.25
X3.Y-3.35
X3.Y-3.45
X3.1Y-2.35
X3.1Y-2.45
X3.1Y-2.55
X3.1Y-2.65
X3.1Y-2.75
X3.1Y-2.85
X3.1Y-2.95
X3.1Y-3.05
X3.1Y-3.15
X3.1Y-3.25
X3.1Y-3.35
X3.1Y-3.45
X3.16Y-3.84
X3.2Y-2.35
X3.2Y-2.45
X3.2Y-2.55
X3.2Y-2.65
X3.2Y-2.75
X3.2Y-2.85
X3.2Y-2.95
X3.2Y-3.05
X3.2Y-3.15
X3.2Y-3.25
X3.2Y-3.35
X3.2Y-3.45
X3.2Y-3.55
X3.26Y-3.84
X3.3Y-2.35
X3.3Y-2.45
X3.3Y-2.55
X3.3Y-2.65
X3.3Y-2.75
X3.3Y-2.85
X3.3Y-2.95
X3.3Y-3.05
X3.3Y-3.15
X3.3Y-3.25
X3.3Y-3.35
X3.3Y-3.45
X3.3Y-3.55
X3.36Y-3.84
X3.4Y-2.35
X3.4Y-2.45
X3.4Y-2.55
X3.4Y-2.65
X3.4Y-2.75
X3.4Y-2.85
X3.4Y-2.95
X3.4Y-3.05
X3.4Y-3.15
X3.4Y-3.25
X3.4Y-3.35
X3.4Y-3.45
X3.4Y-3.55
X3.5Y-2.45
X3.5Y-2.55
X3.5Y-2.65
X3.5Y-2.75
X3.5Y-2.85
X3.5Y-2.95
X3.5Y-3.05
X3.5Y-3.15
X3.5Y-3.25
X3.5Y-3.35
X3.5Y-3.45
X3.6Y-2.45
X3.6Y-2.55
X3.6Y-2.65
X3.6Y-3.25
X3.6Y-3.35
X3.6Y-3.45
X3.7Y-2.45
X3.7Y-2.55
X3.7Y-2.65
X3.7Y-3.25
X3.7Y-3.35
X3.7Y-3.45
X3.8Y-2.45
X3.8Y-2.55
X3.8Y-2.65
X3.8Y-3.25
X3.8Y-3.35
X3.8Y-3.45
T3
X2.1654Y-2.1654
X2.1654Y-3.7402
X3.7402Y-2.1654
X3.7402Y-3.7402
T0
M30
