G04 #@! TF.FileFunction,Legend,Top*
%FSLAX46Y46*%
G04 Gerber Fmt 4.6, Leading zero omitted, Abs format (unit mm)*
G04 Created by KiCad (PCBNEW (2016-03-07 BZR 6612)-product) date Sunday, 29 May 2016 'pmt' 23:22:15*
%MOMM*%
G01*
G04 APERTURE LIST*
%ADD10C,0.100000*%
%ADD11C,0.300000*%
%ADD12C,2.000000*%
%ADD13C,0.150000*%
G04 APERTURE END LIST*
D10*
D11*
X72747429Y-89221571D02*
X73247429Y-90721571D01*
X73747429Y-89221571D01*
X74176000Y-90650143D02*
X74390286Y-90721571D01*
X74747429Y-90721571D01*
X74890286Y-90650143D01*
X74961715Y-90578714D01*
X75033143Y-90435857D01*
X75033143Y-90293000D01*
X74961715Y-90150143D01*
X74890286Y-90078714D01*
X74747429Y-90007286D01*
X74461715Y-89935857D01*
X74318857Y-89864429D01*
X74247429Y-89793000D01*
X74176000Y-89650143D01*
X74176000Y-89507286D01*
X74247429Y-89364429D01*
X74318857Y-89293000D01*
X74461715Y-89221571D01*
X74818857Y-89221571D01*
X75033143Y-89293000D01*
X75604571Y-90650143D02*
X75818857Y-90721571D01*
X76176000Y-90721571D01*
X76318857Y-90650143D01*
X76390286Y-90578714D01*
X76461714Y-90435857D01*
X76461714Y-90293000D01*
X76390286Y-90150143D01*
X76318857Y-90078714D01*
X76176000Y-90007286D01*
X75890286Y-89935857D01*
X75747428Y-89864429D01*
X75676000Y-89793000D01*
X75604571Y-89650143D01*
X75604571Y-89507286D01*
X75676000Y-89364429D01*
X75747428Y-89293000D01*
X75890286Y-89221571D01*
X76247428Y-89221571D01*
X76461714Y-89293000D01*
X57924000Y-75945857D02*
X57852571Y-76088714D01*
X57852571Y-76303000D01*
X57924000Y-76517285D01*
X58066857Y-76660143D01*
X58209714Y-76731571D01*
X58495429Y-76803000D01*
X58709714Y-76803000D01*
X58995429Y-76731571D01*
X59138286Y-76660143D01*
X59281143Y-76517285D01*
X59352571Y-76303000D01*
X59352571Y-76160143D01*
X59281143Y-75945857D01*
X59209714Y-75874428D01*
X58709714Y-75874428D01*
X58709714Y-76160143D01*
X59352571Y-75231571D02*
X57852571Y-75231571D01*
X59352571Y-74374428D01*
X57852571Y-74374428D01*
X59352571Y-73660142D02*
X57852571Y-73660142D01*
X57852571Y-73302999D01*
X57924000Y-73088714D01*
X58066857Y-72945856D01*
X58209714Y-72874428D01*
X58495429Y-72802999D01*
X58709714Y-72802999D01*
X58995429Y-72874428D01*
X59138286Y-72945856D01*
X59281143Y-73088714D01*
X59352571Y-73302999D01*
X59352571Y-73660142D01*
X60484000Y-59122571D02*
X60984000Y-60622571D01*
X61484000Y-59122571D01*
X61984000Y-60622571D02*
X61984000Y-59122571D01*
X62341143Y-59122571D01*
X62555428Y-59194000D01*
X62698286Y-59336857D01*
X62769714Y-59479714D01*
X62841143Y-59765429D01*
X62841143Y-59979714D01*
X62769714Y-60265429D01*
X62698286Y-60408286D01*
X62555428Y-60551143D01*
X62341143Y-60622571D01*
X61984000Y-60622571D01*
X63484000Y-60622571D02*
X63484000Y-59122571D01*
X63841143Y-59122571D01*
X64055428Y-59194000D01*
X64198286Y-59336857D01*
X64269714Y-59479714D01*
X64341143Y-59765429D01*
X64341143Y-59979714D01*
X64269714Y-60265429D01*
X64198286Y-60408286D01*
X64055428Y-60551143D01*
X63841143Y-60622571D01*
X63484000Y-60622571D01*
X83288286Y-94404571D02*
X83288286Y-92904571D01*
X84002572Y-94404571D02*
X84002572Y-92904571D01*
X84859715Y-94404571D01*
X84859715Y-92904571D01*
X64032000Y-92777571D02*
X64317714Y-92777571D01*
X64460572Y-92849000D01*
X64603429Y-92991857D01*
X64674857Y-93277571D01*
X64674857Y-93777571D01*
X64603429Y-94063286D01*
X64460572Y-94206143D01*
X64317714Y-94277571D01*
X64032000Y-94277571D01*
X63889143Y-94206143D01*
X63746286Y-94063286D01*
X63674857Y-93777571D01*
X63674857Y-93277571D01*
X63746286Y-92991857D01*
X63889143Y-92849000D01*
X64032000Y-92777571D01*
X65317715Y-92777571D02*
X65317715Y-93991857D01*
X65389143Y-94134714D01*
X65460572Y-94206143D01*
X65603429Y-94277571D01*
X65889143Y-94277571D01*
X66032001Y-94206143D01*
X66103429Y-94134714D01*
X66174858Y-93991857D01*
X66174858Y-92777571D01*
X66674858Y-92777571D02*
X67532001Y-92777571D01*
X67103430Y-94277571D02*
X67103430Y-92777571D01*
X90678429Y-89364429D02*
X90749858Y-89293000D01*
X90892715Y-89221571D01*
X91249858Y-89221571D01*
X91392715Y-89293000D01*
X91464144Y-89364429D01*
X91535572Y-89507286D01*
X91535572Y-89650143D01*
X91464144Y-89864429D01*
X90607001Y-90721571D01*
X91535572Y-90721571D01*
X93321286Y-90150143D02*
X94464143Y-90150143D01*
X96321286Y-90150143D02*
X97464143Y-90150143D01*
X96892714Y-90721571D02*
X96892714Y-89578714D01*
X90480001Y-58868571D02*
X91408572Y-58868571D01*
X90908572Y-59440000D01*
X91122858Y-59440000D01*
X91265715Y-59511429D01*
X91337144Y-59582857D01*
X91408572Y-59725714D01*
X91408572Y-60082857D01*
X91337144Y-60225714D01*
X91265715Y-60297143D01*
X91122858Y-60368571D01*
X90694286Y-60368571D01*
X90551429Y-60297143D01*
X90480001Y-60225714D01*
X93194286Y-59797143D02*
X94337143Y-59797143D01*
X96194286Y-59797143D02*
X97337143Y-59797143D01*
X96765714Y-60368571D02*
X96765714Y-59225714D01*
X81851714Y-58082571D02*
X80994571Y-58082571D01*
X81423143Y-58082571D02*
X81423143Y-56582571D01*
X81280286Y-56796857D01*
X81137428Y-56939714D01*
X80994571Y-57011143D01*
X82780285Y-56582571D02*
X83065999Y-56582571D01*
X83208857Y-56654000D01*
X83351714Y-56796857D01*
X83423142Y-57082571D01*
X83423142Y-57582571D01*
X83351714Y-57868286D01*
X83208857Y-58011143D01*
X83065999Y-58082571D01*
X82780285Y-58082571D01*
X82637428Y-58011143D01*
X82494571Y-57868286D01*
X82423142Y-57582571D01*
X82423142Y-57082571D01*
X82494571Y-56796857D01*
X82637428Y-56654000D01*
X82780285Y-56582571D01*
X84066000Y-56582571D02*
X84066000Y-57796857D01*
X84137428Y-57939714D01*
X84208857Y-58011143D01*
X84351714Y-58082571D01*
X84637428Y-58082571D01*
X84780286Y-58011143D01*
X84851714Y-57939714D01*
X84923143Y-57796857D01*
X84923143Y-56582571D01*
X85423143Y-56582571D02*
X86280286Y-56582571D01*
X85851715Y-58082571D02*
X85851715Y-56582571D01*
X75065000Y-58336571D02*
X74207857Y-58336571D01*
X74636429Y-58336571D02*
X74636429Y-56836571D01*
X74493572Y-57050857D01*
X74350714Y-57193714D01*
X74207857Y-57265143D01*
X75707857Y-57765143D02*
X76850714Y-57765143D01*
X67572000Y-58082571D02*
X66714857Y-58082571D01*
X67143429Y-58082571D02*
X67143429Y-56582571D01*
X67000572Y-56796857D01*
X66857714Y-56939714D01*
X66714857Y-57011143D01*
X68214857Y-57511143D02*
X69357714Y-57511143D01*
X68786285Y-58082571D02*
X68786285Y-56939714D01*
X53165715Y-89594571D02*
X53165715Y-90594571D01*
X52808572Y-89023143D02*
X52451429Y-90094571D01*
X53380001Y-90094571D01*
X55094286Y-90023143D02*
X56237143Y-90023143D01*
X58094286Y-90023143D02*
X59237143Y-90023143D01*
X58665714Y-90594571D02*
X58665714Y-89451714D01*
X52348144Y-59122571D02*
X51633858Y-59122571D01*
X51562429Y-59836857D01*
X51633858Y-59765429D01*
X51776715Y-59694000D01*
X52133858Y-59694000D01*
X52276715Y-59765429D01*
X52348144Y-59836857D01*
X52419572Y-59979714D01*
X52419572Y-60336857D01*
X52348144Y-60479714D01*
X52276715Y-60551143D01*
X52133858Y-60622571D01*
X51776715Y-60622571D01*
X51633858Y-60551143D01*
X51562429Y-60479714D01*
X54205286Y-60051143D02*
X55348143Y-60051143D01*
X54776714Y-60622571D02*
X54776714Y-59479714D01*
X57205286Y-60051143D02*
X58348143Y-60051143D01*
X63182572Y-56495143D02*
X64325429Y-56495143D01*
X63754000Y-57066571D02*
X63754000Y-55923714D01*
X60388572Y-56495143D02*
X61531429Y-56495143D01*
D12*
X57912000Y-62230000D02*
X57912000Y-67310000D01*
X54864000Y-67310000D02*
X54864000Y-62230000D01*
X51816000Y-62230000D02*
X51816000Y-67310000D01*
X58420000Y-82550000D02*
X58420000Y-87630000D01*
X55880000Y-82550000D02*
X55880000Y-87630000D01*
X53340000Y-82550000D02*
X53340000Y-87630000D01*
X96520000Y-82550000D02*
X96520000Y-87630000D01*
X93980000Y-82550000D02*
X93980000Y-87630000D01*
X91440000Y-82550000D02*
X91440000Y-87630000D01*
X81280000Y-90170000D02*
X86360000Y-90170000D01*
X63500000Y-90424000D02*
X68580000Y-90424000D01*
X81280000Y-59690000D02*
X86360000Y-59690000D01*
X73660000Y-59690000D02*
X78740000Y-59690000D01*
X66040000Y-59690000D02*
X71120000Y-59690000D01*
X96520000Y-62230000D02*
X96520000Y-67310000D01*
X93980000Y-62230000D02*
X93980000Y-67310000D01*
X91440000Y-62230000D02*
X91440000Y-67310000D01*
X60960000Y-87630000D02*
X88900000Y-87630000D01*
X60960000Y-74930000D02*
X88900000Y-74930000D01*
X60960000Y-62230000D02*
X88900000Y-62230000D01*
D13*
X70096000Y-55285000D02*
X69096000Y-55285000D01*
X69096000Y-53935000D02*
X70096000Y-53935000D01*
X91884500Y-76454000D02*
G75*
G03X91884500Y-76454000I-317500J0D01*
G01*
X90897000Y-77259000D02*
X91042000Y-77259000D01*
X90897000Y-73109000D02*
X91042000Y-73109000D01*
X96047000Y-73109000D02*
X95902000Y-73109000D01*
X96047000Y-77259000D02*
X95902000Y-77259000D01*
X90897000Y-77259000D02*
X90897000Y-73109000D01*
X96047000Y-77259000D02*
X96047000Y-73109000D01*
X91042000Y-77259000D02*
X91042000Y-78659000D01*
X73088500Y-91884500D02*
G75*
G03X73088500Y-91884500I-254000J0D01*
G01*
X72093000Y-91151000D02*
X72093000Y-91296000D01*
X76243000Y-91151000D02*
X76243000Y-91296000D01*
X76243000Y-96301000D02*
X76243000Y-96156000D01*
X72093000Y-96301000D02*
X72093000Y-96156000D01*
X72093000Y-91151000D02*
X76243000Y-91151000D01*
X72093000Y-96301000D02*
X76243000Y-96301000D01*
X72093000Y-91296000D02*
X70693000Y-91296000D01*
X74676000Y-52451000D02*
G75*
G03X74676000Y-52451000I-317500J0D01*
G01*
X73617000Y-51781000D02*
X73617000Y-51926000D01*
X77767000Y-51781000D02*
X77767000Y-51926000D01*
X77767000Y-56931000D02*
X77767000Y-56786000D01*
X73617000Y-56931000D02*
X73617000Y-56786000D01*
X73617000Y-51781000D02*
X77767000Y-51781000D01*
X73617000Y-56931000D02*
X77767000Y-56931000D01*
X73617000Y-51926000D02*
X72217000Y-51926000D01*
X53220817Y-76200000D02*
G75*
G03X53220817Y-76200000I-261817J0D01*
G01*
X52289000Y-77005000D02*
X52434000Y-77005000D01*
X52289000Y-72855000D02*
X52434000Y-72855000D01*
X57439000Y-72855000D02*
X57294000Y-72855000D01*
X57439000Y-77005000D02*
X57294000Y-77005000D01*
X52289000Y-77005000D02*
X52289000Y-72855000D01*
X57439000Y-77005000D02*
X57439000Y-72855000D01*
X52434000Y-77005000D02*
X52434000Y-78405000D01*
X62484000Y-52832000D02*
X65024000Y-52832000D01*
X59664000Y-52552000D02*
X61214000Y-52552000D01*
X62484000Y-52832000D02*
X62484000Y-55372000D01*
X61214000Y-55652000D02*
X59664000Y-55652000D01*
X59664000Y-55652000D02*
X59664000Y-52552000D01*
X62484000Y-55372000D02*
X65024000Y-55372000D01*
X65024000Y-55372000D02*
X65024000Y-52832000D01*
X79510000Y-93813000D02*
X80510000Y-93813000D01*
X80510000Y-95163000D02*
X79510000Y-95163000D01*
X69096000Y-52284000D02*
X70096000Y-52284000D01*
X70096000Y-53634000D02*
X69096000Y-53634000D01*
X80510000Y-93639000D02*
X79510000Y-93639000D01*
X79510000Y-92289000D02*
X80510000Y-92289000D01*
X51224000Y-69758000D02*
X51924000Y-69758000D01*
X51924000Y-70958000D02*
X51224000Y-70958000D01*
X81184000Y-51978000D02*
X81884000Y-51978000D01*
X81884000Y-53178000D02*
X81184000Y-53178000D01*
X74506000Y-98136000D02*
X73806000Y-98136000D01*
X73806000Y-96936000D02*
X74506000Y-96936000D01*
X97628000Y-74834000D02*
X97628000Y-75534000D01*
X96428000Y-75534000D02*
X96428000Y-74834000D01*
X69246000Y-55661000D02*
X69946000Y-55661000D01*
X69946000Y-56861000D02*
X69246000Y-56861000D01*
X53086000Y-60960000D02*
X53086000Y-63500000D01*
X50546000Y-60960000D02*
X53086000Y-60960000D01*
X50546000Y-63500000D02*
X50546000Y-60960000D01*
X50546000Y-63500000D02*
X50546000Y-68580000D01*
X50546000Y-68580000D02*
X53086000Y-68580000D01*
X53086000Y-68580000D02*
X53086000Y-63500000D01*
X54610000Y-81280000D02*
X54610000Y-83820000D01*
X52070000Y-81280000D02*
X54610000Y-81280000D01*
X52070000Y-83820000D02*
X52070000Y-81280000D01*
X52070000Y-83820000D02*
X52070000Y-88900000D01*
X52070000Y-88900000D02*
X54610000Y-88900000D01*
X54610000Y-88900000D02*
X54610000Y-83820000D01*
X56134000Y-60960000D02*
X56134000Y-63500000D01*
X53594000Y-60960000D02*
X56134000Y-60960000D01*
X53594000Y-63500000D02*
X53594000Y-60960000D01*
X53594000Y-63500000D02*
X53594000Y-68580000D01*
X53594000Y-68580000D02*
X56134000Y-68580000D01*
X56134000Y-68580000D02*
X56134000Y-63500000D01*
X59182000Y-60960000D02*
X59182000Y-63500000D01*
X56642000Y-60960000D02*
X59182000Y-60960000D01*
X56642000Y-63500000D02*
X56642000Y-60960000D01*
X56642000Y-63500000D02*
X56642000Y-68580000D01*
X56642000Y-68580000D02*
X59182000Y-68580000D01*
X59182000Y-68580000D02*
X59182000Y-63500000D01*
X57150000Y-81280000D02*
X57150000Y-83820000D01*
X54610000Y-81280000D02*
X57150000Y-81280000D01*
X54610000Y-83820000D02*
X54610000Y-81280000D01*
X54610000Y-83820000D02*
X54610000Y-88900000D01*
X54610000Y-88900000D02*
X57150000Y-88900000D01*
X57150000Y-88900000D02*
X57150000Y-83820000D01*
X59690000Y-81280000D02*
X59690000Y-83820000D01*
X57150000Y-81280000D02*
X59690000Y-81280000D01*
X57150000Y-83820000D02*
X57150000Y-81280000D01*
X57150000Y-83820000D02*
X57150000Y-88900000D01*
X57150000Y-88900000D02*
X59690000Y-88900000D01*
X59690000Y-88900000D02*
X59690000Y-83820000D01*
X92710000Y-60960000D02*
X92710000Y-63500000D01*
X90170000Y-60960000D02*
X92710000Y-60960000D01*
X90170000Y-63500000D02*
X90170000Y-60960000D01*
X90170000Y-63500000D02*
X90170000Y-68580000D01*
X90170000Y-68580000D02*
X92710000Y-68580000D01*
X92710000Y-68580000D02*
X92710000Y-63500000D01*
X92710000Y-81280000D02*
X92710000Y-83820000D01*
X90170000Y-81280000D02*
X92710000Y-81280000D01*
X90170000Y-83820000D02*
X90170000Y-81280000D01*
X90170000Y-83820000D02*
X90170000Y-88900000D01*
X90170000Y-88900000D02*
X92710000Y-88900000D01*
X92710000Y-88900000D02*
X92710000Y-83820000D01*
X80010000Y-58420000D02*
X82550000Y-58420000D01*
X80010000Y-60960000D02*
X80010000Y-58420000D01*
X82550000Y-60960000D02*
X80010000Y-60960000D01*
X82550000Y-60960000D02*
X87630000Y-60960000D01*
X87630000Y-60960000D02*
X87630000Y-58420000D01*
X87630000Y-58420000D02*
X82550000Y-58420000D01*
X95250000Y-60960000D02*
X95250000Y-63500000D01*
X92710000Y-60960000D02*
X95250000Y-60960000D01*
X92710000Y-63500000D02*
X92710000Y-60960000D01*
X92710000Y-63500000D02*
X92710000Y-68580000D01*
X92710000Y-68580000D02*
X95250000Y-68580000D01*
X95250000Y-68580000D02*
X95250000Y-63500000D01*
X97790000Y-60960000D02*
X97790000Y-63500000D01*
X95250000Y-60960000D02*
X97790000Y-60960000D01*
X95250000Y-63500000D02*
X95250000Y-60960000D01*
X95250000Y-63500000D02*
X95250000Y-68580000D01*
X95250000Y-68580000D02*
X97790000Y-68580000D01*
X97790000Y-68580000D02*
X97790000Y-63500000D01*
X95250000Y-81280000D02*
X95250000Y-83820000D01*
X92710000Y-81280000D02*
X95250000Y-81280000D01*
X92710000Y-83820000D02*
X92710000Y-81280000D01*
X92710000Y-83820000D02*
X92710000Y-88900000D01*
X92710000Y-88900000D02*
X95250000Y-88900000D01*
X95250000Y-88900000D02*
X95250000Y-83820000D01*
X97790000Y-81280000D02*
X97790000Y-83820000D01*
X95250000Y-81280000D02*
X97790000Y-81280000D01*
X95250000Y-83820000D02*
X95250000Y-81280000D01*
X95250000Y-83820000D02*
X95250000Y-88900000D01*
X95250000Y-88900000D02*
X97790000Y-88900000D01*
X97790000Y-88900000D02*
X97790000Y-83820000D01*
X72390000Y-58420000D02*
X74930000Y-58420000D01*
X72390000Y-60960000D02*
X72390000Y-58420000D01*
X74930000Y-60960000D02*
X72390000Y-60960000D01*
X74930000Y-60960000D02*
X80010000Y-60960000D01*
X80010000Y-60960000D02*
X80010000Y-58420000D01*
X80010000Y-58420000D02*
X74930000Y-58420000D01*
X64770000Y-58420000D02*
X67310000Y-58420000D01*
X64770000Y-60960000D02*
X64770000Y-58420000D01*
X67310000Y-60960000D02*
X64770000Y-60960000D01*
X67310000Y-60960000D02*
X72390000Y-60960000D01*
X72390000Y-60960000D02*
X72390000Y-58420000D01*
X72390000Y-58420000D02*
X67310000Y-58420000D01*
X80010000Y-88900000D02*
X82550000Y-88900000D01*
X80010000Y-91440000D02*
X80010000Y-88900000D01*
X82550000Y-91440000D02*
X80010000Y-91440000D01*
X82550000Y-91440000D02*
X87630000Y-91440000D01*
X87630000Y-91440000D02*
X87630000Y-88900000D01*
X87630000Y-88900000D02*
X82550000Y-88900000D01*
X62230000Y-89154000D02*
X64770000Y-89154000D01*
X62230000Y-91694000D02*
X62230000Y-89154000D01*
X64770000Y-91694000D02*
X62230000Y-91694000D01*
X64770000Y-91694000D02*
X69850000Y-91694000D01*
X69850000Y-91694000D02*
X69850000Y-89154000D01*
X69850000Y-89154000D02*
X64770000Y-89154000D01*
X59690000Y-86360000D02*
X62230000Y-86360000D01*
X59690000Y-88900000D02*
X59690000Y-86360000D01*
X62230000Y-88900000D02*
X59690000Y-88900000D01*
X62230000Y-86360000D02*
X90170000Y-86360000D01*
X90170000Y-86360000D02*
X90170000Y-88900000D01*
X90170000Y-88900000D02*
X62230000Y-88900000D01*
X59690000Y-66040000D02*
X62230000Y-66040000D01*
X59690000Y-68580000D02*
X59690000Y-66040000D01*
X62230000Y-68580000D02*
X59690000Y-68580000D01*
X62230000Y-66040000D02*
X90170000Y-66040000D01*
X90170000Y-66040000D02*
X90170000Y-68580000D01*
X90170000Y-68580000D02*
X62230000Y-68580000D01*
X59690000Y-73660000D02*
X62230000Y-73660000D01*
X59690000Y-76200000D02*
X59690000Y-73660000D01*
X62230000Y-76200000D02*
X59690000Y-76200000D01*
X62230000Y-73660000D02*
X90170000Y-73660000D01*
X90170000Y-73660000D02*
X90170000Y-76200000D01*
X90170000Y-76200000D02*
X62230000Y-76200000D01*
X59690000Y-63500000D02*
X62230000Y-63500000D01*
X59690000Y-66040000D02*
X59690000Y-63500000D01*
X62230000Y-66040000D02*
X59690000Y-66040000D01*
X62230000Y-63500000D02*
X90170000Y-63500000D01*
X90170000Y-63500000D02*
X90170000Y-66040000D01*
X90170000Y-66040000D02*
X62230000Y-66040000D01*
X59690000Y-60960000D02*
X62230000Y-60960000D01*
X59690000Y-63500000D02*
X59690000Y-60960000D01*
X62230000Y-63500000D02*
X59690000Y-63500000D01*
X62230000Y-60960000D02*
X90170000Y-60960000D01*
X90170000Y-60960000D02*
X90170000Y-63500000D01*
X90170000Y-63500000D02*
X62230000Y-63500000D01*
X59690000Y-68580000D02*
X62230000Y-68580000D01*
X59690000Y-71120000D02*
X59690000Y-68580000D01*
X62230000Y-71120000D02*
X59690000Y-71120000D01*
X62230000Y-68580000D02*
X90170000Y-68580000D01*
X90170000Y-68580000D02*
X90170000Y-71120000D01*
X90170000Y-71120000D02*
X62230000Y-71120000D01*
X59690000Y-71120000D02*
X62230000Y-71120000D01*
X59690000Y-73660000D02*
X59690000Y-71120000D01*
X62230000Y-73660000D02*
X59690000Y-73660000D01*
X62230000Y-71120000D02*
X90170000Y-71120000D01*
X90170000Y-71120000D02*
X90170000Y-73660000D01*
X90170000Y-73660000D02*
X62230000Y-73660000D01*
X59690000Y-76200000D02*
X62230000Y-76200000D01*
X59690000Y-78740000D02*
X59690000Y-76200000D01*
X62230000Y-78740000D02*
X59690000Y-78740000D01*
X62230000Y-76200000D02*
X90170000Y-76200000D01*
X90170000Y-76200000D02*
X90170000Y-78740000D01*
X90170000Y-78740000D02*
X62230000Y-78740000D01*
X59690000Y-78740000D02*
X62230000Y-78740000D01*
X59690000Y-81280000D02*
X59690000Y-78740000D01*
X62230000Y-81280000D02*
X59690000Y-81280000D01*
X62230000Y-78740000D02*
X90170000Y-78740000D01*
X90170000Y-78740000D02*
X90170000Y-81280000D01*
X90170000Y-81280000D02*
X62230000Y-81280000D01*
X59690000Y-81280000D02*
X62230000Y-81280000D01*
X59690000Y-83820000D02*
X59690000Y-81280000D01*
X62230000Y-83820000D02*
X59690000Y-83820000D01*
X62230000Y-81280000D02*
X90170000Y-81280000D01*
X90170000Y-81280000D02*
X90170000Y-83820000D01*
X90170000Y-83820000D02*
X62230000Y-83820000D01*
X59690000Y-83820000D02*
X62230000Y-83820000D01*
X59690000Y-86360000D02*
X59690000Y-83820000D01*
X62230000Y-86360000D02*
X59690000Y-86360000D01*
X62230000Y-83820000D02*
X90170000Y-83820000D01*
X90170000Y-83820000D02*
X90170000Y-86360000D01*
X90170000Y-86360000D02*
X62230000Y-86360000D01*
X66040000Y-98806000D02*
X71120000Y-98806000D01*
X71120000Y-98806000D02*
X71120000Y-96266000D01*
X71120000Y-96266000D02*
X66040000Y-96266000D01*
X63220000Y-95986000D02*
X64770000Y-95986000D01*
X66040000Y-96266000D02*
X66040000Y-98806000D01*
X64770000Y-99086000D02*
X63220000Y-99086000D01*
X63220000Y-99086000D02*
X63220000Y-95986000D01*
X81534000Y-98806000D02*
X86614000Y-98806000D01*
X86614000Y-98806000D02*
X86614000Y-96266000D01*
X86614000Y-96266000D02*
X81534000Y-96266000D01*
X78714000Y-95986000D02*
X80264000Y-95986000D01*
X81534000Y-96266000D02*
X81534000Y-98806000D01*
X80264000Y-99086000D02*
X78714000Y-99086000D01*
X78714000Y-99086000D02*
X78714000Y-95986000D01*
X66492381Y-55594095D02*
X65492381Y-55594095D01*
X65492381Y-55213142D01*
X65540000Y-55117904D01*
X65587619Y-55070285D01*
X65682857Y-55022666D01*
X65825714Y-55022666D01*
X65920952Y-55070285D01*
X65968571Y-55117904D01*
X66016190Y-55213142D01*
X66016190Y-55594095D01*
X66492381Y-54594095D02*
X65492381Y-54594095D01*
X65492381Y-54213142D01*
X65540000Y-54117904D01*
X65587619Y-54070285D01*
X65682857Y-54022666D01*
X65825714Y-54022666D01*
X65920952Y-54070285D01*
X65968571Y-54117904D01*
X66016190Y-54213142D01*
X66016190Y-54594095D01*
X65492381Y-53689333D02*
X65492381Y-53070285D01*
X65873333Y-53403619D01*
X65873333Y-53260761D01*
X65920952Y-53165523D01*
X65968571Y-53117904D01*
X66063810Y-53070285D01*
X66301905Y-53070285D01*
X66397143Y-53117904D01*
X66444762Y-53165523D01*
X66492381Y-53260761D01*
X66492381Y-53546476D01*
X66444762Y-53641714D01*
X66397143Y-53689333D01*
X60122381Y-98274095D02*
X59122381Y-98274095D01*
X59122381Y-97893142D01*
X59170000Y-97797904D01*
X59217619Y-97750285D01*
X59312857Y-97702666D01*
X59455714Y-97702666D01*
X59550952Y-97750285D01*
X59598571Y-97797904D01*
X59646190Y-97893142D01*
X59646190Y-98274095D01*
X59122381Y-96797904D02*
X59122381Y-97274095D01*
X59598571Y-97321714D01*
X59550952Y-97274095D01*
X59503333Y-97178857D01*
X59503333Y-96940761D01*
X59550952Y-96845523D01*
X59598571Y-96797904D01*
X59693810Y-96750285D01*
X59931905Y-96750285D01*
X60027143Y-96797904D01*
X60074762Y-96845523D01*
X60122381Y-96940761D01*
X60122381Y-97178857D01*
X60074762Y-97274095D01*
X60027143Y-97321714D01*
X75616381Y-98274095D02*
X74616381Y-98274095D01*
X74616381Y-97893142D01*
X74664000Y-97797904D01*
X74711619Y-97750285D01*
X74806857Y-97702666D01*
X74949714Y-97702666D01*
X75044952Y-97750285D01*
X75092571Y-97797904D01*
X75140190Y-97893142D01*
X75140190Y-98274095D01*
X75616381Y-96750285D02*
X75616381Y-97321714D01*
X75616381Y-97036000D02*
X74616381Y-97036000D01*
X74759238Y-97131238D01*
X74854476Y-97226476D01*
X74902095Y-97321714D01*
M02*
