G04 #@! TF.FileFunction,Soldermask,Bot*
%FSLAX46Y46*%
G04 Gerber Fmt 4.6, Leading zero omitted, Abs format (unit mm)*
G04 Created by KiCad (PCBNEW (2016-03-07 BZR 6612)-product) date Sunday, 29 May 2016 'pmt' 22:27:27*
%MOMM*%
G01*
G04 APERTURE LIST*
%ADD10C,0.100000*%
%ADD11R,2.032000X2.032000*%
%ADD12O,2.032000X2.032000*%
%ADD13C,6.300000*%
%ADD14C,0.600000*%
%ADD15C,2.032000*%
G04 APERTURE END LIST*
D10*
D11*
X80264000Y-97536000D03*
D12*
X82804000Y-97536000D03*
D11*
X61214000Y-54102000D03*
D12*
X63754000Y-54102000D03*
D11*
X64770000Y-96774000D03*
D12*
X67310000Y-96774000D03*
D13*
X55000000Y-55000000D03*
D14*
X55000000Y-52500000D03*
X57500000Y-55000000D03*
X55000000Y-57500000D03*
X52500000Y-55000000D03*
X53200000Y-53200000D03*
X56800000Y-53200000D03*
X53200000Y-56800000D03*
X56800000Y-56800000D03*
D13*
X95000000Y-55000000D03*
D14*
X95000000Y-52500000D03*
X97500000Y-55000000D03*
X95000000Y-57500000D03*
X92500000Y-55000000D03*
X93200000Y-53200000D03*
X96800000Y-53200000D03*
X93200000Y-56800000D03*
X96800000Y-56800000D03*
D13*
X95000000Y-95000000D03*
D14*
X95000000Y-92500000D03*
X97500000Y-95000000D03*
X95000000Y-97500000D03*
X92500000Y-95000000D03*
X93200000Y-93200000D03*
X96800000Y-93200000D03*
X93200000Y-96800000D03*
X96800000Y-96800000D03*
D13*
X55000000Y-95000000D03*
D14*
X55000000Y-92500000D03*
X57500000Y-95000000D03*
X55000000Y-97500000D03*
X52500000Y-95000000D03*
X53200000Y-93200000D03*
X56800000Y-93200000D03*
X53200000Y-96800000D03*
X56800000Y-96800000D03*
D15*
X51816000Y-62230000D03*
X51816000Y-64770000D03*
X51816000Y-67310000D03*
X53340000Y-82550000D03*
X53340000Y-85090000D03*
X53340000Y-87630000D03*
X54864000Y-62230000D03*
X54864000Y-64770000D03*
X54864000Y-67310000D03*
X57912000Y-62230000D03*
X57912000Y-64770000D03*
X57912000Y-67310000D03*
X55880000Y-82550000D03*
X55880000Y-85090000D03*
X55880000Y-87630000D03*
X58420000Y-82550000D03*
X58420000Y-85090000D03*
X58420000Y-87630000D03*
X91440000Y-62230000D03*
X91440000Y-64770000D03*
X91440000Y-67310000D03*
X91440000Y-82550000D03*
X91440000Y-85090000D03*
X91440000Y-87630000D03*
X81280000Y-59690000D03*
X83820000Y-59690000D03*
X86360000Y-59690000D03*
X93980000Y-62230000D03*
X93980000Y-64770000D03*
X93980000Y-67310000D03*
X96520000Y-62230000D03*
X96520000Y-64770000D03*
X96520000Y-67310000D03*
X93980000Y-82550000D03*
X93980000Y-85090000D03*
X93980000Y-87630000D03*
X96520000Y-82550000D03*
X96520000Y-85090000D03*
X96520000Y-87630000D03*
X73660000Y-59690000D03*
X76200000Y-59690000D03*
X78740000Y-59690000D03*
X66040000Y-59690000D03*
X68580000Y-59690000D03*
X71120000Y-59690000D03*
X81280000Y-90170000D03*
X83820000Y-90170000D03*
X86360000Y-90170000D03*
X63500000Y-90424000D03*
X66040000Y-90424000D03*
X68580000Y-90424000D03*
X60960000Y-87630000D03*
X63500000Y-87630000D03*
X66040000Y-87630000D03*
X68580000Y-87630000D03*
X71120000Y-87630000D03*
X73660000Y-87630000D03*
X76200000Y-87630000D03*
X78740000Y-87630000D03*
X81280000Y-87630000D03*
X83820000Y-87630000D03*
X86360000Y-87630000D03*
X88900000Y-87630000D03*
X60960000Y-67310000D03*
X63500000Y-67310000D03*
X66040000Y-67310000D03*
X68580000Y-67310000D03*
X71120000Y-67310000D03*
X73660000Y-67310000D03*
X76200000Y-67310000D03*
X78740000Y-67310000D03*
X81280000Y-67310000D03*
X83820000Y-67310000D03*
X86360000Y-67310000D03*
X88900000Y-67310000D03*
X60960000Y-74930000D03*
X63500000Y-74930000D03*
X66040000Y-74930000D03*
X68580000Y-74930000D03*
X71120000Y-74930000D03*
X73660000Y-74930000D03*
X76200000Y-74930000D03*
X78740000Y-74930000D03*
X81280000Y-74930000D03*
X83820000Y-74930000D03*
X86360000Y-74930000D03*
X88900000Y-74930000D03*
X60960000Y-64770000D03*
X63500000Y-64770000D03*
X66040000Y-64770000D03*
X68580000Y-64770000D03*
X71120000Y-64770000D03*
X73660000Y-64770000D03*
X76200000Y-64770000D03*
X78740000Y-64770000D03*
X81280000Y-64770000D03*
X83820000Y-64770000D03*
X86360000Y-64770000D03*
X88900000Y-64770000D03*
X60960000Y-62230000D03*
X63500000Y-62230000D03*
X66040000Y-62230000D03*
X68580000Y-62230000D03*
X71120000Y-62230000D03*
X73660000Y-62230000D03*
X76200000Y-62230000D03*
X78740000Y-62230000D03*
X81280000Y-62230000D03*
X83820000Y-62230000D03*
X86360000Y-62230000D03*
X88900000Y-62230000D03*
X60960000Y-69850000D03*
X63500000Y-69850000D03*
X66040000Y-69850000D03*
X68580000Y-69850000D03*
X71120000Y-69850000D03*
X73660000Y-69850000D03*
X76200000Y-69850000D03*
X78740000Y-69850000D03*
X81280000Y-69850000D03*
X83820000Y-69850000D03*
X86360000Y-69850000D03*
X88900000Y-69850000D03*
X60960000Y-72390000D03*
X63500000Y-72390000D03*
X66040000Y-72390000D03*
X68580000Y-72390000D03*
X71120000Y-72390000D03*
X73660000Y-72390000D03*
X76200000Y-72390000D03*
X78740000Y-72390000D03*
X81280000Y-72390000D03*
X83820000Y-72390000D03*
X86360000Y-72390000D03*
X88900000Y-72390000D03*
X60960000Y-77470000D03*
X63500000Y-77470000D03*
X66040000Y-77470000D03*
X68580000Y-77470000D03*
X71120000Y-77470000D03*
X73660000Y-77470000D03*
X76200000Y-77470000D03*
X78740000Y-77470000D03*
X81280000Y-77470000D03*
X83820000Y-77470000D03*
X86360000Y-77470000D03*
X88900000Y-77470000D03*
X60960000Y-80010000D03*
X63500000Y-80010000D03*
X66040000Y-80010000D03*
X68580000Y-80010000D03*
X71120000Y-80010000D03*
X73660000Y-80010000D03*
X76200000Y-80010000D03*
X78740000Y-80010000D03*
X81280000Y-80010000D03*
X83820000Y-80010000D03*
X86360000Y-80010000D03*
X88900000Y-80010000D03*
X60960000Y-82550000D03*
X63500000Y-82550000D03*
X66040000Y-82550000D03*
X68580000Y-82550000D03*
X71120000Y-82550000D03*
X73660000Y-82550000D03*
X76200000Y-82550000D03*
X78740000Y-82550000D03*
X81280000Y-82550000D03*
X83820000Y-82550000D03*
X86360000Y-82550000D03*
X88900000Y-82550000D03*
X60960000Y-85090000D03*
X63500000Y-85090000D03*
X66040000Y-85090000D03*
X68580000Y-85090000D03*
X71120000Y-85090000D03*
X73660000Y-85090000D03*
X76200000Y-85090000D03*
X78740000Y-85090000D03*
X81280000Y-85090000D03*
X83820000Y-85090000D03*
X86360000Y-85090000D03*
X88900000Y-85090000D03*
M02*
