G04 #@! TF.FileFunction,Legend,Bot*
%FSLAX46Y46*%
G04 Gerber Fmt 4.6, Leading zero omitted, Abs format (unit mm)*
G04 Created by KiCad (PCBNEW (2016-03-07 BZR 6612)-product) date Sunday, 29 May 2016 'pmt' 23:22:15*
%MOMM*%
G01*
G04 APERTURE LIST*
%ADD10C,0.100000*%
%ADD11C,0.500000*%
%ADD12C,0.300000*%
G04 APERTURE END LIST*
D10*
D11*
X89045810Y-93801429D02*
X88688667Y-93920476D01*
X88569619Y-94039524D01*
X88450571Y-94277619D01*
X88450571Y-94634762D01*
X88569619Y-94872857D01*
X88688667Y-94991905D01*
X88926762Y-95110952D01*
X89879143Y-95110952D01*
X89879143Y-92610952D01*
X89045810Y-92610952D01*
X88807714Y-92730000D01*
X88688667Y-92849048D01*
X88569619Y-93087143D01*
X88569619Y-93325238D01*
X88688667Y-93563333D01*
X88807714Y-93682381D01*
X89045810Y-93801429D01*
X89879143Y-93801429D01*
X85950571Y-95110952D02*
X86783905Y-93920476D01*
X87379143Y-95110952D02*
X87379143Y-92610952D01*
X86426762Y-92610952D01*
X86188667Y-92730000D01*
X86069619Y-92849048D01*
X85950571Y-93087143D01*
X85950571Y-93444286D01*
X86069619Y-93682381D01*
X86188667Y-93801429D01*
X86426762Y-93920476D01*
X87379143Y-93920476D01*
X84879143Y-93801429D02*
X84045810Y-93801429D01*
X83688667Y-95110952D02*
X84879143Y-95110952D01*
X84879143Y-92610952D01*
X83688667Y-92610952D01*
X82736286Y-94396667D02*
X81545809Y-94396667D01*
X82974381Y-95110952D02*
X82141047Y-92610952D01*
X81307714Y-95110952D01*
X80474381Y-95110952D02*
X80474381Y-92610952D01*
X79879143Y-92610952D01*
X79522000Y-92730000D01*
X79283905Y-92968095D01*
X79164857Y-93206190D01*
X79045809Y-93682381D01*
X79045809Y-94039524D01*
X79164857Y-94515714D01*
X79283905Y-94753810D01*
X79522000Y-94991905D01*
X79879143Y-95110952D01*
X80474381Y-95110952D01*
X77141048Y-93801429D02*
X76783905Y-93920476D01*
X76664857Y-94039524D01*
X76545809Y-94277619D01*
X76545809Y-94634762D01*
X76664857Y-94872857D01*
X76783905Y-94991905D01*
X77022000Y-95110952D01*
X77974381Y-95110952D01*
X77974381Y-92610952D01*
X77141048Y-92610952D01*
X76902952Y-92730000D01*
X76783905Y-92849048D01*
X76664857Y-93087143D01*
X76664857Y-93325238D01*
X76783905Y-93563333D01*
X76902952Y-93682381D01*
X77141048Y-93801429D01*
X77974381Y-93801429D01*
X74998190Y-92610952D02*
X74522000Y-92610952D01*
X74283905Y-92730000D01*
X74045809Y-92968095D01*
X73926762Y-93444286D01*
X73926762Y-94277619D01*
X74045809Y-94753810D01*
X74283905Y-94991905D01*
X74522000Y-95110952D01*
X74998190Y-95110952D01*
X75236286Y-94991905D01*
X75474381Y-94753810D01*
X75593429Y-94277619D01*
X75593429Y-93444286D01*
X75474381Y-92968095D01*
X75236286Y-92730000D01*
X74998190Y-92610952D01*
X73093428Y-92610952D02*
X71426761Y-95110952D01*
X71426761Y-92610952D02*
X73093428Y-95110952D01*
X96026857Y-77549048D02*
X95931619Y-77263334D01*
X95836381Y-77168095D01*
X95645905Y-77072857D01*
X95360190Y-77072857D01*
X95169714Y-77168095D01*
X95074476Y-77263334D01*
X94979238Y-77453810D01*
X94979238Y-78215715D01*
X96979238Y-78215715D01*
X96979238Y-77549048D01*
X96884000Y-77358572D01*
X96788762Y-77263334D01*
X96598286Y-77168095D01*
X96407810Y-77168095D01*
X96217333Y-77263334D01*
X96122095Y-77358572D01*
X96026857Y-77549048D01*
X96026857Y-78215715D01*
X94979238Y-75263334D02*
X94979238Y-76215715D01*
X96979238Y-76215715D01*
X96979238Y-74596667D02*
X95360190Y-74596667D01*
X95169714Y-74501428D01*
X95074476Y-74406190D01*
X94979238Y-74215714D01*
X94979238Y-73834762D01*
X95074476Y-73644286D01*
X95169714Y-73549047D01*
X95360190Y-73453809D01*
X96979238Y-73453809D01*
X96026857Y-72501429D02*
X96026857Y-71834762D01*
X94979238Y-71549048D02*
X94979238Y-72501429D01*
X96979238Y-72501429D01*
X96979238Y-71549048D01*
X92726857Y-78644286D02*
X92631619Y-78358572D01*
X92536381Y-78263333D01*
X92345905Y-78168095D01*
X92060190Y-78168095D01*
X91869714Y-78263333D01*
X91774476Y-78358572D01*
X91679238Y-78549048D01*
X91679238Y-79310953D01*
X93679238Y-79310953D01*
X93679238Y-78644286D01*
X93584000Y-78453810D01*
X93488762Y-78358572D01*
X93298286Y-78263333D01*
X93107810Y-78263333D01*
X92917333Y-78358572D01*
X92822095Y-78453810D01*
X92726857Y-78644286D01*
X92726857Y-79310953D01*
X93679238Y-76930000D02*
X93679238Y-76549048D01*
X93584000Y-76358572D01*
X93393524Y-76168095D01*
X93012571Y-76072857D01*
X92345905Y-76072857D01*
X91964952Y-76168095D01*
X91774476Y-76358572D01*
X91679238Y-76549048D01*
X91679238Y-76930000D01*
X91774476Y-77120476D01*
X91964952Y-77310953D01*
X92345905Y-77406191D01*
X93012571Y-77406191D01*
X93393524Y-77310953D01*
X93584000Y-77120476D01*
X93679238Y-76930000D01*
X93679238Y-75406191D02*
X91679238Y-74072857D01*
X93679238Y-74072857D02*
X91679238Y-75406191D01*
X92726857Y-73310953D02*
X92726857Y-72644286D01*
X91679238Y-72358572D02*
X91679238Y-73310953D01*
X93679238Y-73310953D01*
X93679238Y-72358572D01*
X91774476Y-71596667D02*
X91679238Y-71310952D01*
X91679238Y-70834762D01*
X91774476Y-70644286D01*
X91869714Y-70549048D01*
X92060190Y-70453809D01*
X92250667Y-70453809D01*
X92441143Y-70549048D01*
X92536381Y-70644286D01*
X92631619Y-70834762D01*
X92726857Y-71215714D01*
X92822095Y-71406190D01*
X92917333Y-71501429D01*
X93107810Y-71596667D01*
X93298286Y-71596667D01*
X93488762Y-71501429D01*
X93584000Y-71406190D01*
X93679238Y-71215714D01*
X93679238Y-70739524D01*
X93584000Y-70453809D01*
D12*
X89339571Y-54215571D02*
X89339571Y-52715571D01*
X88982428Y-52715571D01*
X88768143Y-52787000D01*
X88625285Y-52929857D01*
X88553857Y-53072714D01*
X88482428Y-53358429D01*
X88482428Y-53572714D01*
X88553857Y-53858429D01*
X88625285Y-54001286D01*
X88768143Y-54144143D01*
X88982428Y-54215571D01*
X89339571Y-54215571D01*
X87911000Y-53787000D02*
X87196714Y-53787000D01*
X88053857Y-54215571D02*
X87553857Y-52715571D01*
X87053857Y-54215571D01*
X86768143Y-52715571D02*
X86268143Y-54215571D01*
X85768143Y-52715571D01*
X85268143Y-54215571D02*
X85268143Y-52715571D01*
X84553857Y-54215571D02*
X84553857Y-52715571D01*
X84196714Y-52715571D01*
X83982429Y-52787000D01*
X83839571Y-52929857D01*
X83768143Y-53072714D01*
X83696714Y-53358429D01*
X83696714Y-53572714D01*
X83768143Y-53858429D01*
X83839571Y-54001286D01*
X83982429Y-54144143D01*
X84196714Y-54215571D01*
X84553857Y-54215571D01*
X82125286Y-52715571D02*
X81268143Y-52715571D01*
X81696714Y-54215571D02*
X81696714Y-52715571D01*
X80768143Y-52715571D02*
X80768143Y-53929857D01*
X80696715Y-54072714D01*
X80625286Y-54144143D01*
X80482429Y-54215571D01*
X80196715Y-54215571D01*
X80053857Y-54144143D01*
X79982429Y-54072714D01*
X79911000Y-53929857D01*
X79911000Y-52715571D01*
X78339571Y-54215571D02*
X78839571Y-53501286D01*
X79196714Y-54215571D02*
X79196714Y-52715571D01*
X78625286Y-52715571D01*
X78482428Y-52787000D01*
X78411000Y-52858429D01*
X78339571Y-53001286D01*
X78339571Y-53215571D01*
X78411000Y-53358429D01*
X78482428Y-53429857D01*
X78625286Y-53501286D01*
X79196714Y-53501286D01*
X77696714Y-54215571D02*
X77696714Y-52715571D01*
X76839571Y-54215571D01*
X76839571Y-52715571D01*
X76125285Y-53429857D02*
X75625285Y-53429857D01*
X75410999Y-54215571D02*
X76125285Y-54215571D01*
X76125285Y-52715571D01*
X75410999Y-52715571D01*
X73910999Y-54215571D02*
X74410999Y-53501286D01*
X74768142Y-54215571D02*
X74768142Y-52715571D01*
X74196714Y-52715571D01*
X74053856Y-52787000D01*
X73982428Y-52858429D01*
X73910999Y-53001286D01*
X73910999Y-53215571D01*
X73982428Y-53358429D01*
X74053856Y-53429857D01*
X74196714Y-53501286D01*
X74768142Y-53501286D01*
X88946713Y-55258429D02*
X88875284Y-55187000D01*
X88732427Y-55115571D01*
X88375284Y-55115571D01*
X88232427Y-55187000D01*
X88160998Y-55258429D01*
X88089570Y-55401286D01*
X88089570Y-55544143D01*
X88160998Y-55758429D01*
X89018141Y-56615571D01*
X88089570Y-56615571D01*
X87160999Y-55115571D02*
X87018142Y-55115571D01*
X86875285Y-55187000D01*
X86803856Y-55258429D01*
X86732427Y-55401286D01*
X86660999Y-55687000D01*
X86660999Y-56044143D01*
X86732427Y-56329857D01*
X86803856Y-56472714D01*
X86875285Y-56544143D01*
X87018142Y-56615571D01*
X87160999Y-56615571D01*
X87303856Y-56544143D01*
X87375285Y-56472714D01*
X87446713Y-56329857D01*
X87518142Y-56044143D01*
X87518142Y-55687000D01*
X87446713Y-55401286D01*
X87375285Y-55258429D01*
X87303856Y-55187000D01*
X87160999Y-55115571D01*
X85232428Y-56615571D02*
X86089571Y-56615571D01*
X85660999Y-56615571D02*
X85660999Y-55115571D01*
X85803856Y-55329857D01*
X85946714Y-55472714D01*
X86089571Y-55544143D01*
X83946714Y-55115571D02*
X84232428Y-55115571D01*
X84375285Y-55187000D01*
X84446714Y-55258429D01*
X84589571Y-55472714D01*
X84661000Y-55758429D01*
X84661000Y-56329857D01*
X84589571Y-56472714D01*
X84518143Y-56544143D01*
X84375285Y-56615571D01*
X84089571Y-56615571D01*
X83946714Y-56544143D01*
X83875285Y-56472714D01*
X83803857Y-56329857D01*
X83803857Y-55972714D01*
X83875285Y-55829857D01*
X83946714Y-55758429D01*
X84089571Y-55687000D01*
X84375285Y-55687000D01*
X84518143Y-55758429D01*
X84589571Y-55829857D01*
X84661000Y-55972714D01*
X83161000Y-56044143D02*
X82018143Y-56044143D01*
X81018143Y-55115571D02*
X80875286Y-55115571D01*
X80732429Y-55187000D01*
X80661000Y-55258429D01*
X80589571Y-55401286D01*
X80518143Y-55687000D01*
X80518143Y-56044143D01*
X80589571Y-56329857D01*
X80661000Y-56472714D01*
X80732429Y-56544143D01*
X80875286Y-56615571D01*
X81018143Y-56615571D01*
X81161000Y-56544143D01*
X81232429Y-56472714D01*
X81303857Y-56329857D01*
X81375286Y-56044143D01*
X81375286Y-55687000D01*
X81303857Y-55401286D01*
X81232429Y-55258429D01*
X81161000Y-55187000D01*
X81018143Y-55115571D01*
X79161000Y-55115571D02*
X79875286Y-55115571D01*
X79946715Y-55829857D01*
X79875286Y-55758429D01*
X79732429Y-55687000D01*
X79375286Y-55687000D01*
X79232429Y-55758429D01*
X79161000Y-55829857D01*
X79089572Y-55972714D01*
X79089572Y-56329857D01*
X79161000Y-56472714D01*
X79232429Y-56544143D01*
X79375286Y-56615571D01*
X79732429Y-56615571D01*
X79875286Y-56544143D01*
X79946715Y-56472714D01*
X78446715Y-56044143D02*
X77303858Y-56044143D01*
X76661001Y-55258429D02*
X76589572Y-55187000D01*
X76446715Y-55115571D01*
X76089572Y-55115571D01*
X75946715Y-55187000D01*
X75875286Y-55258429D01*
X75803858Y-55401286D01*
X75803858Y-55544143D01*
X75875286Y-55758429D01*
X76732429Y-56615571D01*
X75803858Y-56615571D01*
X75089573Y-56615571D02*
X74803858Y-56615571D01*
X74661001Y-56544143D01*
X74589573Y-56472714D01*
X74446715Y-56258429D01*
X74375287Y-55972714D01*
X74375287Y-55401286D01*
X74446715Y-55258429D01*
X74518144Y-55187000D01*
X74661001Y-55115571D01*
X74946715Y-55115571D01*
X75089573Y-55187000D01*
X75161001Y-55258429D01*
X75232430Y-55401286D01*
X75232430Y-55758429D01*
X75161001Y-55901286D01*
X75089573Y-55972714D01*
X74946715Y-56044143D01*
X74661001Y-56044143D01*
X74518144Y-55972714D01*
X74446715Y-55901286D01*
X74375287Y-55758429D01*
M02*
