G04 #@! TF.FileFunction,Legend,Top*
%FSLAX46Y46*%
G04 Gerber Fmt 4.6, Leading zero omitted, Abs format (unit mm)*
G04 Created by KiCad (PCBNEW (2016-03-07 BZR 6612)-product) date Monday, 30 May 2016 'amt' 02:36:14*
%MOMM*%
G01*
G04 APERTURE LIST*
%ADD10C,0.100000*%
%ADD11C,0.300000*%
%ADD12C,0.500000*%
%ADD13C,0.200000*%
%ADD14C,0.150000*%
G04 APERTURE END LIST*
D10*
D11*
X160269484Y-89470327D02*
X160243339Y-89372753D01*
X160252908Y-89213321D01*
X160431480Y-88904026D01*
X160564767Y-88816023D01*
X160662341Y-88789878D01*
X160821773Y-88799448D01*
X160945491Y-88870876D01*
X161095354Y-89039878D01*
X161409089Y-90210757D01*
X161873375Y-89406590D01*
X161038622Y-87852424D02*
X161110051Y-87728707D01*
X161243338Y-87640703D01*
X161340912Y-87614558D01*
X161500345Y-87624128D01*
X161783494Y-87705126D01*
X162092789Y-87883698D01*
X162304511Y-88088413D01*
X162392514Y-88221701D01*
X162418659Y-88319275D01*
X162409089Y-88478707D01*
X162337660Y-88602424D01*
X162204373Y-88690428D01*
X162106799Y-88716573D01*
X161947368Y-88707003D01*
X161664218Y-88626005D01*
X161354923Y-88447434D01*
X161143202Y-88242717D01*
X161055198Y-88109430D01*
X161029053Y-88011857D01*
X161038622Y-87852424D01*
X163301946Y-86932233D02*
X162873374Y-87674540D01*
X163087660Y-87303386D02*
X161788622Y-86553386D01*
X161902771Y-86784247D01*
X161955060Y-86979394D01*
X161945490Y-87138826D01*
X162645765Y-85068772D02*
X162502908Y-85316207D01*
X162493338Y-85475640D01*
X162519483Y-85573214D01*
X162633631Y-85804074D01*
X162845353Y-86008791D01*
X163340224Y-86294505D01*
X163499656Y-86304074D01*
X163597230Y-86277930D01*
X163730517Y-86189925D01*
X163873374Y-85942490D01*
X163882944Y-85783058D01*
X163856799Y-85685484D01*
X163768796Y-85552197D01*
X163459501Y-85373626D01*
X163300069Y-85364056D01*
X163202496Y-85390201D01*
X163069208Y-85478204D01*
X162926351Y-85725640D01*
X162916781Y-85885073D01*
X162942926Y-85982645D01*
X163030929Y-86115933D01*
X163842789Y-84852610D02*
X164414217Y-83862866D01*
X164110050Y-82532555D02*
X164181479Y-82408837D01*
X164314766Y-82320834D01*
X164412340Y-82294689D01*
X164571773Y-82304258D01*
X164854922Y-82385257D01*
X165164217Y-82563828D01*
X165375939Y-82768544D01*
X165463942Y-82901832D01*
X165490087Y-82999405D01*
X165480517Y-83158837D01*
X165409088Y-83282555D01*
X165275801Y-83370559D01*
X165178227Y-83396704D01*
X165018796Y-83387134D01*
X164735646Y-83306136D01*
X164426351Y-83127564D01*
X164214630Y-82922848D01*
X164126626Y-82789561D01*
X164100481Y-82691987D01*
X164110050Y-82532555D01*
X165038622Y-80924222D02*
X164681479Y-81542812D01*
X165264354Y-81961814D01*
X165238210Y-81864241D01*
X165247779Y-81704809D01*
X165426351Y-81395514D01*
X165559638Y-81307510D01*
X165657211Y-81281365D01*
X165816643Y-81290935D01*
X166125938Y-81469507D01*
X166213942Y-81602793D01*
X166240087Y-81700367D01*
X166230517Y-81859799D01*
X166051945Y-82169094D01*
X165918658Y-82257098D01*
X165821084Y-82283243D01*
X166199931Y-80769919D02*
X166771360Y-79780176D01*
X166412340Y-78830588D02*
X166386195Y-78733015D01*
X166395764Y-78573582D01*
X166574336Y-78264287D01*
X166707623Y-78176284D01*
X166805197Y-78150139D01*
X166964629Y-78159709D01*
X167088347Y-78231138D01*
X167238210Y-78400139D01*
X167551945Y-79571018D01*
X168016231Y-78766852D01*
X168373373Y-78148263D02*
X168516231Y-77900826D01*
X168525801Y-77741395D01*
X168499655Y-77643822D01*
X168385508Y-77412960D01*
X168173786Y-77208244D01*
X167678915Y-76922530D01*
X167519483Y-76912960D01*
X167421909Y-76939105D01*
X167288621Y-77027109D01*
X167145764Y-77274544D01*
X167136194Y-77433977D01*
X167162340Y-77531550D01*
X167250343Y-77664838D01*
X167559638Y-77843410D01*
X167719070Y-77852979D01*
X167816643Y-77826834D01*
X167949931Y-77738830D01*
X168092788Y-77491395D01*
X168102357Y-77331962D01*
X168076213Y-77234389D01*
X167988209Y-77101102D01*
X188928571Y-88854762D02*
X188928571Y-86854762D01*
X189404762Y-86854762D01*
X189690476Y-86950000D01*
X189880952Y-87140476D01*
X189976191Y-87330952D01*
X190071429Y-87711905D01*
X190071429Y-87997619D01*
X189976191Y-88378571D01*
X189880952Y-88569048D01*
X189690476Y-88759524D01*
X189404762Y-88854762D01*
X188928571Y-88854762D01*
X191785714Y-88854762D02*
X191785714Y-87807143D01*
X191690476Y-87616667D01*
X191500000Y-87521429D01*
X191119048Y-87521429D01*
X190928571Y-87616667D01*
X191785714Y-88759524D02*
X191595238Y-88854762D01*
X191119048Y-88854762D01*
X190928571Y-88759524D01*
X190833333Y-88569048D01*
X190833333Y-88378571D01*
X190928571Y-88188095D01*
X191119048Y-88092857D01*
X191595238Y-88092857D01*
X191785714Y-87997619D01*
X192547619Y-87521429D02*
X193023810Y-88854762D01*
X193500000Y-87521429D01*
X194261905Y-88854762D02*
X194261905Y-87521429D01*
X194261905Y-86854762D02*
X194166667Y-86950000D01*
X194261905Y-87045238D01*
X194357144Y-86950000D01*
X194261905Y-86854762D01*
X194261905Y-87045238D01*
X196071429Y-88854762D02*
X196071429Y-86854762D01*
X196071429Y-88759524D02*
X195880953Y-88854762D01*
X195500001Y-88854762D01*
X195309525Y-88759524D01*
X195214286Y-88664286D01*
X195119048Y-88473810D01*
X195119048Y-87902381D01*
X195214286Y-87711905D01*
X195309525Y-87616667D01*
X195500001Y-87521429D01*
X195880953Y-87521429D01*
X196071429Y-87616667D01*
X188023809Y-89954762D02*
X189166666Y-89954762D01*
X188595238Y-91954762D02*
X188595238Y-89954762D01*
X190690476Y-90621429D02*
X190690476Y-91954762D01*
X189833333Y-90621429D02*
X189833333Y-91669048D01*
X189928572Y-91859524D01*
X190119048Y-91954762D01*
X190404762Y-91954762D01*
X190595238Y-91859524D01*
X190690476Y-91764286D01*
X191642857Y-91954762D02*
X191642857Y-90621429D01*
X191642857Y-91002381D02*
X191738096Y-90811905D01*
X191833334Y-90716667D01*
X192023810Y-90621429D01*
X192214286Y-90621429D01*
X192880952Y-90621429D02*
X192880952Y-91954762D01*
X192880952Y-90811905D02*
X192976191Y-90716667D01*
X193166667Y-90621429D01*
X193452381Y-90621429D01*
X193642857Y-90716667D01*
X193738095Y-90907143D01*
X193738095Y-91954762D01*
X195452381Y-91859524D02*
X195261905Y-91954762D01*
X194880953Y-91954762D01*
X194690476Y-91859524D01*
X194595238Y-91669048D01*
X194595238Y-90907143D01*
X194690476Y-90716667D01*
X194880953Y-90621429D01*
X195261905Y-90621429D01*
X195452381Y-90716667D01*
X195547619Y-90907143D01*
X195547619Y-91097619D01*
X194595238Y-91288095D01*
X196404762Y-91954762D02*
X196404762Y-90621429D01*
X196404762Y-91002381D02*
X196500001Y-90811905D01*
X196595239Y-90716667D01*
X196785715Y-90621429D01*
X196976191Y-90621429D01*
D12*
X158213253Y-59177771D02*
X158347940Y-59447145D01*
X158347941Y-59581832D01*
X158280598Y-59783863D01*
X158078567Y-59985894D01*
X157876536Y-60053237D01*
X157741849Y-60053237D01*
X157539818Y-59985893D01*
X157001070Y-59447145D01*
X158415284Y-58032931D01*
X158886689Y-58504336D01*
X158954032Y-58706366D01*
X158954032Y-58841053D01*
X158886689Y-59043084D01*
X158752002Y-59177771D01*
X158549971Y-59245115D01*
X158415284Y-59245115D01*
X158213253Y-59177771D01*
X157741849Y-58706366D01*
X159088719Y-61534794D02*
X158415284Y-60861358D01*
X159829497Y-59447145D01*
X160974337Y-60591985D02*
X159829497Y-61736825D01*
X159762155Y-61938856D01*
X159762155Y-62073542D01*
X159829498Y-62275573D01*
X160098872Y-62544946D01*
X160300902Y-62612290D01*
X160435590Y-62612291D01*
X160637620Y-62544947D01*
X161782460Y-61400107D01*
X161782459Y-62746977D02*
X162253864Y-63218382D01*
X161715116Y-64161190D02*
X161041681Y-63487755D01*
X162455894Y-62073542D01*
X163129329Y-62746977D01*
X163533391Y-64497908D02*
X163668077Y-64767282D01*
X163668078Y-64901970D01*
X163600735Y-65104000D01*
X163398704Y-65306031D01*
X163196673Y-65373374D01*
X163061986Y-65373374D01*
X162859955Y-65306030D01*
X162321207Y-64767282D01*
X163735421Y-63353068D01*
X164206826Y-63824473D01*
X164274169Y-64026503D01*
X164274169Y-64161190D01*
X164206826Y-64363221D01*
X164072139Y-64497908D01*
X163870108Y-64565252D01*
X163735421Y-64565252D01*
X163533391Y-64497908D01*
X163061986Y-64026503D01*
X165419009Y-65036656D02*
X165688383Y-65306030D01*
X165755726Y-65508060D01*
X165755727Y-65777435D01*
X165553696Y-66114153D01*
X165082292Y-66585557D01*
X164745574Y-66787588D01*
X164476199Y-66787587D01*
X164274169Y-66720244D01*
X164004795Y-66450870D01*
X163937452Y-66248840D01*
X163937451Y-65979465D01*
X164139482Y-65642747D01*
X164610886Y-65171343D01*
X164947604Y-64969312D01*
X165216979Y-64969313D01*
X165419009Y-65036656D01*
X166496505Y-66114152D02*
X166025100Y-68471175D01*
X167439314Y-67056962D02*
X165082291Y-67528366D01*
X167304626Y-68269144D02*
X167776031Y-68740549D01*
X167237283Y-69683358D02*
X166563848Y-69009923D01*
X167978062Y-67595709D01*
X168651497Y-68269144D01*
X167843375Y-70154762D02*
X167978062Y-70424137D01*
X168314779Y-70760854D01*
X168516810Y-70828198D01*
X168651497Y-70828198D01*
X168853528Y-70760855D01*
X168988215Y-70626167D01*
X169055558Y-70424136D01*
X169055558Y-70289449D01*
X168988214Y-70087419D01*
X168786184Y-69750702D01*
X168718841Y-69548672D01*
X168718840Y-69413984D01*
X168786184Y-69211953D01*
X168920871Y-69077266D01*
X169122901Y-69009923D01*
X169257589Y-69009923D01*
X169459619Y-69077267D01*
X169796336Y-69413984D01*
X169931024Y-69683358D01*
X169324932Y-71501633D02*
X169324932Y-71636320D01*
X169190245Y-71636319D01*
X169190245Y-71501633D01*
X169324932Y-71501633D01*
X169190245Y-71636319D01*
X170065710Y-70760854D02*
X170065711Y-70895542D01*
X169931023Y-70895541D01*
X169931023Y-70760854D01*
X170065710Y-70760854D01*
X169931023Y-70895541D01*
X163354931Y-70467909D02*
X164769144Y-69053696D01*
X165105862Y-69390414D01*
X165240549Y-69659787D01*
X165240549Y-69929161D01*
X165173206Y-70131192D01*
X164971175Y-70467910D01*
X164769145Y-70669940D01*
X164432428Y-70871971D01*
X164230396Y-70939314D01*
X163961022Y-70939314D01*
X163691648Y-70804627D01*
X163354931Y-70467909D01*
X164769144Y-71747436D02*
X164903832Y-72016810D01*
X165240549Y-72353528D01*
X165442579Y-72420871D01*
X165577266Y-72420871D01*
X165779297Y-72353528D01*
X165913985Y-72218841D01*
X165981327Y-72016810D01*
X165981327Y-71882123D01*
X165913984Y-71680093D01*
X165711954Y-71343375D01*
X165644610Y-71141345D01*
X165644610Y-71006657D01*
X165711954Y-70804626D01*
X165846641Y-70669940D01*
X166048671Y-70602596D01*
X166183358Y-70602597D01*
X166385389Y-70669940D01*
X166722106Y-71006657D01*
X166856793Y-71276032D01*
X166116014Y-73228993D02*
X167530228Y-71814779D01*
X168068976Y-72353528D01*
X168136319Y-72555558D01*
X168136320Y-72690245D01*
X168068977Y-72892276D01*
X167866946Y-73094307D01*
X167664915Y-73161650D01*
X167530228Y-73161650D01*
X167328198Y-73094306D01*
X166789449Y-72555558D01*
D11*
X179285715Y-56392857D02*
X179785715Y-56392857D01*
X180000001Y-57178571D02*
X179285715Y-57178571D01*
X179285715Y-55678571D01*
X180000001Y-55678571D01*
X180571429Y-57107143D02*
X180785715Y-57178571D01*
X181142858Y-57178571D01*
X181285715Y-57107143D01*
X181357144Y-57035714D01*
X181428572Y-56892857D01*
X181428572Y-56750000D01*
X181357144Y-56607143D01*
X181285715Y-56535714D01*
X181142858Y-56464286D01*
X180857144Y-56392857D01*
X180714286Y-56321429D01*
X180642858Y-56250000D01*
X180571429Y-56107143D01*
X180571429Y-55964286D01*
X180642858Y-55821429D01*
X180714286Y-55750000D01*
X180857144Y-55678571D01*
X181214286Y-55678571D01*
X181428572Y-55750000D01*
X182071429Y-57178571D02*
X182071429Y-55678571D01*
X182642857Y-55678571D01*
X182785715Y-55750000D01*
X182857143Y-55821429D01*
X182928572Y-55964286D01*
X182928572Y-56178571D01*
X182857143Y-56321429D01*
X182785715Y-56392857D01*
X182642857Y-56464286D01*
X182071429Y-56464286D01*
X183857143Y-55678571D02*
X184000000Y-55678571D01*
X184142857Y-55750000D01*
X184214286Y-55821429D01*
X184285715Y-55964286D01*
X184357143Y-56250000D01*
X184357143Y-56607143D01*
X184285715Y-56892857D01*
X184214286Y-57035714D01*
X184142857Y-57107143D01*
X184000000Y-57178571D01*
X183857143Y-57178571D01*
X183714286Y-57107143D01*
X183642857Y-57035714D01*
X183571429Y-56892857D01*
X183500000Y-56607143D01*
X183500000Y-56250000D01*
X183571429Y-55964286D01*
X183642857Y-55821429D01*
X183714286Y-55750000D01*
X183857143Y-55678571D01*
X184928571Y-55821429D02*
X185000000Y-55750000D01*
X185142857Y-55678571D01*
X185500000Y-55678571D01*
X185642857Y-55750000D01*
X185714286Y-55821429D01*
X185785714Y-55964286D01*
X185785714Y-56107143D01*
X185714286Y-56321429D01*
X184857143Y-57178571D01*
X185785714Y-57178571D01*
D13*
X189000000Y-53000000D02*
G75*
G03X189000000Y-53000000I-500000J0D01*
G01*
X190081139Y-53000000D02*
G75*
G03X190081139Y-53000000I-1581139J0D01*
G01*
X190500000Y-51000000D02*
X174500000Y-51000000D01*
X190500000Y-65000000D02*
X190500000Y-51000000D01*
X174500000Y-65000000D02*
X190500000Y-65000000D01*
X174500000Y-51000000D02*
X174500000Y-65000000D01*
X163904762Y-59357143D02*
X163952381Y-59214286D01*
X163952381Y-58976190D01*
X163904762Y-58880952D01*
X163857143Y-58833333D01*
X163761905Y-58785714D01*
X163666667Y-58785714D01*
X163571429Y-58833333D01*
X163523810Y-58880952D01*
X163476190Y-58976190D01*
X163428571Y-59166667D01*
X163380952Y-59261905D01*
X163333333Y-59309524D01*
X163238095Y-59357143D01*
X163142857Y-59357143D01*
X163047619Y-59309524D01*
X163000000Y-59261905D01*
X162952381Y-59166667D01*
X162952381Y-58928571D01*
X163000000Y-58785714D01*
X162952381Y-58452381D02*
X163952381Y-58214286D01*
X163238095Y-58023809D01*
X163952381Y-57833333D01*
X162952381Y-57595238D01*
D11*
X160928572Y-51107143D02*
X162071429Y-51107143D01*
X161500000Y-51678571D02*
X161500000Y-50535714D01*
X160928572Y-58107143D02*
X162071429Y-58107143D01*
X159107143Y-56428571D02*
X159107143Y-55285714D01*
X159678571Y-55857143D02*
X158535714Y-55857143D01*
X159678571Y-54500000D02*
X159678571Y-54214285D01*
X159607143Y-54071428D01*
X159535714Y-54000000D01*
X159321429Y-53857142D01*
X159035714Y-53785714D01*
X158464286Y-53785714D01*
X158321429Y-53857142D01*
X158250000Y-53928571D01*
X158178571Y-54071428D01*
X158178571Y-54357142D01*
X158250000Y-54500000D01*
X158321429Y-54571428D01*
X158464286Y-54642857D01*
X158821429Y-54642857D01*
X158964286Y-54571428D01*
X159035714Y-54500000D01*
X159107143Y-54357142D01*
X159107143Y-54071428D01*
X159035714Y-53928571D01*
X158964286Y-53857142D01*
X158821429Y-53785714D01*
X158178571Y-53357143D02*
X159678571Y-52857143D01*
X158178571Y-52357143D01*
D13*
X198452381Y-83663097D02*
X198452381Y-83572621D01*
X198500000Y-83482145D01*
X198547619Y-83436907D01*
X198642857Y-83391669D01*
X198833333Y-83346430D01*
X199071429Y-83346430D01*
X199261905Y-83391669D01*
X199357143Y-83436907D01*
X199404762Y-83482145D01*
X199452381Y-83572621D01*
X199452381Y-83663097D01*
X199404762Y-83753573D01*
X199357143Y-83798811D01*
X199261905Y-83844050D01*
X199071429Y-83889288D01*
X198833333Y-83889288D01*
X198642857Y-83844050D01*
X198547619Y-83798811D01*
X198500000Y-83753573D01*
X198452381Y-83663097D01*
X198452381Y-83075002D02*
X199452381Y-82758335D01*
X198452381Y-82441668D01*
X199071429Y-81401192D02*
X199071429Y-80677382D01*
X199452381Y-81039287D02*
X198690476Y-81039287D01*
X198452381Y-80360716D02*
X199452381Y-80044049D01*
X198452381Y-79727382D01*
X199452381Y-78686906D02*
X198452381Y-78686906D01*
X198452381Y-78460715D01*
X198500000Y-78325001D01*
X198595238Y-78234525D01*
X198690476Y-78189286D01*
X198880952Y-78144048D01*
X199023810Y-78144048D01*
X199214286Y-78189286D01*
X199309524Y-78234525D01*
X199404762Y-78325001D01*
X199452381Y-78460715D01*
X199452381Y-78686906D01*
X199357143Y-77194048D02*
X199404762Y-77239286D01*
X199452381Y-77375001D01*
X199452381Y-77465477D01*
X199404762Y-77601191D01*
X199309524Y-77691667D01*
X199214286Y-77736906D01*
X199023810Y-77782144D01*
X198880952Y-77782144D01*
X198690476Y-77736906D01*
X198595238Y-77691667D01*
X198500000Y-77601191D01*
X198452381Y-77465477D01*
X198452381Y-77375001D01*
X198500000Y-77239286D01*
X198547619Y-77194048D01*
X199357143Y-75520238D02*
X199404762Y-75565476D01*
X199452381Y-75701191D01*
X199452381Y-75791667D01*
X199404762Y-75927381D01*
X199309524Y-76017857D01*
X199214286Y-76063096D01*
X199023810Y-76108334D01*
X198880952Y-76108334D01*
X198690476Y-76063096D01*
X198595238Y-76017857D01*
X198500000Y-75927381D01*
X198452381Y-75791667D01*
X198452381Y-75701191D01*
X198500000Y-75565476D01*
X198547619Y-75520238D01*
X199452381Y-75113096D02*
X198452381Y-75113096D01*
X199452381Y-74570238D02*
X198880952Y-74977381D01*
X198452381Y-74570238D02*
X199023810Y-75113096D01*
X199452381Y-72896428D02*
X198976190Y-73213095D01*
X199452381Y-73439286D02*
X198452381Y-73439286D01*
X198452381Y-73077381D01*
X198500000Y-72986905D01*
X198547619Y-72941666D01*
X198642857Y-72896428D01*
X198785714Y-72896428D01*
X198880952Y-72941666D01*
X198928571Y-72986905D01*
X198976190Y-73077381D01*
X198976190Y-73439286D01*
X198452381Y-72579762D02*
X199452381Y-71946428D01*
X198452381Y-71946428D02*
X199452381Y-72579762D01*
X199357143Y-70317856D02*
X199404762Y-70363094D01*
X199452381Y-70498809D01*
X199452381Y-70589285D01*
X199404762Y-70724999D01*
X199309524Y-70815475D01*
X199214286Y-70860714D01*
X199023810Y-70905952D01*
X198880952Y-70905952D01*
X198690476Y-70860714D01*
X198595238Y-70815475D01*
X198500000Y-70724999D01*
X198452381Y-70589285D01*
X198452381Y-70498809D01*
X198500000Y-70363094D01*
X198547619Y-70317856D01*
X199404762Y-69955952D02*
X199452381Y-69820237D01*
X199452381Y-69594047D01*
X199404762Y-69503571D01*
X199357143Y-69458333D01*
X199261905Y-69413094D01*
X199166667Y-69413094D01*
X199071429Y-69458333D01*
X199023810Y-69503571D01*
X198976190Y-69594047D01*
X198928571Y-69774999D01*
X198880952Y-69865475D01*
X198833333Y-69910714D01*
X198738095Y-69955952D01*
X198642857Y-69955952D01*
X198547619Y-69910714D01*
X198500000Y-69865475D01*
X198452381Y-69774999D01*
X198452381Y-69548809D01*
X198500000Y-69413094D01*
X199452381Y-67739284D02*
X198976190Y-68055951D01*
X199452381Y-68282142D02*
X198452381Y-68282142D01*
X198452381Y-67920237D01*
X198500000Y-67829761D01*
X198547619Y-67784522D01*
X198642857Y-67739284D01*
X198785714Y-67739284D01*
X198880952Y-67784522D01*
X198928571Y-67829761D01*
X198976190Y-67920237D01*
X198976190Y-68282142D01*
X199404762Y-67377380D02*
X199452381Y-67241665D01*
X199452381Y-67015475D01*
X199404762Y-66924999D01*
X199357143Y-66879761D01*
X199261905Y-66834522D01*
X199166667Y-66834522D01*
X199071429Y-66879761D01*
X199023810Y-66924999D01*
X198976190Y-67015475D01*
X198928571Y-67196427D01*
X198880952Y-67286903D01*
X198833333Y-67332142D01*
X198738095Y-67377380D01*
X198642857Y-67377380D01*
X198547619Y-67332142D01*
X198500000Y-67286903D01*
X198452381Y-67196427D01*
X198452381Y-66970237D01*
X198500000Y-66834522D01*
X198452381Y-66563094D02*
X198452381Y-66020237D01*
X199452381Y-66291665D02*
X198452381Y-66291665D01*
D11*
X194321428Y-64178571D02*
X194607142Y-64178571D01*
X194750000Y-64250000D01*
X194892857Y-64392857D01*
X194964285Y-64678571D01*
X194964285Y-65178571D01*
X194892857Y-65464286D01*
X194750000Y-65607143D01*
X194607142Y-65678571D01*
X194321428Y-65678571D01*
X194178571Y-65607143D01*
X194035714Y-65464286D01*
X193964285Y-65178571D01*
X193964285Y-64678571D01*
X194035714Y-64392857D01*
X194178571Y-64250000D01*
X194321428Y-64178571D01*
X196321429Y-65678571D02*
X195607143Y-65678571D01*
X195607143Y-64178571D01*
X196821429Y-64892857D02*
X197321429Y-64892857D01*
X197535715Y-65678571D02*
X196821429Y-65678571D01*
X196821429Y-64178571D01*
X197535715Y-64178571D01*
X198178572Y-65678571D02*
X198178572Y-64178571D01*
X198535715Y-64178571D01*
X198750000Y-64250000D01*
X198892858Y-64392857D01*
X198964286Y-64535714D01*
X199035715Y-64821429D01*
X199035715Y-65035714D01*
X198964286Y-65321429D01*
X198892858Y-65464286D01*
X198750000Y-65607143D01*
X198535715Y-65678571D01*
X198178572Y-65678571D01*
X185035715Y-95250000D02*
X185750001Y-95250000D01*
X184892858Y-95678571D02*
X185392858Y-94178571D01*
X185892858Y-95678571D01*
X186392858Y-95678571D02*
X186392858Y-94178571D01*
X186750001Y-94178571D01*
X186964286Y-94250000D01*
X187107144Y-94392857D01*
X187178572Y-94535714D01*
X187250001Y-94821429D01*
X187250001Y-95035714D01*
X187178572Y-95321429D01*
X187107144Y-95464286D01*
X186964286Y-95607143D01*
X186750001Y-95678571D01*
X186392858Y-95678571D01*
X188321429Y-94178571D02*
X188321429Y-95250000D01*
X188250001Y-95464286D01*
X188107144Y-95607143D01*
X187892858Y-95678571D01*
X187750001Y-95678571D01*
X190035715Y-94178571D02*
X190964286Y-94178571D01*
X190464286Y-94750000D01*
X190678572Y-94750000D01*
X190821429Y-94821429D01*
X190892858Y-94892857D01*
X190964286Y-95035714D01*
X190964286Y-95392857D01*
X190892858Y-95535714D01*
X190821429Y-95607143D01*
X190678572Y-95678571D01*
X190250000Y-95678571D01*
X190107143Y-95607143D01*
X190035715Y-95535714D01*
X176535715Y-95250000D02*
X177250001Y-95250000D01*
X176392858Y-95678571D02*
X176892858Y-94178571D01*
X177392858Y-95678571D01*
X177892858Y-95678571D02*
X177892858Y-94178571D01*
X178250001Y-94178571D01*
X178464286Y-94250000D01*
X178607144Y-94392857D01*
X178678572Y-94535714D01*
X178750001Y-94821429D01*
X178750001Y-95035714D01*
X178678572Y-95321429D01*
X178607144Y-95464286D01*
X178464286Y-95607143D01*
X178250001Y-95678571D01*
X177892858Y-95678571D01*
X179821429Y-94178571D02*
X179821429Y-95250000D01*
X179750001Y-95464286D01*
X179607144Y-95607143D01*
X179392858Y-95678571D01*
X179250001Y-95678571D01*
X181607143Y-94321429D02*
X181678572Y-94250000D01*
X181821429Y-94178571D01*
X182178572Y-94178571D01*
X182321429Y-94250000D01*
X182392858Y-94321429D01*
X182464286Y-94464286D01*
X182464286Y-94607143D01*
X182392858Y-94821429D01*
X181535715Y-95678571D01*
X182464286Y-95678571D01*
X168535715Y-95250000D02*
X169250001Y-95250000D01*
X168392858Y-95678571D02*
X168892858Y-94178571D01*
X169392858Y-95678571D01*
X169892858Y-95678571D02*
X169892858Y-94178571D01*
X170250001Y-94178571D01*
X170464286Y-94250000D01*
X170607144Y-94392857D01*
X170678572Y-94535714D01*
X170750001Y-94821429D01*
X170750001Y-95035714D01*
X170678572Y-95321429D01*
X170607144Y-95464286D01*
X170464286Y-95607143D01*
X170250001Y-95678571D01*
X169892858Y-95678571D01*
X171821429Y-94178571D02*
X171821429Y-95250000D01*
X171750001Y-95464286D01*
X171607144Y-95607143D01*
X171392858Y-95678571D01*
X171250001Y-95678571D01*
X174464286Y-95678571D02*
X173607143Y-95678571D01*
X174035715Y-95678571D02*
X174035715Y-94178571D01*
X173892858Y-94392857D01*
X173750000Y-94535714D01*
X173607143Y-94607143D01*
X159428572Y-92892857D02*
X158928572Y-92892857D01*
X158928572Y-93678571D02*
X158928572Y-92178571D01*
X159642858Y-92178571D01*
X160071429Y-92178571D02*
X161071429Y-93678571D01*
X161071429Y-92178571D02*
X160071429Y-93678571D01*
X162714285Y-93607143D02*
X162928571Y-93678571D01*
X163285714Y-93678571D01*
X163428571Y-93607143D01*
X163500000Y-93535714D01*
X163571428Y-93392857D01*
X163571428Y-93250000D01*
X163500000Y-93107143D01*
X163428571Y-93035714D01*
X163285714Y-92964286D01*
X163000000Y-92892857D01*
X162857142Y-92821429D01*
X162785714Y-92750000D01*
X162714285Y-92607143D01*
X162714285Y-92464286D01*
X162785714Y-92321429D01*
X162857142Y-92250000D01*
X163000000Y-92178571D01*
X163357142Y-92178571D01*
X163571428Y-92250000D01*
X164214285Y-92892857D02*
X164714285Y-92892857D01*
X164928571Y-93678571D02*
X164214285Y-93678571D01*
X164214285Y-92178571D01*
X164928571Y-92178571D01*
X166285714Y-93678571D02*
X165571428Y-93678571D01*
X165571428Y-92178571D01*
X159678571Y-86392857D02*
X161178571Y-85892857D01*
X159678571Y-85392857D01*
X159678571Y-84607143D02*
X159678571Y-84321429D01*
X159750000Y-84178571D01*
X159892857Y-84035714D01*
X160178571Y-83964286D01*
X160678571Y-83964286D01*
X160964286Y-84035714D01*
X161107143Y-84178571D01*
X161178571Y-84321429D01*
X161178571Y-84607143D01*
X161107143Y-84750000D01*
X160964286Y-84892857D01*
X160678571Y-84964286D01*
X160178571Y-84964286D01*
X159892857Y-84892857D01*
X159750000Y-84750000D01*
X159678571Y-84607143D01*
X161178571Y-82607142D02*
X161178571Y-83321428D01*
X159678571Y-83321428D01*
X150678571Y-86000000D02*
X150678571Y-85714286D01*
X150750000Y-85571428D01*
X150892857Y-85428571D01*
X151178571Y-85357143D01*
X151678571Y-85357143D01*
X151964286Y-85428571D01*
X152107143Y-85571428D01*
X152178571Y-85714286D01*
X152178571Y-86000000D01*
X152107143Y-86142857D01*
X151964286Y-86285714D01*
X151678571Y-86357143D01*
X151178571Y-86357143D01*
X150892857Y-86285714D01*
X150750000Y-86142857D01*
X150678571Y-86000000D01*
X150678571Y-84714285D02*
X151892857Y-84714285D01*
X152035714Y-84642857D01*
X152107143Y-84571428D01*
X152178571Y-84428571D01*
X152178571Y-84142857D01*
X152107143Y-83999999D01*
X152035714Y-83928571D01*
X151892857Y-83857142D01*
X150678571Y-83857142D01*
X150678571Y-83357142D02*
X150678571Y-82499999D01*
X152178571Y-82928570D02*
X150678571Y-82928570D01*
X152178571Y-75785714D02*
X150678571Y-75785714D01*
X152178571Y-75071428D02*
X150678571Y-75071428D01*
X152178571Y-74214285D01*
X150678571Y-74214285D01*
D14*
X161473000Y-75309000D02*
X161473000Y-75059000D01*
X161473000Y-75059000D02*
X162123000Y-75059000D01*
X162123000Y-75059000D02*
X162123000Y-75309000D01*
X162123000Y-75309000D02*
X161473000Y-75309000D01*
X170125000Y-63125000D02*
X169875000Y-63125000D01*
X169875000Y-63125000D02*
X169875000Y-62475000D01*
X169875000Y-62475000D02*
X170125000Y-62475000D01*
X170125000Y-62475000D02*
X170125000Y-63125000D01*
X165325000Y-58875000D02*
X165325000Y-59125000D01*
X165325000Y-59125000D02*
X164675000Y-59125000D01*
X164675000Y-59125000D02*
X164675000Y-58875000D01*
X164675000Y-58875000D02*
X165325000Y-58875000D01*
X154125000Y-65325000D02*
X153875000Y-65325000D01*
X153875000Y-65325000D02*
X153875000Y-64675000D01*
X153875000Y-64675000D02*
X154125000Y-64675000D01*
X154125000Y-64675000D02*
X154125000Y-65325000D01*
X170617000Y-78357000D02*
X170617000Y-78107000D01*
X170617000Y-78107000D02*
X171267000Y-78107000D01*
X171267000Y-78107000D02*
X171267000Y-78357000D01*
X171267000Y-78357000D02*
X170617000Y-78357000D01*
X175825000Y-92325000D02*
X175575000Y-92325000D01*
X175575000Y-92325000D02*
X175575000Y-91675000D01*
X175575000Y-91675000D02*
X175825000Y-91675000D01*
X175825000Y-91675000D02*
X175825000Y-92325000D01*
X168675000Y-83925000D02*
X168675000Y-83675000D01*
X168675000Y-83675000D02*
X169325000Y-83675000D01*
X169325000Y-83675000D02*
X169325000Y-83925000D01*
X169325000Y-83925000D02*
X168675000Y-83925000D01*
X183875000Y-89175000D02*
X184125000Y-89175000D01*
X184125000Y-89175000D02*
X184125000Y-89825000D01*
X184125000Y-89825000D02*
X183875000Y-89825000D01*
X183875000Y-89825000D02*
X183875000Y-89175000D01*
X174575000Y-72675000D02*
X174825000Y-72675000D01*
X174825000Y-72675000D02*
X174825000Y-73325000D01*
X174825000Y-73325000D02*
X174575000Y-73325000D01*
X174575000Y-73325000D02*
X174575000Y-72675000D01*
X175822335Y-90040372D02*
X175572335Y-90040372D01*
X175572335Y-90040372D02*
X175572335Y-89390372D01*
X175572335Y-89390372D02*
X175822335Y-89390372D01*
X175822335Y-89390372D02*
X175822335Y-90040372D01*
X186875000Y-76675000D02*
X187125000Y-76675000D01*
X187125000Y-76675000D02*
X187125000Y-77325000D01*
X187125000Y-77325000D02*
X186875000Y-77325000D01*
X186875000Y-77325000D02*
X186875000Y-76675000D01*
X170175000Y-83925000D02*
X170175000Y-83675000D01*
X170175000Y-83675000D02*
X170825000Y-83675000D01*
X170825000Y-83675000D02*
X170825000Y-83925000D01*
X170825000Y-83925000D02*
X170175000Y-83925000D01*
X181825000Y-89875000D02*
X181825000Y-90125000D01*
X181825000Y-90125000D02*
X181175000Y-90125000D01*
X181175000Y-90125000D02*
X181175000Y-89875000D01*
X181175000Y-89875000D02*
X181825000Y-89875000D01*
X186875000Y-78175000D02*
X187125000Y-78175000D01*
X187125000Y-78175000D02*
X187125000Y-78825000D01*
X187125000Y-78825000D02*
X186875000Y-78825000D01*
X186875000Y-78825000D02*
X186875000Y-78175000D01*
X173325000Y-64875000D02*
X173325000Y-65125000D01*
X173325000Y-65125000D02*
X172675000Y-65125000D01*
X172675000Y-65125000D02*
X172675000Y-64875000D01*
X172675000Y-64875000D02*
X173325000Y-64875000D01*
X175775000Y-65325000D02*
X177225000Y-65325000D01*
X177225000Y-65325000D02*
X177225000Y-67675000D01*
X177225000Y-67675000D02*
X175775000Y-67675000D01*
X175775000Y-67675000D02*
X175775000Y-65325000D01*
X164930000Y-75138000D02*
X162730000Y-75138000D01*
X162730000Y-75038000D02*
X164930000Y-75038000D01*
X164930000Y-74938000D02*
X162730000Y-74938000D01*
X162730000Y-74838000D02*
X164930000Y-74838000D01*
X162730000Y-75438000D02*
X162730000Y-73938000D01*
X162730000Y-73938000D02*
X163030000Y-73938000D01*
X164630000Y-73938000D02*
X164930000Y-73938000D01*
X164930000Y-73938000D02*
X164930000Y-76938000D01*
X164930000Y-76938000D02*
X164630000Y-76938000D01*
X163030000Y-76938000D02*
X162730000Y-76938000D01*
X162730000Y-76938000D02*
X162730000Y-75438000D01*
X174650000Y-77050000D02*
X182950000Y-77050000D01*
X182950000Y-77050000D02*
X182950000Y-85950000D01*
X182950000Y-85950000D02*
X174050000Y-85950000D01*
X174050000Y-85950000D02*
X174050000Y-77650000D01*
X174050000Y-77650000D02*
X174650000Y-77050000D01*
X152730000Y-73730000D02*
X152730000Y-78810000D01*
X152730000Y-78810000D02*
X155270000Y-78810000D01*
X155270000Y-78810000D02*
X155270000Y-73730000D01*
X155550000Y-70910000D02*
X155550000Y-72460000D01*
X155270000Y-73730000D02*
X152730000Y-73730000D01*
X152450000Y-72460000D02*
X152450000Y-70910000D01*
X152450000Y-70910000D02*
X155550000Y-70910000D01*
X160230000Y-54270000D02*
X160230000Y-51730000D01*
X159950000Y-57090000D02*
X159950000Y-55540000D01*
X160230000Y-54270000D02*
X162770000Y-54270000D01*
X163050000Y-55540000D02*
X163050000Y-57090000D01*
X163050000Y-57090000D02*
X159950000Y-57090000D01*
X162770000Y-54270000D02*
X162770000Y-51730000D01*
X162770000Y-51730000D02*
X160230000Y-51730000D01*
X163730000Y-96730000D02*
X158650000Y-96730000D01*
X158650000Y-96730000D02*
X158650000Y-99270000D01*
X158650000Y-99270000D02*
X163730000Y-99270000D01*
X166550000Y-99550000D02*
X165000000Y-99550000D01*
X163730000Y-99270000D02*
X163730000Y-96730000D01*
X165000000Y-96450000D02*
X166550000Y-96450000D01*
X166550000Y-96450000D02*
X166550000Y-99550000D01*
X155270000Y-85770000D02*
X155270000Y-80690000D01*
X155270000Y-80690000D02*
X152730000Y-80690000D01*
X152730000Y-80690000D02*
X152730000Y-85770000D01*
X152450000Y-88590000D02*
X152450000Y-87040000D01*
X152730000Y-85770000D02*
X155270000Y-85770000D01*
X155550000Y-87040000D02*
X155550000Y-88590000D01*
X155550000Y-88590000D02*
X152450000Y-88590000D01*
X158875000Y-75675000D02*
X159125000Y-75675000D01*
X159125000Y-75675000D02*
X159125000Y-76325000D01*
X159125000Y-76325000D02*
X158875000Y-76325000D01*
X158875000Y-76325000D02*
X158875000Y-75675000D01*
X153875000Y-61675000D02*
X154125000Y-61675000D01*
X154125000Y-61675000D02*
X154125000Y-62325000D01*
X154125000Y-62325000D02*
X153875000Y-62325000D01*
X153875000Y-62325000D02*
X153875000Y-61675000D01*
X154125000Y-63825000D02*
X153875000Y-63825000D01*
X153875000Y-63825000D02*
X153875000Y-63175000D01*
X153875000Y-63175000D02*
X154125000Y-63175000D01*
X154125000Y-63175000D02*
X154125000Y-63825000D01*
X158875000Y-74175000D02*
X159125000Y-74175000D01*
X159125000Y-74175000D02*
X159125000Y-74825000D01*
X159125000Y-74825000D02*
X158875000Y-74825000D01*
X158875000Y-74825000D02*
X158875000Y-74175000D01*
X161125000Y-95325000D02*
X160875000Y-95325000D01*
X160875000Y-95325000D02*
X160875000Y-94675000D01*
X160875000Y-94675000D02*
X161125000Y-94675000D01*
X161125000Y-94675000D02*
X161125000Y-95325000D01*
X164375000Y-94675000D02*
X164625000Y-94675000D01*
X164625000Y-94675000D02*
X164625000Y-95325000D01*
X164625000Y-95325000D02*
X164375000Y-95325000D01*
X164375000Y-95325000D02*
X164375000Y-94675000D01*
X169730000Y-99270000D02*
X174810000Y-99270000D01*
X174810000Y-99270000D02*
X174810000Y-96730000D01*
X174810000Y-96730000D02*
X169730000Y-96730000D01*
X166910000Y-96450000D02*
X168460000Y-96450000D01*
X169730000Y-96730000D02*
X169730000Y-99270000D01*
X168460000Y-99550000D02*
X166910000Y-99550000D01*
X166910000Y-99550000D02*
X166910000Y-96450000D01*
X186690000Y-99270000D02*
X191770000Y-99270000D01*
X191770000Y-99270000D02*
X191770000Y-96730000D01*
X191770000Y-96730000D02*
X186690000Y-96730000D01*
X183870000Y-96450000D02*
X185420000Y-96450000D01*
X186690000Y-96730000D02*
X186690000Y-99270000D01*
X185420000Y-99550000D02*
X183870000Y-99550000D01*
X183870000Y-99550000D02*
X183870000Y-96450000D01*
X178230000Y-99270000D02*
X183310000Y-99270000D01*
X183310000Y-99270000D02*
X183310000Y-96730000D01*
X183310000Y-96730000D02*
X178230000Y-96730000D01*
X175410000Y-96450000D02*
X176960000Y-96450000D01*
X178230000Y-96730000D02*
X178230000Y-99270000D01*
X176960000Y-99550000D02*
X175410000Y-99550000D01*
X175410000Y-99550000D02*
X175410000Y-96450000D01*
X156230000Y-83230000D02*
X156230000Y-88310000D01*
X156230000Y-88310000D02*
X158770000Y-88310000D01*
X158770000Y-88310000D02*
X158770000Y-83230000D01*
X159050000Y-80410000D02*
X159050000Y-81960000D01*
X158770000Y-83230000D02*
X156230000Y-83230000D01*
X155950000Y-81960000D02*
X155950000Y-80410000D01*
X155950000Y-80410000D02*
X159050000Y-80410000D01*
X165770000Y-54570000D02*
X165770000Y-57110000D01*
X166050000Y-51750000D02*
X166050000Y-53300000D01*
X165770000Y-54570000D02*
X163230000Y-54570000D01*
X162950000Y-53300000D02*
X162950000Y-51750000D01*
X162950000Y-51750000D02*
X166050000Y-51750000D01*
X163230000Y-54570000D02*
X163230000Y-57110000D01*
X163230000Y-57110000D02*
X165770000Y-57110000D01*
X171397000Y-58826000D02*
X171397000Y-62001000D01*
X171397000Y-62001000D02*
X173175000Y-62001000D01*
X173175000Y-62001000D02*
X173175000Y-58826000D01*
X166825000Y-58826000D02*
X166825000Y-62001000D01*
X166825000Y-62001000D02*
X168603000Y-62001000D01*
X168603000Y-62001000D02*
X168603000Y-58826000D01*
X173429000Y-52730000D02*
X173429000Y-58826000D01*
X173429000Y-58826000D02*
X166571000Y-58826000D01*
X166571000Y-58826000D02*
X166571000Y-50952000D01*
X166571000Y-50825000D02*
X173429000Y-50825000D01*
X173429000Y-50952000D02*
X173429000Y-52730000D01*
X158095000Y-70325000D02*
X158095000Y-68075000D01*
X158095000Y-68075000D02*
X161905000Y-68075000D01*
X161905000Y-68075000D02*
X161905000Y-70925000D01*
X161905000Y-70925000D02*
X158695000Y-70925000D01*
X158695000Y-70925000D02*
X158095000Y-70325000D01*
X197746000Y-69016000D02*
X197746000Y-84256000D01*
X197746000Y-84256000D02*
X195206000Y-84256000D01*
X195206000Y-84256000D02*
X195206000Y-69016000D01*
X198026000Y-66196000D02*
X198026000Y-67746000D01*
X197746000Y-69016000D02*
X195206000Y-69016000D01*
X194926000Y-67746000D02*
X194926000Y-66196000D01*
X194926000Y-66196000D02*
X198026000Y-66196000D01*
X193651000Y-69371000D02*
X193651000Y-69121000D01*
X193651000Y-69121000D02*
X194301000Y-69121000D01*
X194301000Y-69121000D02*
X194301000Y-69371000D01*
X194301000Y-69371000D02*
X193651000Y-69371000D01*
M02*
