  0
SECTION
  2
HEADER
  9
$ANGBASE
  50
0.0
  9
$ANGDIR
  70
  1
  9
$MEASUREMENT
  70
0
  0
ENDSEC
  0
SECTION
  2
TABLES
  0
TABLE
  2
LTYPE
  70
1
  0
LTYPE
  2
CONTINUOUS
  70
0
  3
Solid line
  72
65
  73
0
  40
0.0
  0
ENDTAB
  0
TABLE
  2
STYLE
  70
4
  0
STYLE
  2
KICAD
  70
0
  40
0
  41
1
  42
1
  50
0
  71
0
  3
isocp.shx
  0
STYLE
  2
KICADB
  70
0
  40
0
  41
1
  42
1
  50
0
  71
0
  3
isocp.shx
  0
STYLE
  2
KICADI
  70
0
  40
0
  41
1
  42
1
  50
15
  71
0
  3
isocp.shx
  0
STYLE
  2
KICADBI
  70
0
  40
0
  41
1
  42
1
  50
15
  71
0
  3
isocp.shx
  0
ENDTAB
  0
TABLE
  2
LAYER
  70
30
  0
LAYER
  2
BLACK
  70
0
  62
7
  6
CONTINUOUS
  0
LAYER
  2
GRAY1
  70
0
  62
251
  6
CONTINUOUS
  0
LAYER
  2
GRAY2
  70
0
  62
8
  6
CONTINUOUS
  0
LAYER
  2
GRAY3
  70
0
  62
9
  6
CONTINUOUS
  0
LAYER
  2
WHITE
  70
0
  62
7
  6
CONTINUOUS
  0
LAYER
  2
LYELLOW
  70
0
  62
51
  6
CONTINUOUS
  0
LAYER
  2
BLUE1
  70
0
  62
178
  6
CONTINUOUS
  0
LAYER
  2
GREEN1
  70
0
  62
98
  6
CONTINUOUS
  0
LAYER
  2
CYAN1
  70
0
  62
138
  6
CONTINUOUS
  0
LAYER
  2
RED1
  70
0
  62
18
  6
CONTINUOUS
  0
LAYER
  2
MAGENTA1
  70
0
  62
228
  6
CONTINUOUS
  0
LAYER
  2
BROWN1
  70
0
  62
58
  6
CONTINUOUS
  0
LAYER
  2
BLUE2
  70
0
  62
5
  6
CONTINUOUS
  0
LAYER
  2
GREEN2
  70
0
  62
3
  6
CONTINUOUS
  0
LAYER
  2
CYAN2
  70
0
  62
4
  6
CONTINUOUS
  0
LAYER
  2
RED2
  70
0
  62
1
  6
CONTINUOUS
  0
LAYER
  2
MAGENTA2
  70
0
  62
6
  6
CONTINUOUS
  0
LAYER
  2
BROWN2
  70
0
  62
54
  6
CONTINUOUS
  0
LAYER
  2
BLUE3
  70
0
  62
171
  6
CONTINUOUS
  0
LAYER
  2
GREEN3
  70
0
  62
91
  6
CONTINUOUS
  0
LAYER
  2
CYAN3
  70
0
  62
131
  6
CONTINUOUS
  0
LAYER
  2
RED3
  70
0
  62
11
  6
CONTINUOUS
  0
LAYER
  2
MAGENTA3
  70
0
  62
221
  6
CONTINUOUS
  0
LAYER
  2
YELLOW3
  70
0
  62
2
  6
CONTINUOUS
  0
LAYER
  2
BLUE4
  70
0
  62
5
  6
CONTINUOUS
  0
LAYER
  2
GREEN4
  70
0
  62
3
  6
CONTINUOUS
  0
LAYER
  2
CYAN4
  70
0
  62
4
  6
CONTINUOUS
  0
LAYER
  2
RED4
  70
0
  62
1
  6
CONTINUOUS
  0
LAYER
  2
MAGENTA4
  70
0
  62
6
  6
CONTINUOUS
  0
LAYER
  2
YELLOW4
  70
0
  62
2
  6
CONTINUOUS
  0
ENDTAB
  0
ENDSEC
  0
SECTION
  2
ENTITIES
0
LINE
8
Black
10
165.775
20
-95.5
11
164.825
21
-95.5
0
LINE
8
Black
10
164.825
20
-95.5
11
164.825
21
-94.5
0
LINE
8
Black
10
164.825
20
-94.5
11
165.775
21
-94.5
0
LINE
8
Black
10
165.775
20
-94.5
11
165.775
21
-95.5
0
LINE
8
Black
10
164.175
20
-95.5
11
163.225
21
-95.5
0
LINE
8
Black
10
163.225
20
-95.5
11
163.225
21
-94.5
0
LINE
8
Black
10
163.225
20
-94.5
11
164.175
21
-94.5
0
LINE
8
Black
10
164.175
20
-94.5
11
164.175
21
-95.5
0
LINE
8
Black
10
160.675
20
-95.5
11
159.725
21
-95.5
0
LINE
8
Black
10
159.725
20
-95.5
11
159.725
21
-94.5
0
LINE
8
Black
10
159.725
20
-94.5
11
160.675
21
-94.5
0
LINE
8
Black
10
160.675
20
-94.5
11
160.675
21
-95.5
0
LINE
8
Black
10
162.275
20
-95.5
11
161.325
21
-95.5
0
LINE
8
Black
10
161.325
20
-95.5
11
161.325
21
-94.5
0
LINE
8
Black
10
161.325
20
-94.5
11
162.275
21
-94.5
0
LINE
8
Black
10
162.275
20
-94.5
11
162.275
21
-95.5
0
LINE
8
Black
10
175.375
20
-92.5
11
174.425
21
-92.5
0
LINE
8
Black
10
174.425
20
-92.5
11
174.425
21
-91.5
0
LINE
8
Black
10
174.425
20
-91.5
11
175.375
21
-91.5
0
LINE
8
Black
10
175.375
20
-91.5
11
175.375
21
-92.5
0
LINE
8
Black
10
176.975
20
-92.5
11
176.025
21
-92.5
0
LINE
8
Black
10
176.025
20
-92.5
11
176.025
21
-91.5
0
LINE
8
Black
10
176.025
20
-91.5
11
176.975
21
-91.5
0
LINE
8
Black
10
176.975
20
-91.5
11
176.975
21
-92.5
0
LINE
8
Black
10
182
20
-91.275
11
181
21
-91.275
0
LINE
8
Black
10
181
20
-91.275
11
181
21
-90.325
0
LINE
8
Black
10
181
20
-90.325
11
182
21
-90.325
0
LINE
8
Black
10
182
20
-90.325
11
182
21
-91.275
0
LINE
8
Black
10
175.372
20
-90.2154
11
174.422
21
-90.2154
0
LINE
8
Black
10
174.422
20
-90.2154
11
174.422
21
-89.2154
0
LINE
8
Black
10
174.422
20
-89.2154
11
175.372
21
-89.2154
0
LINE
8
Black
10
175.372
20
-89.2154
11
175.372
21
-90.2154
0
LINE
8
Black
10
176.972
20
-90.2154
11
176.022
21
-90.2154
0
LINE
8
Black
10
176.022
20
-90.2154
11
176.022
21
-89.2154
0
LINE
8
Black
10
176.022
20
-89.2154
11
176.972
21
-89.2154
0
LINE
8
Black
10
176.972
20
-89.2154
11
176.972
21
-90.2154
0
LINE
8
Black
10
185.275
20
-90
11
184.325
21
-90
0
LINE
8
Black
10
184.325
20
-90
11
184.325
21
-89
0
LINE
8
Black
10
184.325
20
-89
11
185.275
21
-89
0
LINE
8
Black
10
185.275
20
-89
11
185.275
21
-90
0
LINE
8
Black
10
183.675
20
-90
11
182.725
21
-90
0
LINE
8
Black
10
182.725
20
-90
11
182.725
21
-89
0
LINE
8
Black
10
182.725
20
-89
11
183.675
21
-89
0
LINE
8
Black
10
183.675
20
-89
11
183.675
21
-90
0
LINE
8
Black
10
182
20
-89.675
11
181
21
-89.675
0
LINE
8
Black
10
181
20
-89.675
11
181
21
-88.725
0
LINE
8
Black
10
181
20
-88.725
11
182
21
-88.725
0
LINE
8
Black
10
182
20
-88.725
11
182
21
-89.675
0
LINE
8
Black
10
178.9
20
-87.95
11
178.6
21
-87.95
0
LINE
8
Black
10
178.6
20
-87.95
11
178.6
21
-86.45
0
LINE
8
Black
10
178.6
20
-86.45
11
178.9
21
-86.45
0
LINE
8
Black
10
178.9
20
-86.45
11
178.9
21
-87.95
0
LINE
8
Black
10
179.4
20
-87.95
11
179.1
21
-87.95
0
LINE
8
Black
10
179.1
20
-87.95
11
179.1
21
-86.45
0
LINE
8
Black
10
179.1
20
-86.45
11
179.4
21
-86.45
0
LINE
8
Black
10
179.4
20
-86.45
11
179.4
21
-87.95
0
LINE
8
Black
10
179.9
20
-87.95
11
179.6
21
-87.95
0
LINE
8
Black
10
179.6
20
-87.95
11
179.6
21
-86.45
0
LINE
8
Black
10
179.6
20
-86.45
11
179.9
21
-86.45
0
LINE
8
Black
10
179.9
20
-86.45
11
179.9
21
-87.95
0
LINE
8
Black
10
180.4
20
-87.95
11
180.1
21
-87.95
0
LINE
8
Black
10
180.1
20
-87.95
11
180.1
21
-86.45
0
LINE
8
Black
10
180.1
20
-86.45
11
180.4
21
-86.45
0
LINE
8
Black
10
180.4
20
-86.45
11
180.4
21
-87.95
0
LINE
8
Black
10
178.4
20
-87.95
11
178.1
21
-87.95
0
LINE
8
Black
10
178.1
20
-87.95
11
178.1
21
-86.45
0
LINE
8
Black
10
178.1
20
-86.45
11
178.4
21
-86.45
0
LINE
8
Black
10
178.4
20
-86.45
11
178.4
21
-87.95
0
LINE
8
Black
10
177.9
20
-87.95
11
177.6
21
-87.95
0
LINE
8
Black
10
177.6
20
-87.95
11
177.6
21
-86.45
0
LINE
8
Black
10
177.6
20
-86.45
11
177.9
21
-86.45
0
LINE
8
Black
10
177.9
20
-86.45
11
177.9
21
-87.95
0
LINE
8
Black
10
180.9
20
-87.95
11
180.6
21
-87.95
0
LINE
8
Black
10
180.6
20
-87.95
11
180.6
21
-86.45
0
LINE
8
Black
10
180.6
20
-86.45
11
180.9
21
-86.45
0
LINE
8
Black
10
180.9
20
-86.45
11
180.9
21
-87.95
0
LINE
8
Black
10
181.4
20
-87.95
11
181.1
21
-87.95
0
LINE
8
Black
10
181.1
20
-87.95
11
181.1
21
-86.45
0
LINE
8
Black
10
181.1
20
-86.45
11
181.4
21
-86.45
0
LINE
8
Black
10
181.4
20
-86.45
11
181.4
21
-87.95
0
LINE
8
Black
10
174.9
20
-87.95
11
174.6
21
-87.95
0
LINE
8
Black
10
174.6
20
-87.95
11
174.6
21
-86.45
0
LINE
8
Black
10
174.6
20
-86.45
11
174.9
21
-86.45
0
LINE
8
Black
10
174.9
20
-86.45
11
174.9
21
-87.95
0
LINE
8
Black
10
175.4
20
-87.95
11
175.1
21
-87.95
0
LINE
8
Black
10
175.1
20
-87.95
11
175.1
21
-86.45
0
LINE
8
Black
10
175.1
20
-86.45
11
175.4
21
-86.45
0
LINE
8
Black
10
175.4
20
-86.45
11
175.4
21
-87.95
0
LINE
8
Black
10
181.9
20
-87.95
11
181.6
21
-87.95
0
LINE
8
Black
10
181.6
20
-87.95
11
181.6
21
-86.45
0
LINE
8
Black
10
181.6
20
-86.45
11
181.9
21
-86.45
0
LINE
8
Black
10
181.9
20
-86.45
11
181.9
21
-87.95
0
LINE
8
Black
10
182.4
20
-87.95
11
182.1
21
-87.95
0
LINE
8
Black
10
182.1
20
-87.95
11
182.1
21
-86.45
0
LINE
8
Black
10
182.1
20
-86.45
11
182.4
21
-86.45
0
LINE
8
Black
10
182.4
20
-86.45
11
182.4
21
-87.95
0
LINE
8
Black
10
175.9
20
-87.95
11
175.6
21
-87.95
0
LINE
8
Black
10
175.6
20
-87.95
11
175.6
21
-86.45
0
LINE
8
Black
10
175.6
20
-86.45
11
175.9
21
-86.45
0
LINE
8
Black
10
175.9
20
-86.45
11
175.9
21
-87.95
0
LINE
8
Black
10
176.4
20
-87.95
11
176.1
21
-87.95
0
LINE
8
Black
10
176.1
20
-87.95
11
176.1
21
-86.45
0
LINE
8
Black
10
176.1
20
-86.45
11
176.4
21
-86.45
0
LINE
8
Black
10
176.4
20
-86.45
11
176.4
21
-87.95
0
LINE
8
Black
10
177.4
20
-87.95
11
177.1
21
-87.95
0
LINE
8
Black
10
177.1
20
-87.95
11
177.1
21
-86.45
0
LINE
8
Black
10
177.1
20
-86.45
11
177.4
21
-86.45
0
LINE
8
Black
10
177.4
20
-86.45
11
177.4
21
-87.95
0
LINE
8
Black
10
176.9
20
-87.95
11
176.6
21
-87.95
0
LINE
8
Black
10
176.6
20
-87.95
11
176.6
21
-86.45
0
LINE
8
Black
10
176.6
20
-86.45
11
176.9
21
-86.45
0
LINE
8
Black
10
176.9
20
-86.45
11
176.9
21
-87.95
0
LINE
8
Black
10
173.55
20
-85.4
11
172.05
21
-85.4
0
LINE
8
Black
10
172.05
20
-85.4
11
172.05
21
-85.1
0
LINE
8
Black
10
172.05
20
-85.1
11
173.55
21
-85.1
0
LINE
8
Black
10
173.55
20
-85.1
11
173.55
21
-85.4
0
LINE
8
Black
10
184.95
20
-85.4
11
183.45
21
-85.4
0
LINE
8
Black
10
183.45
20
-85.4
11
183.45
21
-85.1
0
LINE
8
Black
10
183.45
20
-85.1
11
184.95
21
-85.1
0
LINE
8
Black
10
184.95
20
-85.1
11
184.95
21
-85.4
0
LINE
8
Black
10
171
20
-85.075
11
170
21
-85.075
0
LINE
8
Black
10
170
20
-85.075
11
170
21
-84.125
0
LINE
8
Black
10
170
20
-84.125
11
171
21
-84.125
0
LINE
8
Black
10
171
20
-84.125
11
171
21
-85.075
0
LINE
8
Black
10
169.5
20
-85.075
11
168.5
21
-85.075
0
LINE
8
Black
10
168.5
20
-85.075
11
168.5
21
-84.125
0
LINE
8
Black
10
168.5
20
-84.125
11
169.5
21
-84.125
0
LINE
8
Black
10
169.5
20
-84.125
11
169.5
21
-85.075
0
LINE
8
Black
10
184.95
20
-84.9
11
183.45
21
-84.9
0
LINE
8
Black
10
183.45
20
-84.9
11
183.45
21
-84.6
0
LINE
8
Black
10
183.45
20
-84.6
11
184.95
21
-84.6
0
LINE
8
Black
10
184.95
20
-84.6
11
184.95
21
-84.9
0
LINE
8
Black
10
173.55
20
-84.9
11
172.05
21
-84.9
0
LINE
8
Black
10
172.05
20
-84.9
11
172.05
21
-84.6
0
LINE
8
Black
10
172.05
20
-84.6
11
173.55
21
-84.6
0
LINE
8
Black
10
173.55
20
-84.6
11
173.55
21
-84.9
0
LINE
8
Black
10
184.95
20
-84.4
11
183.45
21
-84.4
0
LINE
8
Black
10
183.45
20
-84.4
11
183.45
21
-84.1
0
LINE
8
Black
10
183.45
20
-84.1
11
184.95
21
-84.1
0
LINE
8
Black
10
184.95
20
-84.1
11
184.95
21
-84.4
0
LINE
8
Black
10
173.55
20
-84.4
11
172.05
21
-84.4
0
LINE
8
Black
10
172.05
20
-84.4
11
172.05
21
-84.1
0
LINE
8
Black
10
172.05
20
-84.1
11
173.55
21
-84.1
0
LINE
8
Black
10
173.55
20
-84.1
11
173.55
21
-84.4
0
LINE
8
Black
10
184.95
20
-83.9
11
183.45
21
-83.9
0
LINE
8
Black
10
183.45
20
-83.9
11
183.45
21
-83.6
0
LINE
8
Black
10
183.45
20
-83.6
11
184.95
21
-83.6
0
LINE
8
Black
10
184.95
20
-83.6
11
184.95
21
-83.9
0
LINE
8
Black
10
173.55
20
-83.9
11
172.05
21
-83.9
0
LINE
8
Black
10
172.05
20
-83.9
11
172.05
21
-83.6
0
LINE
8
Black
10
172.05
20
-83.6
11
173.55
21
-83.6
0
LINE
8
Black
10
173.55
20
-83.6
11
173.55
21
-83.9
0
LINE
8
Black
10
171
20
-83.475
11
170
21
-83.475
0
LINE
8
Black
10
170
20
-83.475
11
170
21
-82.525
0
LINE
8
Black
10
170
20
-82.525
11
171
21
-82.525
0
LINE
8
Black
10
171
20
-82.525
11
171
21
-83.475
0
LINE
8
Black
10
169.5
20
-83.475
11
168.5
21
-83.475
0
LINE
8
Black
10
168.5
20
-83.475
11
168.5
21
-82.525
0
LINE
8
Black
10
168.5
20
-82.525
11
169.5
21
-82.525
0
LINE
8
Black
10
169.5
20
-82.525
11
169.5
21
-83.475
0
LINE
8
Black
10
184.95
20
-83.4
11
183.45
21
-83.4
0
LINE
8
Black
10
183.45
20
-83.4
11
183.45
21
-83.1
0
LINE
8
Black
10
183.45
20
-83.1
11
184.95
21
-83.1
0
LINE
8
Black
10
184.95
20
-83.1
11
184.95
21
-83.4
0
LINE
8
Black
10
173.55
20
-83.4
11
172.05
21
-83.4
0
LINE
8
Black
10
172.05
20
-83.4
11
172.05
21
-83.1
0
LINE
8
Black
10
172.05
20
-83.1
11
173.55
21
-83.1
0
LINE
8
Black
10
173.55
20
-83.1
11
173.55
21
-83.4
0
LINE
8
Black
10
184.95
20
-82.9
11
183.45
21
-82.9
0
LINE
8
Black
10
183.45
20
-82.9
11
183.45
21
-82.6
0
LINE
8
Black
10
183.45
20
-82.6
11
184.95
21
-82.6
0
LINE
8
Black
10
184.95
20
-82.6
11
184.95
21
-82.9
0
LINE
8
Black
10
173.55
20
-82.9
11
172.05
21
-82.9
0
LINE
8
Black
10
172.05
20
-82.9
11
172.05
21
-82.6
0
LINE
8
Black
10
172.05
20
-82.6
11
173.55
21
-82.6
0
LINE
8
Black
10
173.55
20
-82.6
11
173.55
21
-82.9
0
LINE
8
Black
10
173.55
20
-82.4
11
172.05
21
-82.4
0
LINE
8
Black
10
172.05
20
-82.4
11
172.05
21
-82.1
0
LINE
8
Black
10
172.05
20
-82.1
11
173.55
21
-82.1
0
LINE
8
Black
10
173.55
20
-82.1
11
173.55
21
-82.4
0
LINE
8
Black
10
184.95
20
-82.4
11
183.45
21
-82.4
0
LINE
8
Black
10
183.45
20
-82.4
11
183.45
21
-82.1
0
LINE
8
Black
10
183.45
20
-82.1
11
184.95
21
-82.1
0
LINE
8
Black
10
184.95
20
-82.1
11
184.95
21
-82.4
0
LINE
8
Black
10
173.55
20
-81.9
11
172.05
21
-81.9
0
LINE
8
Black
10
172.05
20
-81.9
11
172.05
21
-81.6
0
LINE
8
Black
10
172.05
20
-81.6
11
173.55
21
-81.6
0
LINE
8
Black
10
173.55
20
-81.6
11
173.55
21
-81.9
0
LINE
8
Black
10
184.95
20
-81.9
11
183.45
21
-81.9
0
LINE
8
Black
10
183.45
20
-81.9
11
183.45
21
-81.6
0
LINE
8
Black
10
183.45
20
-81.6
11
184.95
21
-81.6
0
LINE
8
Black
10
184.95
20
-81.6
11
184.95
21
-81.9
0
LINE
8
Black
10
173.55
20
-81.4
11
172.05
21
-81.4
0
LINE
8
Black
10
172.05
20
-81.4
11
172.05
21
-81.1
0
LINE
8
Black
10
172.05
20
-81.1
11
173.55
21
-81.1
0
LINE
8
Black
10
173.55
20
-81.1
11
173.55
21
-81.4
0
LINE
8
Black
10
184.95
20
-81.4
11
183.45
21
-81.4
0
LINE
8
Black
10
183.45
20
-81.4
11
183.45
21
-81.1
0
LINE
8
Black
10
183.45
20
-81.1
11
184.95
21
-81.1
0
LINE
8
Black
10
184.95
20
-81.1
11
184.95
21
-81.4
0
LINE
8
Black
10
173.55
20
-80.9
11
172.05
21
-80.9
0
LINE
8
Black
10
172.05
20
-80.9
11
172.05
21
-80.6
0
LINE
8
Black
10
172.05
20
-80.6
11
173.55
21
-80.6
0
LINE
8
Black
10
173.55
20
-80.6
11
173.55
21
-80.9
0
LINE
8
Black
10
184.95
20
-80.9
11
183.45
21
-80.9
0
LINE
8
Black
10
183.45
20
-80.9
11
183.45
21
-80.6
0
LINE
8
Black
10
183.45
20
-80.6
11
184.95
21
-80.6
0
LINE
8
Black
10
184.95
20
-80.6
11
184.95
21
-80.9
0
LINE
8
Black
10
173.55
20
-80.4
11
172.05
21
-80.4
0
LINE
8
Black
10
172.05
20
-80.4
11
172.05
21
-80.1
0
LINE
8
Black
10
172.05
20
-80.1
11
173.55
21
-80.1
0
LINE
8
Black
10
173.55
20
-80.1
11
173.55
21
-80.4
0
LINE
8
Black
10
184.95
20
-80.4
11
183.45
21
-80.4
0
LINE
8
Black
10
183.45
20
-80.4
11
183.45
21
-80.1
0
LINE
8
Black
10
183.45
20
-80.1
11
184.95
21
-80.1
0
LINE
8
Black
10
184.95
20
-80.1
11
184.95
21
-80.4
0
LINE
8
Black
10
173.55
20
-79.9
11
172.05
21
-79.9
0
LINE
8
Black
10
172.05
20
-79.9
11
172.05
21
-79.6
0
LINE
8
Black
10
172.05
20
-79.6
11
173.55
21
-79.6
0
LINE
8
Black
10
173.55
20
-79.6
11
173.55
21
-79.9
0
LINE
8
Black
10
184.95
20
-79.9
11
183.45
21
-79.9
0
LINE
8
Black
10
183.45
20
-79.9
11
183.45
21
-79.6
0
LINE
8
Black
10
183.45
20
-79.6
11
184.95
21
-79.6
0
LINE
8
Black
10
184.95
20
-79.6
11
184.95
21
-79.9
0
LINE
8
Black
10
171.442
20
-79.507
11
170.442
21
-79.507
0
LINE
8
Black
10
170.442
20
-79.507
11
170.442
21
-78.557
0
LINE
8
Black
10
170.442
20
-78.557
11
171.442
21
-78.557
0
LINE
8
Black
10
171.442
20
-78.557
11
171.442
21
-79.507
0
LINE
8
Black
10
184.95
20
-79.4
11
183.45
21
-79.4
0
LINE
8
Black
10
183.45
20
-79.4
11
183.45
21
-79.1
0
LINE
8
Black
10
183.45
20
-79.1
11
184.95
21
-79.1
0
LINE
8
Black
10
184.95
20
-79.1
11
184.95
21
-79.4
0
LINE
8
Black
10
173.55
20
-79.4
11
172.05
21
-79.4
0
LINE
8
Black
10
172.05
20
-79.4
11
172.05
21
-79.1
0
LINE
8
Black
10
172.05
20
-79.1
11
173.55
21
-79.1
0
LINE
8
Black
10
173.55
20
-79.1
11
173.55
21
-79.4
0
LINE
8
Black
10
188.275
20
-79
11
187.325
21
-79
0
LINE
8
Black
10
187.325
20
-79
11
187.325
21
-78
0
LINE
8
Black
10
187.325
20
-78
11
188.275
21
-78
0
LINE
8
Black
10
188.275
20
-78
11
188.275
21
-79
0
LINE
8
Black
10
186.675
20
-79
11
185.725
21
-79
0
LINE
8
Black
10
185.725
20
-79
11
185.725
21
-78
0
LINE
8
Black
10
185.725
20
-78
11
186.675
21
-78
0
LINE
8
Black
10
186.675
20
-78
11
186.675
21
-79
0
LINE
8
Black
10
184.95
20
-78.9
11
183.45
21
-78.9
0
LINE
8
Black
10
183.45
20
-78.9
11
183.45
21
-78.6
0
LINE
8
Black
10
183.45
20
-78.6
11
184.95
21
-78.6
0
LINE
8
Black
10
184.95
20
-78.6
11
184.95
21
-78.9
0
LINE
8
Black
10
173.55
20
-78.9
11
172.05
21
-78.9
0
LINE
8
Black
10
172.05
20
-78.9
11
172.05
21
-78.6
0
LINE
8
Black
10
172.05
20
-78.6
11
173.55
21
-78.6
0
LINE
8
Black
10
173.55
20
-78.6
11
173.55
21
-78.9
0
LINE
8
Black
10
184.95
20
-78.4
11
183.45
21
-78.4
0
LINE
8
Black
10
183.45
20
-78.4
11
183.45
21
-78.1
0
LINE
8
Black
10
183.45
20
-78.1
11
184.95
21
-78.1
0
LINE
8
Black
10
184.95
20
-78.1
11
184.95
21
-78.4
0
LINE
8
Black
10
173.55
20
-78.4
11
172.05
21
-78.4
0
LINE
8
Black
10
172.05
20
-78.4
11
172.05
21
-78.1
0
LINE
8
Black
10
172.05
20
-78.1
11
173.55
21
-78.1
0
LINE
8
Black
10
173.55
20
-78.1
11
173.55
21
-78.4
0
LINE
8
Black
10
171.442
20
-77.907
11
170.442
21
-77.907
0
LINE
8
Black
10
170.442
20
-77.907
11
170.442
21
-76.957
0
LINE
8
Black
10
170.442
20
-76.957
11
171.442
21
-76.957
0
LINE
8
Black
10
171.442
20
-76.957
11
171.442
21
-77.907
0
LINE
8
Black
10
184.95
20
-77.9
11
183.45
21
-77.9
0
LINE
8
Black
10
183.45
20
-77.9
11
183.45
21
-77.6
0
LINE
8
Black
10
183.45
20
-77.6
11
184.95
21
-77.6
0
LINE
8
Black
10
184.95
20
-77.6
11
184.95
21
-77.9
0
LINE
8
Black
10
173.55
20
-77.9
11
172.05
21
-77.9
0
LINE
8
Black
10
172.05
20
-77.9
11
172.05
21
-77.6
0
LINE
8
Black
10
172.05
20
-77.6
11
173.55
21
-77.6
0
LINE
8
Black
10
173.55
20
-77.6
11
173.55
21
-77.9
0
LINE
8
Black
10
186.675
20
-77.5
11
185.725
21
-77.5
0
LINE
8
Black
10
185.725
20
-77.5
11
185.725
21
-76.5
0
LINE
8
Black
10
185.725
20
-76.5
11
186.675
21
-76.5
0
LINE
8
Black
10
186.675
20
-76.5
11
186.675
21
-77.5
0
LINE
8
Black
10
188.275
20
-77.5
11
187.325
21
-77.5
0
LINE
8
Black
10
187.325
20
-77.5
11
187.325
21
-76.5
0
LINE
8
Black
10
187.325
20
-76.5
11
188.275
21
-76.5
0
LINE
8
Black
10
188.275
20
-76.5
11
188.275
21
-77.5
0
LINE
8
Black
10
164.43
20
-77.438
11
163.23
21
-77.438
0
LINE
8
Black
10
163.23
20
-77.438
11
163.23
21
-76.238
0
LINE
8
Black
10
163.23
20
-76.238
11
164.43
21
-76.238
0
LINE
8
Black
10
164.43
20
-76.238
11
164.43
21
-77.438
0
LINE
8
Black
10
179.4
20
-76.55
11
179.1
21
-76.55
0
LINE
8
Black
10
179.1
20
-76.55
11
179.1
21
-75.05
0
LINE
8
Black
10
179.1
20
-75.05
11
179.4
21
-75.05
0
LINE
8
Black
10
179.4
20
-75.05
11
179.4
21
-76.55
0
LINE
8
Black
10
179.9
20
-76.55
11
179.6
21
-76.55
0
LINE
8
Black
10
179.6
20
-76.55
11
179.6
21
-75.05
0
LINE
8
Black
10
179.6
20
-75.05
11
179.9
21
-75.05
0
LINE
8
Black
10
179.9
20
-75.05
11
179.9
21
-76.55
0
LINE
8
Black
10
180.4
20
-76.55
11
180.1
21
-76.55
0
LINE
8
Black
10
180.1
20
-76.55
11
180.1
21
-75.05
0
LINE
8
Black
10
180.1
20
-75.05
11
180.4
21
-75.05
0
LINE
8
Black
10
180.4
20
-75.05
11
180.4
21
-76.55
0
LINE
8
Black
10
180.9
20
-76.55
11
180.6
21
-76.55
0
LINE
8
Black
10
180.6
20
-76.55
11
180.6
21
-75.05
0
LINE
8
Black
10
180.6
20
-75.05
11
180.9
21
-75.05
0
LINE
8
Black
10
180.9
20
-75.05
11
180.9
21
-76.55
0
LINE
8
Black
10
181.4
20
-76.55
11
181.1
21
-76.55
0
LINE
8
Black
10
181.1
20
-76.55
11
181.1
21
-75.05
0
LINE
8
Black
10
181.1
20
-75.05
11
181.4
21
-75.05
0
LINE
8
Black
10
181.4
20
-75.05
11
181.4
21
-76.55
0
LINE
8
Black
10
181.9
20
-76.55
11
181.6
21
-76.55
0
LINE
8
Black
10
181.6
20
-76.55
11
181.6
21
-75.05
0
LINE
8
Black
10
181.6
20
-75.05
11
181.9
21
-75.05
0
LINE
8
Black
10
181.9
20
-75.05
11
181.9
21
-76.55
0
LINE
8
Black
10
182.4
20
-76.55
11
182.1
21
-76.55
0
LINE
8
Black
10
182.1
20
-76.55
11
182.1
21
-75.05
0
LINE
8
Black
10
182.1
20
-75.05
11
182.4
21
-75.05
0
LINE
8
Black
10
182.4
20
-75.05
11
182.4
21
-76.55
0
LINE
8
Black
10
178.9
20
-76.55
11
178.6
21
-76.55
0
LINE
8
Black
10
178.6
20
-76.55
11
178.6
21
-75.05
0
LINE
8
Black
10
178.6
20
-75.05
11
178.9
21
-75.05
0
LINE
8
Black
10
178.9
20
-75.05
11
178.9
21
-76.55
0
LINE
8
Black
10
178.4
20
-76.55
11
178.1
21
-76.55
0
LINE
8
Black
10
178.1
20
-76.55
11
178.1
21
-75.05
0
LINE
8
Black
10
178.1
20
-75.05
11
178.4
21
-75.05
0
LINE
8
Black
10
178.4
20
-75.05
11
178.4
21
-76.55
0
LINE
8
Black
10
177.9
20
-76.55
11
177.6
21
-76.55
0
LINE
8
Black
10
177.6
20
-76.55
11
177.6
21
-75.05
0
LINE
8
Black
10
177.6
20
-75.05
11
177.9
21
-75.05
0
LINE
8
Black
10
177.9
20
-75.05
11
177.9
21
-76.55
0
LINE
8
Black
10
177.4
20
-76.55
11
177.1
21
-76.55
0
LINE
8
Black
10
177.1
20
-76.55
11
177.1
21
-75.05
0
LINE
8
Black
10
177.1
20
-75.05
11
177.4
21
-75.05
0
LINE
8
Black
10
177.4
20
-75.05
11
177.4
21
-76.55
0
LINE
8
Black
10
176.9
20
-76.55
11
176.6
21
-76.55
0
LINE
8
Black
10
176.6
20
-76.55
11
176.6
21
-75.05
0
LINE
8
Black
10
176.6
20
-75.05
11
176.9
21
-75.05
0
LINE
8
Black
10
176.9
20
-75.05
11
176.9
21
-76.55
0
LINE
8
Black
10
174.9
20
-76.55
11
174.6
21
-76.55
0
LINE
8
Black
10
174.6
20
-76.55
11
174.6
21
-75.05
0
LINE
8
Black
10
174.6
20
-75.05
11
174.9
21
-75.05
0
LINE
8
Black
10
174.9
20
-75.05
11
174.9
21
-76.55
0
LINE
8
Black
10
175.4
20
-76.55
11
175.1
21
-76.55
0
LINE
8
Black
10
175.1
20
-76.55
11
175.1
21
-75.05
0
LINE
8
Black
10
175.1
20
-75.05
11
175.4
21
-75.05
0
LINE
8
Black
10
175.4
20
-75.05
11
175.4
21
-76.55
0
LINE
8
Black
10
176.4
20
-76.55
11
176.1
21
-76.55
0
LINE
8
Black
10
176.1
20
-76.55
11
176.1
21
-75.05
0
LINE
8
Black
10
176.1
20
-75.05
11
176.4
21
-75.05
0
LINE
8
Black
10
176.4
20
-75.05
11
176.4
21
-76.55
0
LINE
8
Black
10
175.9
20
-76.55
11
175.6
21
-76.55
0
LINE
8
Black
10
175.6
20
-76.55
11
175.6
21
-75.05
0
LINE
8
Black
10
175.6
20
-75.05
11
175.9
21
-75.05
0
LINE
8
Black
10
175.9
20
-75.05
11
175.9
21
-76.55
0
LINE
8
Black
10
160.275
20
-76.5
11
159.325
21
-76.5
0
LINE
8
Black
10
159.325
20
-76.5
11
159.325
21
-75.5
0
LINE
8
Black
10
159.325
20
-75.5
11
160.275
21
-75.5
0
LINE
8
Black
10
160.275
20
-75.5
11
160.275
21
-76.5
0
LINE
8
Black
10
158.675
20
-76.5
11
157.725
21
-76.5
0
LINE
8
Black
10
157.725
20
-76.5
11
157.725
21
-75.5
0
LINE
8
Black
10
157.725
20
-75.5
11
158.675
21
-75.5
0
LINE
8
Black
10
158.675
20
-75.5
11
158.675
21
-76.5
0
LINE
8
Black
10
162.298
20
-76.459
11
161.298
21
-76.459
0
LINE
8
Black
10
161.298
20
-76.459
11
161.298
21
-75.509
0
LINE
8
Black
10
161.298
20
-75.509
11
162.298
21
-75.509
0
LINE
8
Black
10
162.298
20
-75.509
11
162.298
21
-76.459
0
LINE
8
Black
10
160.275
20
-75
11
159.325
21
-75
0
LINE
8
Black
10
159.325
20
-75
11
159.325
21
-74
0
LINE
8
Black
10
159.325
20
-74
11
160.275
21
-74
0
LINE
8
Black
10
160.275
20
-74
11
160.275
21
-75
0
LINE
8
Black
10
158.675
20
-75
11
157.725
21
-75
0
LINE
8
Black
10
157.725
20
-75
11
157.725
21
-74
0
LINE
8
Black
10
157.725
20
-74
11
158.675
21
-74
0
LINE
8
Black
10
158.675
20
-74
11
158.675
21
-75
0
LINE
8
Black
10
162.298
20
-74.859
11
161.298
21
-74.859
0
LINE
8
Black
10
161.298
20
-74.859
11
161.298
21
-73.909
0
LINE
8
Black
10
161.298
20
-73.909
11
162.298
21
-73.909
0
LINE
8
Black
10
162.298
20
-73.909
11
162.298
21
-74.859
0
LINE
8
Black
10
164.43
20
-74.638
11
163.23
21
-74.638
0
LINE
8
Black
10
163.23
20
-74.638
11
163.23
21
-73.438
0
LINE
8
Black
10
163.23
20
-73.438
11
164.43
21
-73.438
0
LINE
8
Black
10
164.43
20
-73.438
11
164.43
21
-74.638
0
LINE
8
Black
10
175.975
20
-73.5
11
175.025
21
-73.5
0
LINE
8
Black
10
175.025
20
-73.5
11
175.025
21
-72.5
0
LINE
8
Black
10
175.025
20
-72.5
11
175.975
21
-72.5
0
LINE
8
Black
10
175.975
20
-72.5
11
175.975
21
-73.5
0
LINE
8
Black
10
174.375
20
-73.5
11
173.425
21
-73.5
0
LINE
8
Black
10
173.425
20
-73.5
11
173.425
21
-72.5
0
LINE
8
Black
10
173.425
20
-72.5
11
174.375
21
-72.5
0
LINE
8
Black
10
174.375
20
-72.5
11
174.375
21
-73.5
0
LINE
8
Black
10
158.395
20
-72.975
11
157.795
21
-72.975
0
LINE
8
Black
10
157.795
20
-72.975
11
157.795
21
-71.425
0
LINE
8
Black
10
157.795
20
-71.425
11
158.395
21
-71.425
0
LINE
8
Black
10
158.395
20
-71.425
11
158.395
21
-72.975
0
LINE
8
Black
10
159.665
20
-72.975
11
159.065
21
-72.975
0
LINE
8
Black
10
159.065
20
-72.975
11
159.065
21
-71.425
0
LINE
8
Black
10
159.065
20
-71.425
11
159.665
21
-71.425
0
LINE
8
Black
10
159.665
20
-71.425
11
159.665
21
-72.975
0
LINE
8
Black
10
160.935
20
-72.975
11
160.335
21
-72.975
0
LINE
8
Black
10
160.335
20
-72.975
11
160.335
21
-71.425
0
LINE
8
Black
10
160.335
20
-71.425
11
160.935
21
-71.425
0
LINE
8
Black
10
160.935
20
-71.425
11
160.935
21
-72.975
0
LINE
8
Black
10
162.205
20
-72.975
11
161.605
21
-72.975
0
LINE
8
Black
10
161.605
20
-72.975
11
161.605
21
-71.425
0
LINE
8
Black
10
161.605
20
-71.425
11
162.205
21
-71.425
0
LINE
8
Black
10
162.205
20
-71.425
11
162.205
21
-72.975
0
LINE
8
Black
10
164.076
20
-70.871
11
163.076
21
-70.871
0
LINE
8
Black
10
163.076
20
-70.871
11
163.076
21
-69.921
0
LINE
8
Black
10
163.076
20
-69.921
11
164.076
21
-69.921
0
LINE
8
Black
10
164.076
20
-69.921
11
164.076
21
-70.871
0
LINE
8
Black
10
194.476
20
-70.521
11
193.476
21
-70.521
0
LINE
8
Black
10
193.476
20
-70.521
11
193.476
21
-69.571
0
LINE
8
Black
10
193.476
20
-69.571
11
194.476
21
-69.571
0
LINE
8
Black
10
194.476
20
-69.571
11
194.476
21
-70.521
0
LINE
8
Black
10
164.076
20
-69.271
11
163.076
21
-69.271
0
LINE
8
Black
10
163.076
20
-69.271
11
163.076
21
-68.321
0
LINE
8
Black
10
163.076
20
-68.321
11
164.076
21
-68.321
0
LINE
8
Black
10
164.076
20
-68.321
11
164.076
21
-69.271
0
LINE
8
Black
10
194.476
20
-68.921
11
193.476
21
-68.921
0
LINE
8
Black
10
193.476
20
-68.921
11
193.476
21
-67.971
0
LINE
8
Black
10
193.476
20
-67.971
11
194.476
21
-67.971
0
LINE
8
Black
10
194.476
20
-67.971
11
194.476
21
-68.921
0
LINE
8
Black
10
175.575
20
-67.85
11
174.425
21
-67.85
0
LINE
8
Black
10
174.425
20
-67.85
11
174.425
21
-65.15
0
LINE
8
Black
10
174.425
20
-65.15
11
175.575
21
-65.15
0
LINE
8
Black
10
175.575
20
-65.15
11
175.575
21
-67.85
0
LINE
8
Black
10
178.575
20
-67.85
11
177.425
21
-67.85
0
LINE
8
Black
10
177.425
20
-67.85
11
177.425
21
-65.15
0
LINE
8
Black
10
177.425
20
-65.15
11
178.575
21
-65.15
0
LINE
8
Black
10
178.575
20
-65.15
11
178.575
21
-67.85
0
LINE
8
Black
10
162.205
20
-67.575
11
161.605
21
-67.575
0
LINE
8
Black
10
161.605
20
-67.575
11
161.605
21
-66.025
0
LINE
8
Black
10
161.605
20
-66.025
11
162.205
21
-66.025
0
LINE
8
Black
10
162.205
20
-66.025
11
162.205
21
-67.575
0
LINE
8
Black
10
160.935
20
-67.575
11
160.335
21
-67.575
0
LINE
8
Black
10
160.335
20
-67.575
11
160.335
21
-66.025
0
LINE
8
Black
10
160.335
20
-66.025
11
160.935
21
-66.025
0
LINE
8
Black
10
160.935
20
-66.025
11
160.935
21
-67.575
0
LINE
8
Black
10
159.665
20
-67.575
11
159.065
21
-67.575
0
LINE
8
Black
10
159.065
20
-67.575
11
159.065
21
-66.025
0
LINE
8
Black
10
159.065
20
-66.025
11
159.665
21
-66.025
0
LINE
8
Black
10
159.665
20
-66.025
11
159.665
21
-67.575
0
LINE
8
Black
10
158.395
20
-67.575
11
157.795
21
-67.575
0
LINE
8
Black
10
157.795
20
-67.575
11
157.795
21
-66.025
0
LINE
8
Black
10
157.795
20
-66.025
11
158.395
21
-66.025
0
LINE
8
Black
10
158.395
20
-66.025
11
158.395
21
-67.575
0
LINE
8
Black
10
154.615
20
-67.556
11
153.665
21
-67.556
0
LINE
8
Black
10
153.665
20
-67.556
11
153.665
21
-66.556
0
LINE
8
Black
10
153.665
20
-66.556
11
154.615
21
-66.556
0
LINE
8
Black
10
154.615
20
-66.556
11
154.615
21
-67.556
0
LINE
8
Black
10
156.215
20
-67.556
11
155.265
21
-67.556
0
LINE
8
Black
10
155.265
20
-67.556
11
155.265
21
-66.556
0
LINE
8
Black
10
155.265
20
-66.556
11
156.215
21
-66.556
0
LINE
8
Black
10
156.215
20
-66.556
11
156.215
21
-67.556
0
LINE
8
Black
10
173.5
20
-66.275
11
172.5
21
-66.275
0
LINE
8
Black
10
172.5
20
-66.275
11
172.5
21
-65.325
0
LINE
8
Black
10
172.5
20
-65.325
11
173.5
21
-65.325
0
LINE
8
Black
10
173.5
20
-65.325
11
173.5
21
-66.275
0
LINE
8
Black
10
155.275
20
-65.5
11
154.325
21
-65.5
0
LINE
8
Black
10
154.325
20
-65.5
11
154.325
21
-64.5
0
LINE
8
Black
10
154.325
20
-64.5
11
155.275
21
-64.5
0
LINE
8
Black
10
155.275
20
-64.5
11
155.275
21
-65.5
0
LINE
8
Black
10
153.675
20
-65.5
11
152.725
21
-65.5
0
LINE
8
Black
10
152.725
20
-65.5
11
152.725
21
-64.5
0
LINE
8
Black
10
152.725
20
-64.5
11
153.675
21
-64.5
0
LINE
8
Black
10
153.675
20
-64.5
11
153.675
21
-65.5
0
LINE
8
Black
10
173.5
20
-64.675
11
172.5
21
-64.675
0
LINE
8
Black
10
172.5
20
-64.675
11
172.5
21
-63.725
0
LINE
8
Black
10
172.5
20
-63.725
11
173.5
21
-63.725
0
LINE
8
Black
10
173.5
20
-63.725
11
173.5
21
-64.675
0
LINE
8
Black
10
153.675
20
-64
11
152.725
21
-64
0
LINE
8
Black
10
152.725
20
-64
11
152.725
21
-63
0
LINE
8
Black
10
152.725
20
-63
11
153.675
21
-63
0
LINE
8
Black
10
153.675
20
-63
11
153.675
21
-64
0
LINE
8
Black
10
155.275
20
-64
11
154.325
21
-64
0
LINE
8
Black
10
154.325
20
-64
11
154.325
21
-63
0
LINE
8
Black
10
154.325
20
-63
11
155.275
21
-63
0
LINE
8
Black
10
155.275
20
-63
11
155.275
21
-64
0
LINE
8
Black
10
193.032
20
-63.505
11
192.032
21
-63.505
0
LINE
8
Black
10
192.032
20
-63.505
11
192.032
21
-62.555
0
LINE
8
Black
10
192.032
20
-62.555
11
193.032
21
-62.555
0
LINE
8
Black
10
193.032
20
-62.555
11
193.032
21
-63.505
0
LINE
8
Black
10
171.275
20
-63.3
11
170.325
21
-63.3
0
LINE
8
Black
10
170.325
20
-63.3
11
170.325
21
-62.3
0
LINE
8
Black
10
170.325
20
-62.3
11
171.275
21
-62.3
0
LINE
8
Black
10
171.275
20
-62.3
11
171.275
21
-63.3
0
LINE
8
Black
10
169.675
20
-63.3
11
168.725
21
-63.3
0
LINE
8
Black
10
168.725
20
-63.3
11
168.725
21
-62.3
0
LINE
8
Black
10
168.725
20
-62.3
11
169.675
21
-62.3
0
LINE
8
Black
10
169.675
20
-62.3
11
169.675
21
-63.3
0
LINE
8
Black
10
155.275
20
-62.5
11
154.325
21
-62.5
0
LINE
8
Black
10
154.325
20
-62.5
11
154.325
21
-61.5
0
LINE
8
Black
10
154.325
20
-61.5
11
155.275
21
-61.5
0
LINE
8
Black
10
155.275
20
-61.5
11
155.275
21
-62.5
0
LINE
8
Black
10
153.675
20
-62.5
11
152.725
21
-62.5
0
LINE
8
Black
10
152.725
20
-62.5
11
152.725
21
-61.5
0
LINE
8
Black
10
152.725
20
-61.5
11
153.675
21
-61.5
0
LINE
8
Black
10
153.675
20
-61.5
11
153.675
21
-62.5
0
LINE
8
Black
10
193.032
20
-61.905
11
192.032
21
-61.905
0
LINE
8
Black
10
192.032
20
-61.905
11
192.032
21
-60.955
0
LINE
8
Black
10
192.032
20
-60.955
11
193.032
21
-60.955
0
LINE
8
Black
10
193.032
20
-60.955
11
193.032
21
-61.905
0
LINE
8
Black
10
173.111
20
-61.874
11
171.46
21
-61.874
0
LINE
8
Black
10
171.46
20
-61.874
11
171.46
21
-58.826
0
LINE
8
Black
10
171.46
20
-58.826
11
173.111
21
-58.826
0
LINE
8
Black
10
173.111
20
-58.826
11
173.111
21
-61.874
0
LINE
8
Black
10
168.54
20
-61.874
11
166.888
21
-61.874
0
LINE
8
Black
10
166.888
20
-61.874
11
166.888
21
-58.826
0
LINE
8
Black
10
166.888
20
-58.826
11
168.54
21
-58.826
0
LINE
8
Black
10
168.54
20
-58.826
11
168.54
21
-61.874
0
LINE
8
Black
10
165.5
20
-60.275
11
164.5
21
-60.275
0
LINE
8
Black
10
164.5
20
-60.275
11
164.5
21
-59.325
0
LINE
8
Black
10
164.5
20
-59.325
11
165.5
21
-59.325
0
LINE
8
Black
10
165.5
20
-59.325
11
165.5
21
-60.275
0
LINE
8
Black
10
165.5
20
-58.675
11
164.5
21
-58.675
0
LINE
8
Black
10
164.5
20
-58.675
11
164.5
21
-57.725
0
LINE
8
Black
10
164.5
20
-57.725
11
165.5
21
-57.725
0
LINE
8
Black
10
165.5
20
-57.725
11
165.5
21
-58.675
0
LINE
8
Black
10
173.048
20
-57.048
11
166.952
21
-57.048
0
LINE
8
Black
10
166.952
20
-57.048
11
166.952
21
-50.952
0
LINE
8
Black
10
166.952
20
-50.952
11
173.048
21
-50.952
0
LINE
8
Black
10
173.048
20
-50.952
11
173.048
21
-57.048
  0
ENDSEC
  0
EOF
