G04 #@! TF.FileFunction,Copper,L2,Bot,Signal*
%FSLAX46Y46*%
G04 Gerber Fmt 4.6, Leading zero omitted, Abs format (unit mm)*
G04 Created by KiCad (PCBNEW (2016-03-07 BZR 6612)-product) date Monday, 30 May 2016 'amt' 02:36:14*
%MOMM*%
G01*
G04 APERTURE LIST*
%ADD10C,0.100000*%
%ADD11R,2.032000X1.727200*%
%ADD12O,2.032000X1.727200*%
%ADD13R,2.032000X2.032000*%
%ADD14O,2.032000X2.032000*%
%ADD15R,1.727200X2.032000*%
%ADD16O,1.727200X2.032000*%
%ADD17C,0.800000*%
%ADD18C,0.600000*%
%ADD19C,0.300000*%
%ADD20C,0.253000*%
G04 APERTURE END LIST*
D10*
D11*
X154000000Y-72460000D03*
D12*
X154000000Y-75000000D03*
X154000000Y-77540000D03*
D13*
X161500000Y-55540000D03*
D14*
X161500000Y-53000000D03*
D15*
X165000000Y-98000000D03*
D16*
X162460000Y-98000000D03*
X159920000Y-98000000D03*
D11*
X154000000Y-87040000D03*
D12*
X154000000Y-84500000D03*
X154000000Y-81960000D03*
D15*
X168460000Y-98000000D03*
D16*
X171000000Y-98000000D03*
X173540000Y-98000000D03*
D15*
X185420000Y-98000000D03*
D16*
X187960000Y-98000000D03*
X190500000Y-98000000D03*
D15*
X176960000Y-98000000D03*
D16*
X179500000Y-98000000D03*
X182040000Y-98000000D03*
D11*
X157500000Y-81960000D03*
D12*
X157500000Y-84500000D03*
X157500000Y-87040000D03*
D13*
X164500000Y-53300000D03*
D14*
X164500000Y-55840000D03*
D11*
X196476000Y-67746000D03*
D12*
X196476000Y-70286000D03*
X196476000Y-72826000D03*
X196476000Y-75366000D03*
X196476000Y-77906000D03*
X196476000Y-80446000D03*
X196476000Y-82986000D03*
D17*
X167894000Y-62738000D03*
X169672000Y-77470000D03*
X167640000Y-83058000D03*
X192786000Y-68326000D03*
X183821285Y-72224463D03*
X189230000Y-76962000D03*
X175514000Y-71882000D03*
X182880000Y-90932000D03*
X174752000Y-90932000D03*
X189230000Y-78486000D03*
X164338000Y-62484000D03*
X178054000Y-68580000D03*
X171704000Y-65786000D03*
X174244000Y-56388000D03*
X166116000Y-60960000D03*
X169164000Y-60452000D03*
X186182000Y-75438000D03*
X182118000Y-77724000D03*
X177546000Y-79502000D03*
X175741990Y-80011397D03*
X182118000Y-74422000D03*
X181102000Y-77216000D03*
X160528000Y-70358000D03*
X160020000Y-65278000D03*
X170202331Y-86890331D03*
X175514000Y-83312000D03*
X169164000Y-86868000D03*
X174498000Y-83058000D03*
X171196000Y-87884000D03*
X175544329Y-84342332D03*
X172720000Y-89408000D03*
X174498000Y-88392000D03*
X170688000Y-81788000D03*
X177727728Y-84763728D03*
D18*
X182118000Y-77724000D02*
X183896000Y-77724000D01*
X183896000Y-77724000D02*
X186182000Y-75438000D01*
D19*
X175741990Y-80011397D02*
X177036603Y-80011397D01*
X177036603Y-80011397D02*
X177546000Y-79502000D01*
X181102000Y-77216000D02*
X182118000Y-76200000D01*
X182118000Y-76200000D02*
X182118000Y-74422000D01*
X154000000Y-75000000D02*
X154000000Y-77540000D01*
X175514000Y-83312000D02*
X171935669Y-86890331D01*
X171935669Y-86890331D02*
X170202331Y-86890331D01*
X174498000Y-83058000D02*
X172974000Y-83058000D01*
X172974000Y-83058000D02*
X169164000Y-86868000D01*
X175544329Y-84342332D02*
X172002661Y-87884000D01*
X172002661Y-87884000D02*
X171196000Y-87884000D01*
X172720000Y-89408000D02*
X173482000Y-89408000D01*
X173482000Y-89408000D02*
X174498000Y-88392000D01*
X175354002Y-82042000D02*
X170942000Y-82042000D01*
X170942000Y-82042000D02*
X170688000Y-81788000D01*
X177727728Y-84763728D02*
X177327729Y-84363729D01*
X177327729Y-84363729D02*
X177327729Y-84015727D01*
X177327729Y-84015727D02*
X175354002Y-82042000D01*
D20*
G36*
X165373500Y-66552398D02*
X165373500Y-77447602D01*
X160910551Y-81910551D01*
X160883129Y-81951591D01*
X160873500Y-82000000D01*
X160873500Y-89873500D01*
X150454500Y-89873500D01*
X150454500Y-87135375D01*
X152604500Y-87135375D01*
X152604500Y-87979087D01*
X152662276Y-88118570D01*
X152769031Y-88225325D01*
X152908513Y-88283100D01*
X153904625Y-88283100D01*
X153999500Y-88188225D01*
X153999500Y-87040500D01*
X154000500Y-87040500D01*
X154000500Y-88188225D01*
X154095375Y-88283100D01*
X155091487Y-88283100D01*
X155230969Y-88225325D01*
X155337724Y-88118570D01*
X155395500Y-87979087D01*
X155395500Y-87234958D01*
X156119883Y-87234958D01*
X156198934Y-87515251D01*
X156468242Y-87918650D01*
X156871424Y-88188283D01*
X157347100Y-88283100D01*
X157499500Y-88283100D01*
X157499500Y-87040500D01*
X157500500Y-87040500D01*
X157500500Y-88283100D01*
X157652900Y-88283100D01*
X158128576Y-88188283D01*
X158531758Y-87918650D01*
X158801066Y-87515251D01*
X158880117Y-87234958D01*
X158800625Y-87040500D01*
X157500500Y-87040500D01*
X157499500Y-87040500D01*
X156199375Y-87040500D01*
X156119883Y-87234958D01*
X155395500Y-87234958D01*
X155395500Y-87135375D01*
X155300625Y-87040500D01*
X154000500Y-87040500D01*
X153999500Y-87040500D01*
X152699375Y-87040500D01*
X152604500Y-87135375D01*
X150454500Y-87135375D01*
X150454500Y-86100913D01*
X152604500Y-86100913D01*
X152604500Y-86944625D01*
X152699375Y-87039500D01*
X153999500Y-87039500D01*
X153999500Y-85891775D01*
X154000500Y-85891775D01*
X154000500Y-87039500D01*
X155300625Y-87039500D01*
X155395500Y-86944625D01*
X155395500Y-86845042D01*
X156119883Y-86845042D01*
X156199375Y-87039500D01*
X157499500Y-87039500D01*
X157499500Y-85796900D01*
X157500500Y-85796900D01*
X157500500Y-87039500D01*
X158800625Y-87039500D01*
X158880117Y-86845042D01*
X158801066Y-86564749D01*
X158531758Y-86161350D01*
X158128576Y-85891717D01*
X157652900Y-85796900D01*
X157500500Y-85796900D01*
X157499500Y-85796900D01*
X157347100Y-85796900D01*
X156871424Y-85891717D01*
X156468242Y-86161350D01*
X156198934Y-86564749D01*
X156119883Y-86845042D01*
X155395500Y-86845042D01*
X155395500Y-86100913D01*
X155337724Y-85961430D01*
X155230969Y-85854675D01*
X155091487Y-85796900D01*
X154095375Y-85796900D01*
X154000500Y-85891775D01*
X153999500Y-85891775D01*
X153904625Y-85796900D01*
X152908513Y-85796900D01*
X152769031Y-85854675D01*
X152662276Y-85961430D01*
X152604500Y-86100913D01*
X150454500Y-86100913D01*
X150454500Y-84500000D01*
X152577161Y-84500000D01*
X152671786Y-84975714D01*
X152941257Y-85379004D01*
X153344547Y-85648475D01*
X153820261Y-85743100D01*
X154179739Y-85743100D01*
X154655453Y-85648475D01*
X155058743Y-85379004D01*
X155328214Y-84975714D01*
X155422839Y-84500000D01*
X156077161Y-84500000D01*
X156171786Y-84975714D01*
X156441257Y-85379004D01*
X156844547Y-85648475D01*
X157320261Y-85743100D01*
X157679739Y-85743100D01*
X158155453Y-85648475D01*
X158558743Y-85379004D01*
X158828214Y-84975714D01*
X158922839Y-84500000D01*
X158828214Y-84024286D01*
X158558743Y-83620996D01*
X158155453Y-83351525D01*
X157679739Y-83256900D01*
X157320261Y-83256900D01*
X156844547Y-83351525D01*
X156441257Y-83620996D01*
X156171786Y-84024286D01*
X156077161Y-84500000D01*
X155422839Y-84500000D01*
X155328214Y-84024286D01*
X155058743Y-83620996D01*
X154655453Y-83351525D01*
X154179739Y-83256900D01*
X153820261Y-83256900D01*
X153344547Y-83351525D01*
X152941257Y-83620996D01*
X152671786Y-84024286D01*
X152577161Y-84500000D01*
X150454500Y-84500000D01*
X150454500Y-81960000D01*
X152577161Y-81960000D01*
X152671786Y-82435714D01*
X152941257Y-82839004D01*
X153344547Y-83108475D01*
X153820261Y-83203100D01*
X154179739Y-83203100D01*
X154655453Y-83108475D01*
X155058743Y-82839004D01*
X155328214Y-82435714D01*
X155422839Y-81960000D01*
X155328214Y-81484286D01*
X155069036Y-81096400D01*
X156097066Y-81096400D01*
X156097066Y-82823600D01*
X156126520Y-82971673D01*
X156210396Y-83097204D01*
X156335927Y-83181080D01*
X156484000Y-83210534D01*
X158516000Y-83210534D01*
X158664073Y-83181080D01*
X158789604Y-83097204D01*
X158873480Y-82971673D01*
X158902934Y-82823600D01*
X158902934Y-81096400D01*
X158873480Y-80948327D01*
X158789604Y-80822796D01*
X158664073Y-80738920D01*
X158516000Y-80709466D01*
X156484000Y-80709466D01*
X156335927Y-80738920D01*
X156210396Y-80822796D01*
X156126520Y-80948327D01*
X156097066Y-81096400D01*
X155069036Y-81096400D01*
X155058743Y-81080996D01*
X154655453Y-80811525D01*
X154179739Y-80716900D01*
X153820261Y-80716900D01*
X153344547Y-80811525D01*
X152941257Y-81080996D01*
X152671786Y-81484286D01*
X152577161Y-81960000D01*
X150454500Y-81960000D01*
X150454500Y-75000000D01*
X152577161Y-75000000D01*
X152671786Y-75475714D01*
X152941257Y-75879004D01*
X153344547Y-76148475D01*
X153470500Y-76173529D01*
X153470500Y-76366471D01*
X153344547Y-76391525D01*
X152941257Y-76660996D01*
X152671786Y-77064286D01*
X152577161Y-77540000D01*
X152671786Y-78015714D01*
X152941257Y-78419004D01*
X153344547Y-78688475D01*
X153820261Y-78783100D01*
X154179739Y-78783100D01*
X154655453Y-78688475D01*
X155058743Y-78419004D01*
X155328214Y-78015714D01*
X155422839Y-77540000D01*
X155328214Y-77064286D01*
X155058743Y-76660996D01*
X154655453Y-76391525D01*
X154529500Y-76366471D01*
X154529500Y-76173529D01*
X154655453Y-76148475D01*
X155058743Y-75879004D01*
X155328214Y-75475714D01*
X155422839Y-75000000D01*
X155328214Y-74524286D01*
X155058743Y-74120996D01*
X154655453Y-73851525D01*
X154179739Y-73756900D01*
X153820261Y-73756900D01*
X153344547Y-73851525D01*
X152941257Y-74120996D01*
X152671786Y-74524286D01*
X152577161Y-75000000D01*
X150454500Y-75000000D01*
X150454500Y-72555375D01*
X152604500Y-72555375D01*
X152604500Y-73399087D01*
X152662276Y-73538570D01*
X152769031Y-73645325D01*
X152908513Y-73703100D01*
X153904625Y-73703100D01*
X153999500Y-73608225D01*
X153999500Y-72460500D01*
X154000500Y-72460500D01*
X154000500Y-73608225D01*
X154095375Y-73703100D01*
X155091487Y-73703100D01*
X155230969Y-73645325D01*
X155337724Y-73538570D01*
X155395500Y-73399087D01*
X155395500Y-72555375D01*
X155300625Y-72460500D01*
X154000500Y-72460500D01*
X153999500Y-72460500D01*
X152699375Y-72460500D01*
X152604500Y-72555375D01*
X150454500Y-72555375D01*
X150454500Y-71520913D01*
X152604500Y-71520913D01*
X152604500Y-72364625D01*
X152699375Y-72459500D01*
X153999500Y-72459500D01*
X153999500Y-71311775D01*
X154000500Y-71311775D01*
X154000500Y-72459500D01*
X155300625Y-72459500D01*
X155395500Y-72364625D01*
X155395500Y-71520913D01*
X155337724Y-71381430D01*
X155230969Y-71274675D01*
X155091487Y-71216900D01*
X154095375Y-71216900D01*
X154000500Y-71311775D01*
X153999500Y-71311775D01*
X153904625Y-71216900D01*
X152908513Y-71216900D01*
X152769031Y-71274675D01*
X152662276Y-71381430D01*
X152604500Y-71520913D01*
X150454500Y-71520913D01*
X150454500Y-59126500D01*
X157947602Y-59126500D01*
X165373500Y-66552398D01*
X165373500Y-66552398D01*
G37*
X165373500Y-66552398D02*
X165373500Y-77447602D01*
X160910551Y-81910551D01*
X160883129Y-81951591D01*
X160873500Y-82000000D01*
X160873500Y-89873500D01*
X150454500Y-89873500D01*
X150454500Y-87135375D01*
X152604500Y-87135375D01*
X152604500Y-87979087D01*
X152662276Y-88118570D01*
X152769031Y-88225325D01*
X152908513Y-88283100D01*
X153904625Y-88283100D01*
X153999500Y-88188225D01*
X153999500Y-87040500D01*
X154000500Y-87040500D01*
X154000500Y-88188225D01*
X154095375Y-88283100D01*
X155091487Y-88283100D01*
X155230969Y-88225325D01*
X155337724Y-88118570D01*
X155395500Y-87979087D01*
X155395500Y-87234958D01*
X156119883Y-87234958D01*
X156198934Y-87515251D01*
X156468242Y-87918650D01*
X156871424Y-88188283D01*
X157347100Y-88283100D01*
X157499500Y-88283100D01*
X157499500Y-87040500D01*
X157500500Y-87040500D01*
X157500500Y-88283100D01*
X157652900Y-88283100D01*
X158128576Y-88188283D01*
X158531758Y-87918650D01*
X158801066Y-87515251D01*
X158880117Y-87234958D01*
X158800625Y-87040500D01*
X157500500Y-87040500D01*
X157499500Y-87040500D01*
X156199375Y-87040500D01*
X156119883Y-87234958D01*
X155395500Y-87234958D01*
X155395500Y-87135375D01*
X155300625Y-87040500D01*
X154000500Y-87040500D01*
X153999500Y-87040500D01*
X152699375Y-87040500D01*
X152604500Y-87135375D01*
X150454500Y-87135375D01*
X150454500Y-86100913D01*
X152604500Y-86100913D01*
X152604500Y-86944625D01*
X152699375Y-87039500D01*
X153999500Y-87039500D01*
X153999500Y-85891775D01*
X154000500Y-85891775D01*
X154000500Y-87039500D01*
X155300625Y-87039500D01*
X155395500Y-86944625D01*
X155395500Y-86845042D01*
X156119883Y-86845042D01*
X156199375Y-87039500D01*
X157499500Y-87039500D01*
X157499500Y-85796900D01*
X157500500Y-85796900D01*
X157500500Y-87039500D01*
X158800625Y-87039500D01*
X158880117Y-86845042D01*
X158801066Y-86564749D01*
X158531758Y-86161350D01*
X158128576Y-85891717D01*
X157652900Y-85796900D01*
X157500500Y-85796900D01*
X157499500Y-85796900D01*
X157347100Y-85796900D01*
X156871424Y-85891717D01*
X156468242Y-86161350D01*
X156198934Y-86564749D01*
X156119883Y-86845042D01*
X155395500Y-86845042D01*
X155395500Y-86100913D01*
X155337724Y-85961430D01*
X155230969Y-85854675D01*
X155091487Y-85796900D01*
X154095375Y-85796900D01*
X154000500Y-85891775D01*
X153999500Y-85891775D01*
X153904625Y-85796900D01*
X152908513Y-85796900D01*
X152769031Y-85854675D01*
X152662276Y-85961430D01*
X152604500Y-86100913D01*
X150454500Y-86100913D01*
X150454500Y-84500000D01*
X152577161Y-84500000D01*
X152671786Y-84975714D01*
X152941257Y-85379004D01*
X153344547Y-85648475D01*
X153820261Y-85743100D01*
X154179739Y-85743100D01*
X154655453Y-85648475D01*
X155058743Y-85379004D01*
X155328214Y-84975714D01*
X155422839Y-84500000D01*
X156077161Y-84500000D01*
X156171786Y-84975714D01*
X156441257Y-85379004D01*
X156844547Y-85648475D01*
X157320261Y-85743100D01*
X157679739Y-85743100D01*
X158155453Y-85648475D01*
X158558743Y-85379004D01*
X158828214Y-84975714D01*
X158922839Y-84500000D01*
X158828214Y-84024286D01*
X158558743Y-83620996D01*
X158155453Y-83351525D01*
X157679739Y-83256900D01*
X157320261Y-83256900D01*
X156844547Y-83351525D01*
X156441257Y-83620996D01*
X156171786Y-84024286D01*
X156077161Y-84500000D01*
X155422839Y-84500000D01*
X155328214Y-84024286D01*
X155058743Y-83620996D01*
X154655453Y-83351525D01*
X154179739Y-83256900D01*
X153820261Y-83256900D01*
X153344547Y-83351525D01*
X152941257Y-83620996D01*
X152671786Y-84024286D01*
X152577161Y-84500000D01*
X150454500Y-84500000D01*
X150454500Y-81960000D01*
X152577161Y-81960000D01*
X152671786Y-82435714D01*
X152941257Y-82839004D01*
X153344547Y-83108475D01*
X153820261Y-83203100D01*
X154179739Y-83203100D01*
X154655453Y-83108475D01*
X155058743Y-82839004D01*
X155328214Y-82435714D01*
X155422839Y-81960000D01*
X155328214Y-81484286D01*
X155069036Y-81096400D01*
X156097066Y-81096400D01*
X156097066Y-82823600D01*
X156126520Y-82971673D01*
X156210396Y-83097204D01*
X156335927Y-83181080D01*
X156484000Y-83210534D01*
X158516000Y-83210534D01*
X158664073Y-83181080D01*
X158789604Y-83097204D01*
X158873480Y-82971673D01*
X158902934Y-82823600D01*
X158902934Y-81096400D01*
X158873480Y-80948327D01*
X158789604Y-80822796D01*
X158664073Y-80738920D01*
X158516000Y-80709466D01*
X156484000Y-80709466D01*
X156335927Y-80738920D01*
X156210396Y-80822796D01*
X156126520Y-80948327D01*
X156097066Y-81096400D01*
X155069036Y-81096400D01*
X155058743Y-81080996D01*
X154655453Y-80811525D01*
X154179739Y-80716900D01*
X153820261Y-80716900D01*
X153344547Y-80811525D01*
X152941257Y-81080996D01*
X152671786Y-81484286D01*
X152577161Y-81960000D01*
X150454500Y-81960000D01*
X150454500Y-75000000D01*
X152577161Y-75000000D01*
X152671786Y-75475714D01*
X152941257Y-75879004D01*
X153344547Y-76148475D01*
X153470500Y-76173529D01*
X153470500Y-76366471D01*
X153344547Y-76391525D01*
X152941257Y-76660996D01*
X152671786Y-77064286D01*
X152577161Y-77540000D01*
X152671786Y-78015714D01*
X152941257Y-78419004D01*
X153344547Y-78688475D01*
X153820261Y-78783100D01*
X154179739Y-78783100D01*
X154655453Y-78688475D01*
X155058743Y-78419004D01*
X155328214Y-78015714D01*
X155422839Y-77540000D01*
X155328214Y-77064286D01*
X155058743Y-76660996D01*
X154655453Y-76391525D01*
X154529500Y-76366471D01*
X154529500Y-76173529D01*
X154655453Y-76148475D01*
X155058743Y-75879004D01*
X155328214Y-75475714D01*
X155422839Y-75000000D01*
X155328214Y-74524286D01*
X155058743Y-74120996D01*
X154655453Y-73851525D01*
X154179739Y-73756900D01*
X153820261Y-73756900D01*
X153344547Y-73851525D01*
X152941257Y-74120996D01*
X152671786Y-74524286D01*
X152577161Y-75000000D01*
X150454500Y-75000000D01*
X150454500Y-72555375D01*
X152604500Y-72555375D01*
X152604500Y-73399087D01*
X152662276Y-73538570D01*
X152769031Y-73645325D01*
X152908513Y-73703100D01*
X153904625Y-73703100D01*
X153999500Y-73608225D01*
X153999500Y-72460500D01*
X154000500Y-72460500D01*
X154000500Y-73608225D01*
X154095375Y-73703100D01*
X155091487Y-73703100D01*
X155230969Y-73645325D01*
X155337724Y-73538570D01*
X155395500Y-73399087D01*
X155395500Y-72555375D01*
X155300625Y-72460500D01*
X154000500Y-72460500D01*
X153999500Y-72460500D01*
X152699375Y-72460500D01*
X152604500Y-72555375D01*
X150454500Y-72555375D01*
X150454500Y-71520913D01*
X152604500Y-71520913D01*
X152604500Y-72364625D01*
X152699375Y-72459500D01*
X153999500Y-72459500D01*
X153999500Y-71311775D01*
X154000500Y-71311775D01*
X154000500Y-72459500D01*
X155300625Y-72459500D01*
X155395500Y-72364625D01*
X155395500Y-71520913D01*
X155337724Y-71381430D01*
X155230969Y-71274675D01*
X155091487Y-71216900D01*
X154095375Y-71216900D01*
X154000500Y-71311775D01*
X153999500Y-71311775D01*
X153904625Y-71216900D01*
X152908513Y-71216900D01*
X152769031Y-71274675D01*
X152662276Y-71381430D01*
X152604500Y-71520913D01*
X150454500Y-71520913D01*
X150454500Y-59126500D01*
X157947602Y-59126500D01*
X165373500Y-66552398D01*
G36*
X198279371Y-50618431D02*
X198940091Y-51059909D01*
X199381569Y-51720627D01*
X199545500Y-52544764D01*
X199545500Y-97455236D01*
X199381569Y-98279373D01*
X198940091Y-98940091D01*
X198279371Y-99381569D01*
X197455236Y-99545500D01*
X152544764Y-99545500D01*
X151720627Y-99381569D01*
X151059909Y-98940091D01*
X150618431Y-98279371D01*
X150527109Y-97820261D01*
X158676900Y-97820261D01*
X158676900Y-98179739D01*
X158771525Y-98655453D01*
X159040996Y-99058743D01*
X159444286Y-99328214D01*
X159920000Y-99422839D01*
X160395714Y-99328214D01*
X160799004Y-99058743D01*
X161068475Y-98655453D01*
X161163100Y-98179739D01*
X161163100Y-98000500D01*
X161215900Y-98000500D01*
X161215900Y-98152900D01*
X161310793Y-98628958D01*
X161580642Y-99032465D01*
X161984365Y-99301990D01*
X162264886Y-99381105D01*
X162459500Y-99301375D01*
X162459500Y-98000500D01*
X162460500Y-98000500D01*
X162460500Y-99301375D01*
X162655114Y-99381105D01*
X162935635Y-99301990D01*
X163339358Y-99032465D01*
X163609207Y-98628958D01*
X163704100Y-98152900D01*
X163704100Y-98000500D01*
X162460500Y-98000500D01*
X162459500Y-98000500D01*
X161215900Y-98000500D01*
X161163100Y-98000500D01*
X161163100Y-97847100D01*
X161215900Y-97847100D01*
X161215900Y-97999500D01*
X162459500Y-97999500D01*
X162459500Y-96698625D01*
X162460500Y-96698625D01*
X162460500Y-97999500D01*
X163704100Y-97999500D01*
X163704100Y-97847100D01*
X163609207Y-97371042D01*
X163350370Y-96984000D01*
X163749466Y-96984000D01*
X163749466Y-99016000D01*
X163778920Y-99164073D01*
X163862796Y-99289604D01*
X163988327Y-99373480D01*
X164136400Y-99402934D01*
X165863600Y-99402934D01*
X166011673Y-99373480D01*
X166137204Y-99289604D01*
X166221080Y-99164073D01*
X166250534Y-99016000D01*
X166250534Y-96984000D01*
X167209466Y-96984000D01*
X167209466Y-99016000D01*
X167238920Y-99164073D01*
X167322796Y-99289604D01*
X167448327Y-99373480D01*
X167596400Y-99402934D01*
X169323600Y-99402934D01*
X169471673Y-99373480D01*
X169597204Y-99289604D01*
X169681080Y-99164073D01*
X169710534Y-99016000D01*
X169710534Y-97820261D01*
X169756900Y-97820261D01*
X169756900Y-98179739D01*
X169851525Y-98655453D01*
X170120996Y-99058743D01*
X170524286Y-99328214D01*
X171000000Y-99422839D01*
X171475714Y-99328214D01*
X171879004Y-99058743D01*
X172148475Y-98655453D01*
X172243100Y-98179739D01*
X172243100Y-98000500D01*
X172295900Y-98000500D01*
X172295900Y-98152900D01*
X172390793Y-98628958D01*
X172660642Y-99032465D01*
X173064365Y-99301990D01*
X173344886Y-99381105D01*
X173539500Y-99301375D01*
X173539500Y-98000500D01*
X173540500Y-98000500D01*
X173540500Y-99301375D01*
X173735114Y-99381105D01*
X174015635Y-99301990D01*
X174419358Y-99032465D01*
X174689207Y-98628958D01*
X174784100Y-98152900D01*
X174784100Y-98000500D01*
X173540500Y-98000500D01*
X173539500Y-98000500D01*
X172295900Y-98000500D01*
X172243100Y-98000500D01*
X172243100Y-97847100D01*
X172295900Y-97847100D01*
X172295900Y-97999500D01*
X173539500Y-97999500D01*
X173539500Y-96698625D01*
X173540500Y-96698625D01*
X173540500Y-97999500D01*
X174784100Y-97999500D01*
X174784100Y-97847100D01*
X174689207Y-97371042D01*
X174430370Y-96984000D01*
X175709466Y-96984000D01*
X175709466Y-99016000D01*
X175738920Y-99164073D01*
X175822796Y-99289604D01*
X175948327Y-99373480D01*
X176096400Y-99402934D01*
X177823600Y-99402934D01*
X177971673Y-99373480D01*
X178097204Y-99289604D01*
X178181080Y-99164073D01*
X178210534Y-99016000D01*
X178210534Y-97820261D01*
X178256900Y-97820261D01*
X178256900Y-98179739D01*
X178351525Y-98655453D01*
X178620996Y-99058743D01*
X179024286Y-99328214D01*
X179500000Y-99422839D01*
X179975714Y-99328214D01*
X180379004Y-99058743D01*
X180648475Y-98655453D01*
X180743100Y-98179739D01*
X180743100Y-98000500D01*
X180795900Y-98000500D01*
X180795900Y-98152900D01*
X180890793Y-98628958D01*
X181160642Y-99032465D01*
X181564365Y-99301990D01*
X181844886Y-99381105D01*
X182039500Y-99301375D01*
X182039500Y-98000500D01*
X182040500Y-98000500D01*
X182040500Y-99301375D01*
X182235114Y-99381105D01*
X182515635Y-99301990D01*
X182919358Y-99032465D01*
X183189207Y-98628958D01*
X183284100Y-98152900D01*
X183284100Y-98000500D01*
X182040500Y-98000500D01*
X182039500Y-98000500D01*
X180795900Y-98000500D01*
X180743100Y-98000500D01*
X180743100Y-97847100D01*
X180795900Y-97847100D01*
X180795900Y-97999500D01*
X182039500Y-97999500D01*
X182039500Y-96698625D01*
X182040500Y-96698625D01*
X182040500Y-97999500D01*
X183284100Y-97999500D01*
X183284100Y-97847100D01*
X183189207Y-97371042D01*
X182930370Y-96984000D01*
X184169466Y-96984000D01*
X184169466Y-99016000D01*
X184198920Y-99164073D01*
X184282796Y-99289604D01*
X184408327Y-99373480D01*
X184556400Y-99402934D01*
X186283600Y-99402934D01*
X186431673Y-99373480D01*
X186557204Y-99289604D01*
X186641080Y-99164073D01*
X186670534Y-99016000D01*
X186670534Y-97820261D01*
X186716900Y-97820261D01*
X186716900Y-98179739D01*
X186811525Y-98655453D01*
X187080996Y-99058743D01*
X187484286Y-99328214D01*
X187960000Y-99422839D01*
X188435714Y-99328214D01*
X188839004Y-99058743D01*
X189108475Y-98655453D01*
X189203100Y-98179739D01*
X189203100Y-98000500D01*
X189255900Y-98000500D01*
X189255900Y-98152900D01*
X189350793Y-98628958D01*
X189620642Y-99032465D01*
X190024365Y-99301990D01*
X190304886Y-99381105D01*
X190499500Y-99301375D01*
X190499500Y-98000500D01*
X190500500Y-98000500D01*
X190500500Y-99301375D01*
X190695114Y-99381105D01*
X190975635Y-99301990D01*
X191379358Y-99032465D01*
X191649207Y-98628958D01*
X191744100Y-98152900D01*
X191744100Y-98000500D01*
X190500500Y-98000500D01*
X190499500Y-98000500D01*
X189255900Y-98000500D01*
X189203100Y-98000500D01*
X189203100Y-97847100D01*
X189255900Y-97847100D01*
X189255900Y-97999500D01*
X190499500Y-97999500D01*
X190499500Y-96698625D01*
X190500500Y-96698625D01*
X190500500Y-97999500D01*
X191744100Y-97999500D01*
X191744100Y-97847100D01*
X191649207Y-97371042D01*
X191379358Y-96967535D01*
X190975635Y-96698010D01*
X190695114Y-96618895D01*
X190500500Y-96698625D01*
X190499500Y-96698625D01*
X190304886Y-96618895D01*
X190024365Y-96698010D01*
X189620642Y-96967535D01*
X189350793Y-97371042D01*
X189255900Y-97847100D01*
X189203100Y-97847100D01*
X189203100Y-97820261D01*
X189108475Y-97344547D01*
X188839004Y-96941257D01*
X188435714Y-96671786D01*
X187960000Y-96577161D01*
X187484286Y-96671786D01*
X187080996Y-96941257D01*
X186811525Y-97344547D01*
X186716900Y-97820261D01*
X186670534Y-97820261D01*
X186670534Y-96984000D01*
X186641080Y-96835927D01*
X186557204Y-96710396D01*
X186431673Y-96626520D01*
X186283600Y-96597066D01*
X184556400Y-96597066D01*
X184408327Y-96626520D01*
X184282796Y-96710396D01*
X184198920Y-96835927D01*
X184169466Y-96984000D01*
X182930370Y-96984000D01*
X182919358Y-96967535D01*
X182515635Y-96698010D01*
X182235114Y-96618895D01*
X182040500Y-96698625D01*
X182039500Y-96698625D01*
X181844886Y-96618895D01*
X181564365Y-96698010D01*
X181160642Y-96967535D01*
X180890793Y-97371042D01*
X180795900Y-97847100D01*
X180743100Y-97847100D01*
X180743100Y-97820261D01*
X180648475Y-97344547D01*
X180379004Y-96941257D01*
X179975714Y-96671786D01*
X179500000Y-96577161D01*
X179024286Y-96671786D01*
X178620996Y-96941257D01*
X178351525Y-97344547D01*
X178256900Y-97820261D01*
X178210534Y-97820261D01*
X178210534Y-96984000D01*
X178181080Y-96835927D01*
X178097204Y-96710396D01*
X177971673Y-96626520D01*
X177823600Y-96597066D01*
X176096400Y-96597066D01*
X175948327Y-96626520D01*
X175822796Y-96710396D01*
X175738920Y-96835927D01*
X175709466Y-96984000D01*
X174430370Y-96984000D01*
X174419358Y-96967535D01*
X174015635Y-96698010D01*
X173735114Y-96618895D01*
X173540500Y-96698625D01*
X173539500Y-96698625D01*
X173344886Y-96618895D01*
X173064365Y-96698010D01*
X172660642Y-96967535D01*
X172390793Y-97371042D01*
X172295900Y-97847100D01*
X172243100Y-97847100D01*
X172243100Y-97820261D01*
X172148475Y-97344547D01*
X171879004Y-96941257D01*
X171475714Y-96671786D01*
X171000000Y-96577161D01*
X170524286Y-96671786D01*
X170120996Y-96941257D01*
X169851525Y-97344547D01*
X169756900Y-97820261D01*
X169710534Y-97820261D01*
X169710534Y-96984000D01*
X169681080Y-96835927D01*
X169597204Y-96710396D01*
X169471673Y-96626520D01*
X169323600Y-96597066D01*
X167596400Y-96597066D01*
X167448327Y-96626520D01*
X167322796Y-96710396D01*
X167238920Y-96835927D01*
X167209466Y-96984000D01*
X166250534Y-96984000D01*
X166221080Y-96835927D01*
X166137204Y-96710396D01*
X166011673Y-96626520D01*
X165863600Y-96597066D01*
X164136400Y-96597066D01*
X163988327Y-96626520D01*
X163862796Y-96710396D01*
X163778920Y-96835927D01*
X163749466Y-96984000D01*
X163350370Y-96984000D01*
X163339358Y-96967535D01*
X162935635Y-96698010D01*
X162655114Y-96618895D01*
X162460500Y-96698625D01*
X162459500Y-96698625D01*
X162264886Y-96618895D01*
X161984365Y-96698010D01*
X161580642Y-96967535D01*
X161310793Y-97371042D01*
X161215900Y-97847100D01*
X161163100Y-97847100D01*
X161163100Y-97820261D01*
X161068475Y-97344547D01*
X160799004Y-96941257D01*
X160395714Y-96671786D01*
X159920000Y-96577161D01*
X159444286Y-96671786D01*
X159040996Y-96941257D01*
X158771525Y-97344547D01*
X158676900Y-97820261D01*
X150527109Y-97820261D01*
X150454500Y-97455236D01*
X150454500Y-95392020D01*
X153020157Y-95392020D01*
X153320883Y-96119832D01*
X153877239Y-96677160D01*
X154604526Y-96979156D01*
X155392020Y-96979843D01*
X156119832Y-96679117D01*
X156677160Y-96122761D01*
X156979156Y-95395474D01*
X156979159Y-95392020D01*
X193020157Y-95392020D01*
X193320883Y-96119832D01*
X193877239Y-96677160D01*
X194604526Y-96979156D01*
X195392020Y-96979843D01*
X196119832Y-96679117D01*
X196677160Y-96122761D01*
X196979156Y-95395474D01*
X196979843Y-94607980D01*
X196679117Y-93880168D01*
X196122761Y-93322840D01*
X195395474Y-93020844D01*
X194607980Y-93020157D01*
X193880168Y-93320883D01*
X193322840Y-93877239D01*
X193020844Y-94604526D01*
X193020157Y-95392020D01*
X156979159Y-95392020D01*
X156979843Y-94607980D01*
X156679117Y-93880168D01*
X156122761Y-93322840D01*
X155395474Y-93020844D01*
X154607980Y-93020157D01*
X153880168Y-93320883D01*
X153322840Y-93877239D01*
X153020844Y-94604526D01*
X153020157Y-95392020D01*
X150454500Y-95392020D01*
X150454500Y-90626500D01*
X161500000Y-90626500D01*
X161548409Y-90616871D01*
X161589449Y-90589449D01*
X161616871Y-90548409D01*
X161626500Y-90500000D01*
X161626500Y-89562372D01*
X171940365Y-89562372D01*
X172058787Y-89848974D01*
X172277872Y-90068442D01*
X172564268Y-90187364D01*
X172874372Y-90187635D01*
X173160974Y-90069213D01*
X173292917Y-89937500D01*
X173482000Y-89937500D01*
X173684631Y-89897194D01*
X173856413Y-89782413D01*
X174467353Y-89171473D01*
X174652372Y-89171635D01*
X174938974Y-89053213D01*
X175158442Y-88834128D01*
X175277364Y-88547732D01*
X175277635Y-88237628D01*
X175159213Y-87951026D01*
X174940128Y-87731558D01*
X174653732Y-87612636D01*
X174343628Y-87612365D01*
X174057026Y-87730787D01*
X173837558Y-87949872D01*
X173718636Y-88236268D01*
X173718473Y-88422701D01*
X173277771Y-88863403D01*
X173162128Y-88747558D01*
X172875732Y-88628636D01*
X172565628Y-88628365D01*
X172279026Y-88746787D01*
X172059558Y-88965872D01*
X171940636Y-89252268D01*
X171940365Y-89562372D01*
X161626500Y-89562372D01*
X161626500Y-87022372D01*
X168384365Y-87022372D01*
X168502787Y-87308974D01*
X168721872Y-87528442D01*
X169008268Y-87647364D01*
X169318372Y-87647635D01*
X169604974Y-87529213D01*
X169671944Y-87462360D01*
X169760203Y-87550773D01*
X170046599Y-87669695D01*
X170356703Y-87669966D01*
X170458271Y-87627999D01*
X170416636Y-87728268D01*
X170416365Y-88038372D01*
X170534787Y-88324974D01*
X170753872Y-88544442D01*
X171040268Y-88663364D01*
X171350372Y-88663635D01*
X171636974Y-88545213D01*
X171768917Y-88413500D01*
X172002661Y-88413500D01*
X172205292Y-88373194D01*
X172377074Y-88258413D01*
X175513682Y-85121805D01*
X175698701Y-85121967D01*
X175985303Y-85003545D01*
X176204771Y-84784460D01*
X176323693Y-84498064D01*
X176323964Y-84187960D01*
X176205542Y-83901358D01*
X176116404Y-83812064D01*
X176174442Y-83754128D01*
X176216358Y-83653182D01*
X176798229Y-84235053D01*
X176798229Y-84363729D01*
X176838535Y-84566360D01*
X176948257Y-84730570D01*
X176948093Y-84918100D01*
X177066515Y-85204702D01*
X177285600Y-85424170D01*
X177571996Y-85543092D01*
X177882100Y-85543363D01*
X178168702Y-85424941D01*
X178388170Y-85205856D01*
X178507092Y-84919460D01*
X178507363Y-84609356D01*
X178388941Y-84322754D01*
X178169856Y-84103286D01*
X177883460Y-83984364D01*
X177850985Y-83984336D01*
X177816923Y-83813096D01*
X177702142Y-83641314D01*
X177046828Y-82986000D01*
X195053161Y-82986000D01*
X195147786Y-83461714D01*
X195417257Y-83865004D01*
X195820547Y-84134475D01*
X196296261Y-84229100D01*
X196655739Y-84229100D01*
X197131453Y-84134475D01*
X197534743Y-83865004D01*
X197804214Y-83461714D01*
X197898839Y-82986000D01*
X197804214Y-82510286D01*
X197534743Y-82106996D01*
X197131453Y-81837525D01*
X196655739Y-81742900D01*
X196296261Y-81742900D01*
X195820547Y-81837525D01*
X195417257Y-82106996D01*
X195147786Y-82510286D01*
X195053161Y-82986000D01*
X177046828Y-82986000D01*
X175728415Y-81667587D01*
X175556633Y-81552806D01*
X175354002Y-81512500D01*
X171417586Y-81512500D01*
X171349213Y-81347026D01*
X171130128Y-81127558D01*
X170843732Y-81008636D01*
X170533628Y-81008365D01*
X170247026Y-81126787D01*
X170027558Y-81345872D01*
X169908636Y-81632268D01*
X169908365Y-81942372D01*
X170026787Y-82228974D01*
X170245872Y-82448442D01*
X170532268Y-82567364D01*
X170842372Y-82567635D01*
X170868433Y-82556867D01*
X170942000Y-82571500D01*
X172767337Y-82571500D01*
X172700930Y-82615872D01*
X172599587Y-82683587D01*
X169194647Y-86088527D01*
X169009628Y-86088365D01*
X168723026Y-86206787D01*
X168503558Y-86425872D01*
X168384636Y-86712268D01*
X168384365Y-87022372D01*
X161626500Y-87022372D01*
X161626500Y-82552398D01*
X164013129Y-80165769D01*
X174962355Y-80165769D01*
X175080777Y-80452371D01*
X175299862Y-80671839D01*
X175586258Y-80790761D01*
X175896362Y-80791032D01*
X176182964Y-80672610D01*
X176314907Y-80540897D01*
X177036603Y-80540897D01*
X177239234Y-80500591D01*
X177320935Y-80446000D01*
X195053161Y-80446000D01*
X195147786Y-80921714D01*
X195417257Y-81325004D01*
X195820547Y-81594475D01*
X196296261Y-81689100D01*
X196655739Y-81689100D01*
X197131453Y-81594475D01*
X197534743Y-81325004D01*
X197804214Y-80921714D01*
X197898839Y-80446000D01*
X197804214Y-79970286D01*
X197534743Y-79566996D01*
X197131453Y-79297525D01*
X196655739Y-79202900D01*
X196296261Y-79202900D01*
X195820547Y-79297525D01*
X195417257Y-79566996D01*
X195147786Y-79970286D01*
X195053161Y-80446000D01*
X177320935Y-80446000D01*
X177411016Y-80385810D01*
X177515353Y-80281473D01*
X177700372Y-80281635D01*
X177986974Y-80163213D01*
X178206442Y-79944128D01*
X178325364Y-79657732D01*
X178325635Y-79347628D01*
X178207213Y-79061026D01*
X177988128Y-78841558D01*
X177701732Y-78722636D01*
X177391628Y-78722365D01*
X177105026Y-78840787D01*
X176885558Y-79059872D01*
X176766636Y-79346268D01*
X176766517Y-79481897D01*
X176314831Y-79481897D01*
X176184118Y-79350955D01*
X175897722Y-79232033D01*
X175587618Y-79231762D01*
X175301016Y-79350184D01*
X175081548Y-79569269D01*
X174962626Y-79855665D01*
X174962355Y-80165769D01*
X164013129Y-80165769D01*
X166089449Y-78089449D01*
X166116871Y-78048409D01*
X166126500Y-78000000D01*
X166126500Y-77370372D01*
X180322365Y-77370372D01*
X180440787Y-77656974D01*
X180659872Y-77876442D01*
X180946268Y-77995364D01*
X181256372Y-77995635D01*
X181367794Y-77949596D01*
X181456787Y-78164974D01*
X181675872Y-78384442D01*
X181962268Y-78503364D01*
X182272372Y-78503635D01*
X182514716Y-78403500D01*
X183896000Y-78403500D01*
X184156034Y-78351776D01*
X184376479Y-78204479D01*
X184674958Y-77906000D01*
X195053161Y-77906000D01*
X195147786Y-78381714D01*
X195417257Y-78785004D01*
X195820547Y-79054475D01*
X196296261Y-79149100D01*
X196655739Y-79149100D01*
X197131453Y-79054475D01*
X197534743Y-78785004D01*
X197804214Y-78381714D01*
X197898839Y-77906000D01*
X197804214Y-77430286D01*
X197534743Y-77026996D01*
X197131453Y-76757525D01*
X196655739Y-76662900D01*
X196296261Y-76662900D01*
X195820547Y-76757525D01*
X195417257Y-77026996D01*
X195147786Y-77430286D01*
X195053161Y-77906000D01*
X184674958Y-77906000D01*
X186382300Y-76198658D01*
X186622974Y-76099213D01*
X186842442Y-75880128D01*
X186961364Y-75593732D01*
X186961563Y-75366000D01*
X195053161Y-75366000D01*
X195147786Y-75841714D01*
X195417257Y-76245004D01*
X195820547Y-76514475D01*
X196296261Y-76609100D01*
X196655739Y-76609100D01*
X197131453Y-76514475D01*
X197534743Y-76245004D01*
X197804214Y-75841714D01*
X197898839Y-75366000D01*
X197804214Y-74890286D01*
X197534743Y-74486996D01*
X197131453Y-74217525D01*
X196655739Y-74122900D01*
X196296261Y-74122900D01*
X195820547Y-74217525D01*
X195417257Y-74486996D01*
X195147786Y-74890286D01*
X195053161Y-75366000D01*
X186961563Y-75366000D01*
X186961635Y-75283628D01*
X186843213Y-74997026D01*
X186624128Y-74777558D01*
X186337732Y-74658636D01*
X186027628Y-74658365D01*
X185741026Y-74776787D01*
X185521558Y-74995872D01*
X185421000Y-75238042D01*
X183614542Y-77044500D01*
X182514231Y-77044500D01*
X182273732Y-76944636D01*
X182122322Y-76944504D01*
X182492413Y-76574413D01*
X182607194Y-76402631D01*
X182647500Y-76200000D01*
X182647500Y-74994841D01*
X182778442Y-74864128D01*
X182897364Y-74577732D01*
X182897528Y-74390446D01*
X183134176Y-74390652D01*
X183457546Y-74257038D01*
X183705169Y-74009847D01*
X183839347Y-73686711D01*
X183839652Y-73336824D01*
X183706038Y-73013454D01*
X183458847Y-72765831D01*
X183226077Y-72669176D01*
X187160348Y-72669176D01*
X187293962Y-72992546D01*
X187541153Y-73240169D01*
X187864289Y-73374347D01*
X188214176Y-73374652D01*
X188537546Y-73241038D01*
X188785169Y-72993847D01*
X188854865Y-72826000D01*
X195053161Y-72826000D01*
X195147786Y-73301714D01*
X195417257Y-73705004D01*
X195820547Y-73974475D01*
X196296261Y-74069100D01*
X196655739Y-74069100D01*
X197131453Y-73974475D01*
X197534743Y-73705004D01*
X197804214Y-73301714D01*
X197898839Y-72826000D01*
X197804214Y-72350286D01*
X197534743Y-71946996D01*
X197131453Y-71677525D01*
X196655739Y-71582900D01*
X196296261Y-71582900D01*
X195820547Y-71677525D01*
X195417257Y-71946996D01*
X195147786Y-72350286D01*
X195053161Y-72826000D01*
X188854865Y-72826000D01*
X188919347Y-72670711D01*
X188919652Y-72320824D01*
X188786038Y-71997454D01*
X188538847Y-71749831D01*
X188215711Y-71615653D01*
X187865824Y-71615348D01*
X187542454Y-71748962D01*
X187294831Y-71996153D01*
X187160653Y-72319289D01*
X187160348Y-72669176D01*
X183226077Y-72669176D01*
X183135711Y-72631653D01*
X182785824Y-72631348D01*
X182462454Y-72764962D01*
X182214831Y-73012153D01*
X182080653Y-73335289D01*
X182080385Y-73642467D01*
X181963628Y-73642365D01*
X181677026Y-73760787D01*
X181457558Y-73979872D01*
X181338636Y-74266268D01*
X181338365Y-74576372D01*
X181456787Y-74862974D01*
X181588500Y-74994917D01*
X181588500Y-75980674D01*
X181132647Y-76436527D01*
X180947628Y-76436365D01*
X180661026Y-76554787D01*
X180441558Y-76773872D01*
X180322636Y-77060268D01*
X180322365Y-77370372D01*
X166126500Y-77370372D01*
X166126500Y-71653176D01*
X182080348Y-71653176D01*
X182213962Y-71976546D01*
X182461153Y-72224169D01*
X182784289Y-72358347D01*
X183134176Y-72358652D01*
X183457546Y-72225038D01*
X183705169Y-71977847D01*
X183839347Y-71654711D01*
X183839652Y-71304824D01*
X183706038Y-70981454D01*
X183458847Y-70733831D01*
X183135711Y-70599653D01*
X182785824Y-70599348D01*
X182462454Y-70732962D01*
X182214831Y-70980153D01*
X182080653Y-71303289D01*
X182080348Y-71653176D01*
X166126500Y-71653176D01*
X166126500Y-70286000D01*
X195053161Y-70286000D01*
X195147786Y-70761714D01*
X195417257Y-71165004D01*
X195820547Y-71434475D01*
X196296261Y-71529100D01*
X196655739Y-71529100D01*
X197131453Y-71434475D01*
X197534743Y-71165004D01*
X197804214Y-70761714D01*
X197898839Y-70286000D01*
X197804214Y-69810286D01*
X197534743Y-69406996D01*
X197131453Y-69137525D01*
X196655739Y-69042900D01*
X196296261Y-69042900D01*
X195820547Y-69137525D01*
X195417257Y-69406996D01*
X195147786Y-69810286D01*
X195053161Y-70286000D01*
X166126500Y-70286000D01*
X166126500Y-67841625D01*
X195079500Y-67841625D01*
X195079500Y-68685286D01*
X195137428Y-68825136D01*
X195244464Y-68932172D01*
X195384314Y-68990100D01*
X196380375Y-68990100D01*
X196475500Y-68894975D01*
X196475500Y-67746500D01*
X196476500Y-67746500D01*
X196476500Y-68894975D01*
X196571625Y-68990100D01*
X197567686Y-68990100D01*
X197707536Y-68932172D01*
X197814572Y-68825136D01*
X197872500Y-68685286D01*
X197872500Y-67841625D01*
X197777375Y-67746500D01*
X196476500Y-67746500D01*
X196475500Y-67746500D01*
X195174625Y-67746500D01*
X195079500Y-67841625D01*
X166126500Y-67841625D01*
X166126500Y-66806714D01*
X195079500Y-66806714D01*
X195079500Y-67650375D01*
X195174625Y-67745500D01*
X196475500Y-67745500D01*
X196475500Y-66597025D01*
X196476500Y-66597025D01*
X196476500Y-67745500D01*
X197777375Y-67745500D01*
X197872500Y-67650375D01*
X197872500Y-66806714D01*
X197814572Y-66666864D01*
X197707536Y-66559828D01*
X197567686Y-66501900D01*
X196571625Y-66501900D01*
X196476500Y-66597025D01*
X196475500Y-66597025D01*
X196380375Y-66501900D01*
X195384314Y-66501900D01*
X195244464Y-66559828D01*
X195137428Y-66666864D01*
X195079500Y-66806714D01*
X166126500Y-66806714D01*
X166126500Y-66000000D01*
X166116871Y-65951591D01*
X166089449Y-65910551D01*
X158589449Y-58410551D01*
X158548409Y-58383129D01*
X158500000Y-58373500D01*
X150454500Y-58373500D01*
X150454500Y-55392020D01*
X153020157Y-55392020D01*
X153320883Y-56119832D01*
X153877239Y-56677160D01*
X154604526Y-56979156D01*
X155392020Y-56979843D01*
X156119832Y-56679117D01*
X156677160Y-56122761D01*
X156879436Y-55635625D01*
X160103500Y-55635625D01*
X160103500Y-56631686D01*
X160161428Y-56771536D01*
X160268464Y-56878572D01*
X160408314Y-56936500D01*
X161404375Y-56936500D01*
X161499500Y-56841375D01*
X161499500Y-55540500D01*
X161500500Y-55540500D01*
X161500500Y-56841375D01*
X161595625Y-56936500D01*
X162591686Y-56936500D01*
X162731536Y-56878572D01*
X162838572Y-56771536D01*
X162896500Y-56631686D01*
X162896500Y-55840000D01*
X163077161Y-55840000D01*
X163183387Y-56374035D01*
X163485893Y-56826768D01*
X163938626Y-57129274D01*
X164472661Y-57235500D01*
X164527339Y-57235500D01*
X165061374Y-57129274D01*
X165514107Y-56826768D01*
X165816613Y-56374035D01*
X165922839Y-55840000D01*
X165833731Y-55392020D01*
X193020157Y-55392020D01*
X193320883Y-56119832D01*
X193877239Y-56677160D01*
X194604526Y-56979156D01*
X195392020Y-56979843D01*
X196119832Y-56679117D01*
X196677160Y-56122761D01*
X196979156Y-55395474D01*
X196979843Y-54607980D01*
X196679117Y-53880168D01*
X196122761Y-53322840D01*
X195395474Y-53020844D01*
X194607980Y-53020157D01*
X193880168Y-53320883D01*
X193322840Y-53877239D01*
X193020844Y-54604526D01*
X193020157Y-55392020D01*
X165833731Y-55392020D01*
X165816613Y-55305965D01*
X165514107Y-54853232D01*
X165289170Y-54702934D01*
X165516000Y-54702934D01*
X165664073Y-54673480D01*
X165789604Y-54589604D01*
X165873480Y-54464073D01*
X165902934Y-54316000D01*
X165902934Y-52284000D01*
X165873480Y-52135927D01*
X165789604Y-52010396D01*
X165664073Y-51926520D01*
X165516000Y-51897066D01*
X163484000Y-51897066D01*
X163335927Y-51926520D01*
X163210396Y-52010396D01*
X163126520Y-52135927D01*
X163097066Y-52284000D01*
X163097066Y-54316000D01*
X163126520Y-54464073D01*
X163210396Y-54589604D01*
X163335927Y-54673480D01*
X163484000Y-54702934D01*
X163710830Y-54702934D01*
X163485893Y-54853232D01*
X163183387Y-55305965D01*
X163077161Y-55840000D01*
X162896500Y-55840000D01*
X162896500Y-55635625D01*
X162801375Y-55540500D01*
X161500500Y-55540500D01*
X161499500Y-55540500D01*
X160198625Y-55540500D01*
X160103500Y-55635625D01*
X156879436Y-55635625D01*
X156979156Y-55395474D01*
X156979843Y-54607980D01*
X156679117Y-53880168D01*
X156122761Y-53322840D01*
X155395474Y-53020844D01*
X154607980Y-53020157D01*
X153880168Y-53320883D01*
X153322840Y-53877239D01*
X153020844Y-54604526D01*
X153020157Y-55392020D01*
X150454500Y-55392020D01*
X150454500Y-53000000D01*
X160077161Y-53000000D01*
X160183387Y-53534035D01*
X160485893Y-53986768D01*
X160720459Y-54143500D01*
X160408314Y-54143500D01*
X160268464Y-54201428D01*
X160161428Y-54308464D01*
X160103500Y-54448314D01*
X160103500Y-55444375D01*
X160198625Y-55539500D01*
X161499500Y-55539500D01*
X161499500Y-55519500D01*
X161500500Y-55519500D01*
X161500500Y-55539500D01*
X162801375Y-55539500D01*
X162896500Y-55444375D01*
X162896500Y-54448314D01*
X162838572Y-54308464D01*
X162731536Y-54201428D01*
X162591686Y-54143500D01*
X162279541Y-54143500D01*
X162514107Y-53986768D01*
X162816613Y-53534035D01*
X162922839Y-53000000D01*
X162816613Y-52465965D01*
X162514107Y-52013232D01*
X162061374Y-51710726D01*
X161527339Y-51604500D01*
X161472661Y-51604500D01*
X160938626Y-51710726D01*
X160485893Y-52013232D01*
X160183387Y-52465965D01*
X160077161Y-53000000D01*
X150454500Y-53000000D01*
X150454500Y-52544764D01*
X150618431Y-51720629D01*
X151059909Y-51059909D01*
X151720627Y-50618431D01*
X152544764Y-50454500D01*
X197455236Y-50454500D01*
X198279371Y-50618431D01*
X198279371Y-50618431D01*
G37*
X198279371Y-50618431D02*
X198940091Y-51059909D01*
X199381569Y-51720627D01*
X199545500Y-52544764D01*
X199545500Y-97455236D01*
X199381569Y-98279373D01*
X198940091Y-98940091D01*
X198279371Y-99381569D01*
X197455236Y-99545500D01*
X152544764Y-99545500D01*
X151720627Y-99381569D01*
X151059909Y-98940091D01*
X150618431Y-98279371D01*
X150527109Y-97820261D01*
X158676900Y-97820261D01*
X158676900Y-98179739D01*
X158771525Y-98655453D01*
X159040996Y-99058743D01*
X159444286Y-99328214D01*
X159920000Y-99422839D01*
X160395714Y-99328214D01*
X160799004Y-99058743D01*
X161068475Y-98655453D01*
X161163100Y-98179739D01*
X161163100Y-98000500D01*
X161215900Y-98000500D01*
X161215900Y-98152900D01*
X161310793Y-98628958D01*
X161580642Y-99032465D01*
X161984365Y-99301990D01*
X162264886Y-99381105D01*
X162459500Y-99301375D01*
X162459500Y-98000500D01*
X162460500Y-98000500D01*
X162460500Y-99301375D01*
X162655114Y-99381105D01*
X162935635Y-99301990D01*
X163339358Y-99032465D01*
X163609207Y-98628958D01*
X163704100Y-98152900D01*
X163704100Y-98000500D01*
X162460500Y-98000500D01*
X162459500Y-98000500D01*
X161215900Y-98000500D01*
X161163100Y-98000500D01*
X161163100Y-97847100D01*
X161215900Y-97847100D01*
X161215900Y-97999500D01*
X162459500Y-97999500D01*
X162459500Y-96698625D01*
X162460500Y-96698625D01*
X162460500Y-97999500D01*
X163704100Y-97999500D01*
X163704100Y-97847100D01*
X163609207Y-97371042D01*
X163350370Y-96984000D01*
X163749466Y-96984000D01*
X163749466Y-99016000D01*
X163778920Y-99164073D01*
X163862796Y-99289604D01*
X163988327Y-99373480D01*
X164136400Y-99402934D01*
X165863600Y-99402934D01*
X166011673Y-99373480D01*
X166137204Y-99289604D01*
X166221080Y-99164073D01*
X166250534Y-99016000D01*
X166250534Y-96984000D01*
X167209466Y-96984000D01*
X167209466Y-99016000D01*
X167238920Y-99164073D01*
X167322796Y-99289604D01*
X167448327Y-99373480D01*
X167596400Y-99402934D01*
X169323600Y-99402934D01*
X169471673Y-99373480D01*
X169597204Y-99289604D01*
X169681080Y-99164073D01*
X169710534Y-99016000D01*
X169710534Y-97820261D01*
X169756900Y-97820261D01*
X169756900Y-98179739D01*
X169851525Y-98655453D01*
X170120996Y-99058743D01*
X170524286Y-99328214D01*
X171000000Y-99422839D01*
X171475714Y-99328214D01*
X171879004Y-99058743D01*
X172148475Y-98655453D01*
X172243100Y-98179739D01*
X172243100Y-98000500D01*
X172295900Y-98000500D01*
X172295900Y-98152900D01*
X172390793Y-98628958D01*
X172660642Y-99032465D01*
X173064365Y-99301990D01*
X173344886Y-99381105D01*
X173539500Y-99301375D01*
X173539500Y-98000500D01*
X173540500Y-98000500D01*
X173540500Y-99301375D01*
X173735114Y-99381105D01*
X174015635Y-99301990D01*
X174419358Y-99032465D01*
X174689207Y-98628958D01*
X174784100Y-98152900D01*
X174784100Y-98000500D01*
X173540500Y-98000500D01*
X173539500Y-98000500D01*
X172295900Y-98000500D01*
X172243100Y-98000500D01*
X172243100Y-97847100D01*
X172295900Y-97847100D01*
X172295900Y-97999500D01*
X173539500Y-97999500D01*
X173539500Y-96698625D01*
X173540500Y-96698625D01*
X173540500Y-97999500D01*
X174784100Y-97999500D01*
X174784100Y-97847100D01*
X174689207Y-97371042D01*
X174430370Y-96984000D01*
X175709466Y-96984000D01*
X175709466Y-99016000D01*
X175738920Y-99164073D01*
X175822796Y-99289604D01*
X175948327Y-99373480D01*
X176096400Y-99402934D01*
X177823600Y-99402934D01*
X177971673Y-99373480D01*
X178097204Y-99289604D01*
X178181080Y-99164073D01*
X178210534Y-99016000D01*
X178210534Y-97820261D01*
X178256900Y-97820261D01*
X178256900Y-98179739D01*
X178351525Y-98655453D01*
X178620996Y-99058743D01*
X179024286Y-99328214D01*
X179500000Y-99422839D01*
X179975714Y-99328214D01*
X180379004Y-99058743D01*
X180648475Y-98655453D01*
X180743100Y-98179739D01*
X180743100Y-98000500D01*
X180795900Y-98000500D01*
X180795900Y-98152900D01*
X180890793Y-98628958D01*
X181160642Y-99032465D01*
X181564365Y-99301990D01*
X181844886Y-99381105D01*
X182039500Y-99301375D01*
X182039500Y-98000500D01*
X182040500Y-98000500D01*
X182040500Y-99301375D01*
X182235114Y-99381105D01*
X182515635Y-99301990D01*
X182919358Y-99032465D01*
X183189207Y-98628958D01*
X183284100Y-98152900D01*
X183284100Y-98000500D01*
X182040500Y-98000500D01*
X182039500Y-98000500D01*
X180795900Y-98000500D01*
X180743100Y-98000500D01*
X180743100Y-97847100D01*
X180795900Y-97847100D01*
X180795900Y-97999500D01*
X182039500Y-97999500D01*
X182039500Y-96698625D01*
X182040500Y-96698625D01*
X182040500Y-97999500D01*
X183284100Y-97999500D01*
X183284100Y-97847100D01*
X183189207Y-97371042D01*
X182930370Y-96984000D01*
X184169466Y-96984000D01*
X184169466Y-99016000D01*
X184198920Y-99164073D01*
X184282796Y-99289604D01*
X184408327Y-99373480D01*
X184556400Y-99402934D01*
X186283600Y-99402934D01*
X186431673Y-99373480D01*
X186557204Y-99289604D01*
X186641080Y-99164073D01*
X186670534Y-99016000D01*
X186670534Y-97820261D01*
X186716900Y-97820261D01*
X186716900Y-98179739D01*
X186811525Y-98655453D01*
X187080996Y-99058743D01*
X187484286Y-99328214D01*
X187960000Y-99422839D01*
X188435714Y-99328214D01*
X188839004Y-99058743D01*
X189108475Y-98655453D01*
X189203100Y-98179739D01*
X189203100Y-98000500D01*
X189255900Y-98000500D01*
X189255900Y-98152900D01*
X189350793Y-98628958D01*
X189620642Y-99032465D01*
X190024365Y-99301990D01*
X190304886Y-99381105D01*
X190499500Y-99301375D01*
X190499500Y-98000500D01*
X190500500Y-98000500D01*
X190500500Y-99301375D01*
X190695114Y-99381105D01*
X190975635Y-99301990D01*
X191379358Y-99032465D01*
X191649207Y-98628958D01*
X191744100Y-98152900D01*
X191744100Y-98000500D01*
X190500500Y-98000500D01*
X190499500Y-98000500D01*
X189255900Y-98000500D01*
X189203100Y-98000500D01*
X189203100Y-97847100D01*
X189255900Y-97847100D01*
X189255900Y-97999500D01*
X190499500Y-97999500D01*
X190499500Y-96698625D01*
X190500500Y-96698625D01*
X190500500Y-97999500D01*
X191744100Y-97999500D01*
X191744100Y-97847100D01*
X191649207Y-97371042D01*
X191379358Y-96967535D01*
X190975635Y-96698010D01*
X190695114Y-96618895D01*
X190500500Y-96698625D01*
X190499500Y-96698625D01*
X190304886Y-96618895D01*
X190024365Y-96698010D01*
X189620642Y-96967535D01*
X189350793Y-97371042D01*
X189255900Y-97847100D01*
X189203100Y-97847100D01*
X189203100Y-97820261D01*
X189108475Y-97344547D01*
X188839004Y-96941257D01*
X188435714Y-96671786D01*
X187960000Y-96577161D01*
X187484286Y-96671786D01*
X187080996Y-96941257D01*
X186811525Y-97344547D01*
X186716900Y-97820261D01*
X186670534Y-97820261D01*
X186670534Y-96984000D01*
X186641080Y-96835927D01*
X186557204Y-96710396D01*
X186431673Y-96626520D01*
X186283600Y-96597066D01*
X184556400Y-96597066D01*
X184408327Y-96626520D01*
X184282796Y-96710396D01*
X184198920Y-96835927D01*
X184169466Y-96984000D01*
X182930370Y-96984000D01*
X182919358Y-96967535D01*
X182515635Y-96698010D01*
X182235114Y-96618895D01*
X182040500Y-96698625D01*
X182039500Y-96698625D01*
X181844886Y-96618895D01*
X181564365Y-96698010D01*
X181160642Y-96967535D01*
X180890793Y-97371042D01*
X180795900Y-97847100D01*
X180743100Y-97847100D01*
X180743100Y-97820261D01*
X180648475Y-97344547D01*
X180379004Y-96941257D01*
X179975714Y-96671786D01*
X179500000Y-96577161D01*
X179024286Y-96671786D01*
X178620996Y-96941257D01*
X178351525Y-97344547D01*
X178256900Y-97820261D01*
X178210534Y-97820261D01*
X178210534Y-96984000D01*
X178181080Y-96835927D01*
X178097204Y-96710396D01*
X177971673Y-96626520D01*
X177823600Y-96597066D01*
X176096400Y-96597066D01*
X175948327Y-96626520D01*
X175822796Y-96710396D01*
X175738920Y-96835927D01*
X175709466Y-96984000D01*
X174430370Y-96984000D01*
X174419358Y-96967535D01*
X174015635Y-96698010D01*
X173735114Y-96618895D01*
X173540500Y-96698625D01*
X173539500Y-96698625D01*
X173344886Y-96618895D01*
X173064365Y-96698010D01*
X172660642Y-96967535D01*
X172390793Y-97371042D01*
X172295900Y-97847100D01*
X172243100Y-97847100D01*
X172243100Y-97820261D01*
X172148475Y-97344547D01*
X171879004Y-96941257D01*
X171475714Y-96671786D01*
X171000000Y-96577161D01*
X170524286Y-96671786D01*
X170120996Y-96941257D01*
X169851525Y-97344547D01*
X169756900Y-97820261D01*
X169710534Y-97820261D01*
X169710534Y-96984000D01*
X169681080Y-96835927D01*
X169597204Y-96710396D01*
X169471673Y-96626520D01*
X169323600Y-96597066D01*
X167596400Y-96597066D01*
X167448327Y-96626520D01*
X167322796Y-96710396D01*
X167238920Y-96835927D01*
X167209466Y-96984000D01*
X166250534Y-96984000D01*
X166221080Y-96835927D01*
X166137204Y-96710396D01*
X166011673Y-96626520D01*
X165863600Y-96597066D01*
X164136400Y-96597066D01*
X163988327Y-96626520D01*
X163862796Y-96710396D01*
X163778920Y-96835927D01*
X163749466Y-96984000D01*
X163350370Y-96984000D01*
X163339358Y-96967535D01*
X162935635Y-96698010D01*
X162655114Y-96618895D01*
X162460500Y-96698625D01*
X162459500Y-96698625D01*
X162264886Y-96618895D01*
X161984365Y-96698010D01*
X161580642Y-96967535D01*
X161310793Y-97371042D01*
X161215900Y-97847100D01*
X161163100Y-97847100D01*
X161163100Y-97820261D01*
X161068475Y-97344547D01*
X160799004Y-96941257D01*
X160395714Y-96671786D01*
X159920000Y-96577161D01*
X159444286Y-96671786D01*
X159040996Y-96941257D01*
X158771525Y-97344547D01*
X158676900Y-97820261D01*
X150527109Y-97820261D01*
X150454500Y-97455236D01*
X150454500Y-95392020D01*
X153020157Y-95392020D01*
X153320883Y-96119832D01*
X153877239Y-96677160D01*
X154604526Y-96979156D01*
X155392020Y-96979843D01*
X156119832Y-96679117D01*
X156677160Y-96122761D01*
X156979156Y-95395474D01*
X156979159Y-95392020D01*
X193020157Y-95392020D01*
X193320883Y-96119832D01*
X193877239Y-96677160D01*
X194604526Y-96979156D01*
X195392020Y-96979843D01*
X196119832Y-96679117D01*
X196677160Y-96122761D01*
X196979156Y-95395474D01*
X196979843Y-94607980D01*
X196679117Y-93880168D01*
X196122761Y-93322840D01*
X195395474Y-93020844D01*
X194607980Y-93020157D01*
X193880168Y-93320883D01*
X193322840Y-93877239D01*
X193020844Y-94604526D01*
X193020157Y-95392020D01*
X156979159Y-95392020D01*
X156979843Y-94607980D01*
X156679117Y-93880168D01*
X156122761Y-93322840D01*
X155395474Y-93020844D01*
X154607980Y-93020157D01*
X153880168Y-93320883D01*
X153322840Y-93877239D01*
X153020844Y-94604526D01*
X153020157Y-95392020D01*
X150454500Y-95392020D01*
X150454500Y-90626500D01*
X161500000Y-90626500D01*
X161548409Y-90616871D01*
X161589449Y-90589449D01*
X161616871Y-90548409D01*
X161626500Y-90500000D01*
X161626500Y-89562372D01*
X171940365Y-89562372D01*
X172058787Y-89848974D01*
X172277872Y-90068442D01*
X172564268Y-90187364D01*
X172874372Y-90187635D01*
X173160974Y-90069213D01*
X173292917Y-89937500D01*
X173482000Y-89937500D01*
X173684631Y-89897194D01*
X173856413Y-89782413D01*
X174467353Y-89171473D01*
X174652372Y-89171635D01*
X174938974Y-89053213D01*
X175158442Y-88834128D01*
X175277364Y-88547732D01*
X175277635Y-88237628D01*
X175159213Y-87951026D01*
X174940128Y-87731558D01*
X174653732Y-87612636D01*
X174343628Y-87612365D01*
X174057026Y-87730787D01*
X173837558Y-87949872D01*
X173718636Y-88236268D01*
X173718473Y-88422701D01*
X173277771Y-88863403D01*
X173162128Y-88747558D01*
X172875732Y-88628636D01*
X172565628Y-88628365D01*
X172279026Y-88746787D01*
X172059558Y-88965872D01*
X171940636Y-89252268D01*
X171940365Y-89562372D01*
X161626500Y-89562372D01*
X161626500Y-87022372D01*
X168384365Y-87022372D01*
X168502787Y-87308974D01*
X168721872Y-87528442D01*
X169008268Y-87647364D01*
X169318372Y-87647635D01*
X169604974Y-87529213D01*
X169671944Y-87462360D01*
X169760203Y-87550773D01*
X170046599Y-87669695D01*
X170356703Y-87669966D01*
X170458271Y-87627999D01*
X170416636Y-87728268D01*
X170416365Y-88038372D01*
X170534787Y-88324974D01*
X170753872Y-88544442D01*
X171040268Y-88663364D01*
X171350372Y-88663635D01*
X171636974Y-88545213D01*
X171768917Y-88413500D01*
X172002661Y-88413500D01*
X172205292Y-88373194D01*
X172377074Y-88258413D01*
X175513682Y-85121805D01*
X175698701Y-85121967D01*
X175985303Y-85003545D01*
X176204771Y-84784460D01*
X176323693Y-84498064D01*
X176323964Y-84187960D01*
X176205542Y-83901358D01*
X176116404Y-83812064D01*
X176174442Y-83754128D01*
X176216358Y-83653182D01*
X176798229Y-84235053D01*
X176798229Y-84363729D01*
X176838535Y-84566360D01*
X176948257Y-84730570D01*
X176948093Y-84918100D01*
X177066515Y-85204702D01*
X177285600Y-85424170D01*
X177571996Y-85543092D01*
X177882100Y-85543363D01*
X178168702Y-85424941D01*
X178388170Y-85205856D01*
X178507092Y-84919460D01*
X178507363Y-84609356D01*
X178388941Y-84322754D01*
X178169856Y-84103286D01*
X177883460Y-83984364D01*
X177850985Y-83984336D01*
X177816923Y-83813096D01*
X177702142Y-83641314D01*
X177046828Y-82986000D01*
X195053161Y-82986000D01*
X195147786Y-83461714D01*
X195417257Y-83865004D01*
X195820547Y-84134475D01*
X196296261Y-84229100D01*
X196655739Y-84229100D01*
X197131453Y-84134475D01*
X197534743Y-83865004D01*
X197804214Y-83461714D01*
X197898839Y-82986000D01*
X197804214Y-82510286D01*
X197534743Y-82106996D01*
X197131453Y-81837525D01*
X196655739Y-81742900D01*
X196296261Y-81742900D01*
X195820547Y-81837525D01*
X195417257Y-82106996D01*
X195147786Y-82510286D01*
X195053161Y-82986000D01*
X177046828Y-82986000D01*
X175728415Y-81667587D01*
X175556633Y-81552806D01*
X175354002Y-81512500D01*
X171417586Y-81512500D01*
X171349213Y-81347026D01*
X171130128Y-81127558D01*
X170843732Y-81008636D01*
X170533628Y-81008365D01*
X170247026Y-81126787D01*
X170027558Y-81345872D01*
X169908636Y-81632268D01*
X169908365Y-81942372D01*
X170026787Y-82228974D01*
X170245872Y-82448442D01*
X170532268Y-82567364D01*
X170842372Y-82567635D01*
X170868433Y-82556867D01*
X170942000Y-82571500D01*
X172767337Y-82571500D01*
X172700930Y-82615872D01*
X172599587Y-82683587D01*
X169194647Y-86088527D01*
X169009628Y-86088365D01*
X168723026Y-86206787D01*
X168503558Y-86425872D01*
X168384636Y-86712268D01*
X168384365Y-87022372D01*
X161626500Y-87022372D01*
X161626500Y-82552398D01*
X164013129Y-80165769D01*
X174962355Y-80165769D01*
X175080777Y-80452371D01*
X175299862Y-80671839D01*
X175586258Y-80790761D01*
X175896362Y-80791032D01*
X176182964Y-80672610D01*
X176314907Y-80540897D01*
X177036603Y-80540897D01*
X177239234Y-80500591D01*
X177320935Y-80446000D01*
X195053161Y-80446000D01*
X195147786Y-80921714D01*
X195417257Y-81325004D01*
X195820547Y-81594475D01*
X196296261Y-81689100D01*
X196655739Y-81689100D01*
X197131453Y-81594475D01*
X197534743Y-81325004D01*
X197804214Y-80921714D01*
X197898839Y-80446000D01*
X197804214Y-79970286D01*
X197534743Y-79566996D01*
X197131453Y-79297525D01*
X196655739Y-79202900D01*
X196296261Y-79202900D01*
X195820547Y-79297525D01*
X195417257Y-79566996D01*
X195147786Y-79970286D01*
X195053161Y-80446000D01*
X177320935Y-80446000D01*
X177411016Y-80385810D01*
X177515353Y-80281473D01*
X177700372Y-80281635D01*
X177986974Y-80163213D01*
X178206442Y-79944128D01*
X178325364Y-79657732D01*
X178325635Y-79347628D01*
X178207213Y-79061026D01*
X177988128Y-78841558D01*
X177701732Y-78722636D01*
X177391628Y-78722365D01*
X177105026Y-78840787D01*
X176885558Y-79059872D01*
X176766636Y-79346268D01*
X176766517Y-79481897D01*
X176314831Y-79481897D01*
X176184118Y-79350955D01*
X175897722Y-79232033D01*
X175587618Y-79231762D01*
X175301016Y-79350184D01*
X175081548Y-79569269D01*
X174962626Y-79855665D01*
X174962355Y-80165769D01*
X164013129Y-80165769D01*
X166089449Y-78089449D01*
X166116871Y-78048409D01*
X166126500Y-78000000D01*
X166126500Y-77370372D01*
X180322365Y-77370372D01*
X180440787Y-77656974D01*
X180659872Y-77876442D01*
X180946268Y-77995364D01*
X181256372Y-77995635D01*
X181367794Y-77949596D01*
X181456787Y-78164974D01*
X181675872Y-78384442D01*
X181962268Y-78503364D01*
X182272372Y-78503635D01*
X182514716Y-78403500D01*
X183896000Y-78403500D01*
X184156034Y-78351776D01*
X184376479Y-78204479D01*
X184674958Y-77906000D01*
X195053161Y-77906000D01*
X195147786Y-78381714D01*
X195417257Y-78785004D01*
X195820547Y-79054475D01*
X196296261Y-79149100D01*
X196655739Y-79149100D01*
X197131453Y-79054475D01*
X197534743Y-78785004D01*
X197804214Y-78381714D01*
X197898839Y-77906000D01*
X197804214Y-77430286D01*
X197534743Y-77026996D01*
X197131453Y-76757525D01*
X196655739Y-76662900D01*
X196296261Y-76662900D01*
X195820547Y-76757525D01*
X195417257Y-77026996D01*
X195147786Y-77430286D01*
X195053161Y-77906000D01*
X184674958Y-77906000D01*
X186382300Y-76198658D01*
X186622974Y-76099213D01*
X186842442Y-75880128D01*
X186961364Y-75593732D01*
X186961563Y-75366000D01*
X195053161Y-75366000D01*
X195147786Y-75841714D01*
X195417257Y-76245004D01*
X195820547Y-76514475D01*
X196296261Y-76609100D01*
X196655739Y-76609100D01*
X197131453Y-76514475D01*
X197534743Y-76245004D01*
X197804214Y-75841714D01*
X197898839Y-75366000D01*
X197804214Y-74890286D01*
X197534743Y-74486996D01*
X197131453Y-74217525D01*
X196655739Y-74122900D01*
X196296261Y-74122900D01*
X195820547Y-74217525D01*
X195417257Y-74486996D01*
X195147786Y-74890286D01*
X195053161Y-75366000D01*
X186961563Y-75366000D01*
X186961635Y-75283628D01*
X186843213Y-74997026D01*
X186624128Y-74777558D01*
X186337732Y-74658636D01*
X186027628Y-74658365D01*
X185741026Y-74776787D01*
X185521558Y-74995872D01*
X185421000Y-75238042D01*
X183614542Y-77044500D01*
X182514231Y-77044500D01*
X182273732Y-76944636D01*
X182122322Y-76944504D01*
X182492413Y-76574413D01*
X182607194Y-76402631D01*
X182647500Y-76200000D01*
X182647500Y-74994841D01*
X182778442Y-74864128D01*
X182897364Y-74577732D01*
X182897528Y-74390446D01*
X183134176Y-74390652D01*
X183457546Y-74257038D01*
X183705169Y-74009847D01*
X183839347Y-73686711D01*
X183839652Y-73336824D01*
X183706038Y-73013454D01*
X183458847Y-72765831D01*
X183226077Y-72669176D01*
X187160348Y-72669176D01*
X187293962Y-72992546D01*
X187541153Y-73240169D01*
X187864289Y-73374347D01*
X188214176Y-73374652D01*
X188537546Y-73241038D01*
X188785169Y-72993847D01*
X188854865Y-72826000D01*
X195053161Y-72826000D01*
X195147786Y-73301714D01*
X195417257Y-73705004D01*
X195820547Y-73974475D01*
X196296261Y-74069100D01*
X196655739Y-74069100D01*
X197131453Y-73974475D01*
X197534743Y-73705004D01*
X197804214Y-73301714D01*
X197898839Y-72826000D01*
X197804214Y-72350286D01*
X197534743Y-71946996D01*
X197131453Y-71677525D01*
X196655739Y-71582900D01*
X196296261Y-71582900D01*
X195820547Y-71677525D01*
X195417257Y-71946996D01*
X195147786Y-72350286D01*
X195053161Y-72826000D01*
X188854865Y-72826000D01*
X188919347Y-72670711D01*
X188919652Y-72320824D01*
X188786038Y-71997454D01*
X188538847Y-71749831D01*
X188215711Y-71615653D01*
X187865824Y-71615348D01*
X187542454Y-71748962D01*
X187294831Y-71996153D01*
X187160653Y-72319289D01*
X187160348Y-72669176D01*
X183226077Y-72669176D01*
X183135711Y-72631653D01*
X182785824Y-72631348D01*
X182462454Y-72764962D01*
X182214831Y-73012153D01*
X182080653Y-73335289D01*
X182080385Y-73642467D01*
X181963628Y-73642365D01*
X181677026Y-73760787D01*
X181457558Y-73979872D01*
X181338636Y-74266268D01*
X181338365Y-74576372D01*
X181456787Y-74862974D01*
X181588500Y-74994917D01*
X181588500Y-75980674D01*
X181132647Y-76436527D01*
X180947628Y-76436365D01*
X180661026Y-76554787D01*
X180441558Y-76773872D01*
X180322636Y-77060268D01*
X180322365Y-77370372D01*
X166126500Y-77370372D01*
X166126500Y-71653176D01*
X182080348Y-71653176D01*
X182213962Y-71976546D01*
X182461153Y-72224169D01*
X182784289Y-72358347D01*
X183134176Y-72358652D01*
X183457546Y-72225038D01*
X183705169Y-71977847D01*
X183839347Y-71654711D01*
X183839652Y-71304824D01*
X183706038Y-70981454D01*
X183458847Y-70733831D01*
X183135711Y-70599653D01*
X182785824Y-70599348D01*
X182462454Y-70732962D01*
X182214831Y-70980153D01*
X182080653Y-71303289D01*
X182080348Y-71653176D01*
X166126500Y-71653176D01*
X166126500Y-70286000D01*
X195053161Y-70286000D01*
X195147786Y-70761714D01*
X195417257Y-71165004D01*
X195820547Y-71434475D01*
X196296261Y-71529100D01*
X196655739Y-71529100D01*
X197131453Y-71434475D01*
X197534743Y-71165004D01*
X197804214Y-70761714D01*
X197898839Y-70286000D01*
X197804214Y-69810286D01*
X197534743Y-69406996D01*
X197131453Y-69137525D01*
X196655739Y-69042900D01*
X196296261Y-69042900D01*
X195820547Y-69137525D01*
X195417257Y-69406996D01*
X195147786Y-69810286D01*
X195053161Y-70286000D01*
X166126500Y-70286000D01*
X166126500Y-67841625D01*
X195079500Y-67841625D01*
X195079500Y-68685286D01*
X195137428Y-68825136D01*
X195244464Y-68932172D01*
X195384314Y-68990100D01*
X196380375Y-68990100D01*
X196475500Y-68894975D01*
X196475500Y-67746500D01*
X196476500Y-67746500D01*
X196476500Y-68894975D01*
X196571625Y-68990100D01*
X197567686Y-68990100D01*
X197707536Y-68932172D01*
X197814572Y-68825136D01*
X197872500Y-68685286D01*
X197872500Y-67841625D01*
X197777375Y-67746500D01*
X196476500Y-67746500D01*
X196475500Y-67746500D01*
X195174625Y-67746500D01*
X195079500Y-67841625D01*
X166126500Y-67841625D01*
X166126500Y-66806714D01*
X195079500Y-66806714D01*
X195079500Y-67650375D01*
X195174625Y-67745500D01*
X196475500Y-67745500D01*
X196475500Y-66597025D01*
X196476500Y-66597025D01*
X196476500Y-67745500D01*
X197777375Y-67745500D01*
X197872500Y-67650375D01*
X197872500Y-66806714D01*
X197814572Y-66666864D01*
X197707536Y-66559828D01*
X197567686Y-66501900D01*
X196571625Y-66501900D01*
X196476500Y-66597025D01*
X196475500Y-66597025D01*
X196380375Y-66501900D01*
X195384314Y-66501900D01*
X195244464Y-66559828D01*
X195137428Y-66666864D01*
X195079500Y-66806714D01*
X166126500Y-66806714D01*
X166126500Y-66000000D01*
X166116871Y-65951591D01*
X166089449Y-65910551D01*
X158589449Y-58410551D01*
X158548409Y-58383129D01*
X158500000Y-58373500D01*
X150454500Y-58373500D01*
X150454500Y-55392020D01*
X153020157Y-55392020D01*
X153320883Y-56119832D01*
X153877239Y-56677160D01*
X154604526Y-56979156D01*
X155392020Y-56979843D01*
X156119832Y-56679117D01*
X156677160Y-56122761D01*
X156879436Y-55635625D01*
X160103500Y-55635625D01*
X160103500Y-56631686D01*
X160161428Y-56771536D01*
X160268464Y-56878572D01*
X160408314Y-56936500D01*
X161404375Y-56936500D01*
X161499500Y-56841375D01*
X161499500Y-55540500D01*
X161500500Y-55540500D01*
X161500500Y-56841375D01*
X161595625Y-56936500D01*
X162591686Y-56936500D01*
X162731536Y-56878572D01*
X162838572Y-56771536D01*
X162896500Y-56631686D01*
X162896500Y-55840000D01*
X163077161Y-55840000D01*
X163183387Y-56374035D01*
X163485893Y-56826768D01*
X163938626Y-57129274D01*
X164472661Y-57235500D01*
X164527339Y-57235500D01*
X165061374Y-57129274D01*
X165514107Y-56826768D01*
X165816613Y-56374035D01*
X165922839Y-55840000D01*
X165833731Y-55392020D01*
X193020157Y-55392020D01*
X193320883Y-56119832D01*
X193877239Y-56677160D01*
X194604526Y-56979156D01*
X195392020Y-56979843D01*
X196119832Y-56679117D01*
X196677160Y-56122761D01*
X196979156Y-55395474D01*
X196979843Y-54607980D01*
X196679117Y-53880168D01*
X196122761Y-53322840D01*
X195395474Y-53020844D01*
X194607980Y-53020157D01*
X193880168Y-53320883D01*
X193322840Y-53877239D01*
X193020844Y-54604526D01*
X193020157Y-55392020D01*
X165833731Y-55392020D01*
X165816613Y-55305965D01*
X165514107Y-54853232D01*
X165289170Y-54702934D01*
X165516000Y-54702934D01*
X165664073Y-54673480D01*
X165789604Y-54589604D01*
X165873480Y-54464073D01*
X165902934Y-54316000D01*
X165902934Y-52284000D01*
X165873480Y-52135927D01*
X165789604Y-52010396D01*
X165664073Y-51926520D01*
X165516000Y-51897066D01*
X163484000Y-51897066D01*
X163335927Y-51926520D01*
X163210396Y-52010396D01*
X163126520Y-52135927D01*
X163097066Y-52284000D01*
X163097066Y-54316000D01*
X163126520Y-54464073D01*
X163210396Y-54589604D01*
X163335927Y-54673480D01*
X163484000Y-54702934D01*
X163710830Y-54702934D01*
X163485893Y-54853232D01*
X163183387Y-55305965D01*
X163077161Y-55840000D01*
X162896500Y-55840000D01*
X162896500Y-55635625D01*
X162801375Y-55540500D01*
X161500500Y-55540500D01*
X161499500Y-55540500D01*
X160198625Y-55540500D01*
X160103500Y-55635625D01*
X156879436Y-55635625D01*
X156979156Y-55395474D01*
X156979843Y-54607980D01*
X156679117Y-53880168D01*
X156122761Y-53322840D01*
X155395474Y-53020844D01*
X154607980Y-53020157D01*
X153880168Y-53320883D01*
X153322840Y-53877239D01*
X153020844Y-54604526D01*
X153020157Y-55392020D01*
X150454500Y-55392020D01*
X150454500Y-53000000D01*
X160077161Y-53000000D01*
X160183387Y-53534035D01*
X160485893Y-53986768D01*
X160720459Y-54143500D01*
X160408314Y-54143500D01*
X160268464Y-54201428D01*
X160161428Y-54308464D01*
X160103500Y-54448314D01*
X160103500Y-55444375D01*
X160198625Y-55539500D01*
X161499500Y-55539500D01*
X161499500Y-55519500D01*
X161500500Y-55519500D01*
X161500500Y-55539500D01*
X162801375Y-55539500D01*
X162896500Y-55444375D01*
X162896500Y-54448314D01*
X162838572Y-54308464D01*
X162731536Y-54201428D01*
X162591686Y-54143500D01*
X162279541Y-54143500D01*
X162514107Y-53986768D01*
X162816613Y-53534035D01*
X162922839Y-53000000D01*
X162816613Y-52465965D01*
X162514107Y-52013232D01*
X162061374Y-51710726D01*
X161527339Y-51604500D01*
X161472661Y-51604500D01*
X160938626Y-51710726D01*
X160485893Y-52013232D01*
X160183387Y-52465965D01*
X160077161Y-53000000D01*
X150454500Y-53000000D01*
X150454500Y-52544764D01*
X150618431Y-51720629D01*
X151059909Y-51059909D01*
X151720627Y-50618431D01*
X152544764Y-50454500D01*
X197455236Y-50454500D01*
X198279371Y-50618431D01*
M02*
