M48
;DRILL file {KiCad (2016-03-07 BZR 6612)-product} date Monday, 30 May 2016 'amt' 03:10:16
;FORMAT={-:-/ absolute / inch / decimal}
FMAT,2
INCH,TZ
T1C0.016
T2C0.040
T3C0.039
T4C0.126
%
G90
G05
M72
T1
X6.3Y-2.57
X6.32Y-2.77
X6.44Y-2.82
X6.47Y-2.46
X6.54Y-2.4
X6.6Y-3.27
X6.61Y-2.47
X6.66Y-2.38
X6.66Y-3.42
X6.68Y-3.05
X6.7009Y-3.4209
X6.72Y-3.22
X6.74Y-3.46
X6.76Y-2.59
X6.8Y-3.52
X6.86Y-2.22
X6.87Y-3.27
X6.87Y-3.48
X6.88Y-3.58
X6.91Y-2.83
X6.91Y-3.28
X6.9112Y-3.3206
X6.919Y-3.1501
X6.99Y-3.13
X6.9972Y-3.3372
X7.01Y-2.7
X7.13Y-3.04
X7.17Y-2.93
X7.17Y-3.06
X7.2Y-3.58
X7.25Y-2.79
X7.33Y-2.97
X7.45Y-3.03
X7.45Y-3.09
X7.59Y-2.69
T2
X6.063Y-2.8528
X6.063Y-2.9528
X6.063Y-3.0528
X6.063Y-3.2268
X6.063Y-3.3268
X6.063Y-3.4268
X6.2008Y-3.2268
X6.2008Y-3.3268
X6.2008Y-3.4268
X6.2961Y-3.8583
X6.3583Y-2.0866
X6.3583Y-2.1866
X6.3961Y-3.8583
X6.4764Y-2.0984
X6.4764Y-2.1984
X6.4961Y-3.8583
X6.6323Y-3.8583
X6.7323Y-3.8583
X6.8323Y-3.8583
X6.9669Y-3.8583
X7.0669Y-3.8583
X7.1669Y-3.8583
X7.3Y-3.8583
X7.4Y-3.8583
X7.5Y-3.8583
X7.68Y-2.39
X7.68Y-2.49
X7.7353Y-2.6672
X7.7353Y-2.7672
X7.7353Y-2.8672
X7.7353Y-2.9672
X7.7353Y-3.0672
X7.7353Y-3.1672
X7.7353Y-3.2672
T3
X7.2031Y-2.8141
X7.2031Y-2.8941
X7.4031Y-2.8541
T4
X6.1024Y-2.1654
X6.1024Y-3.7402
X7.6772Y-2.1654
X7.6772Y-3.7402
T0
M30
